<?xml version="1.0" standalone="no"?>
<!DOCTYPE svg PUBLIC "-//W3C//DTD SVG 1.1//EN" "http://www.w3.org/Graphics/SVG/1.1/DTD/svg11.dtd" >
<svg xmlns="http://www.w3.org/2000/svg" xmlns:xlink="http://www.w3.org/1999/xlink" version="1.1">
<metadata>
Created by FontForge 20190801 at Sun May 13 10:12:23 2012
 By Jimmy Wärting
Copyright (c) 2012 COOP. All rights reserved.
</metadata>
<defs>
<font id="CoopNewTTReg" horiz-adv-x="373" >
  <font-face 
    font-family="CoopNewTTReg"
    font-weight="400"
    font-stretch="normal"
    units-per-em="1000"
    panose-1="2 0 0 0 0 0 0 0 0 0"
    ascent="718"
    descent="-282"
    x-height="530"
    cap-height="727"
    bbox="-60 -206 1114.32 956.5"
    underline-thickness="50"
    underline-position="-100"
    unicode-range="U+000D-FB02"
  />
<missing-glyph horiz-adv-x="500" 
d="M0 700h500v-700h-500v700zM420 650h-340l170 -255zM450 95v510l-170 -255zM420 50l-170 255l-170 -255h340zM50 95l170 255l-170 255v-510z" />
    <glyph glyph-name=".notdef" horiz-adv-x="500" 
d="M0 700h500v-700h-500v700zM420 650h-340l170 -255zM450 95v510l-170 -255zM420 50l-170 255l-170 -255h340zM50 95l170 255l-170 255v-510z" />
    <glyph glyph-name="NULL" horiz-adv-x="0" 
 />
    <glyph glyph-name="NULL" horiz-adv-x="0" 
 />
    <glyph glyph-name="nonmarkingreturn" unicode="&#xd;" horiz-adv-x="225" 
 />
    <glyph glyph-name="space" unicode=" " horiz-adv-x="225" 
 />
    <glyph glyph-name="percent" unicode="%" horiz-adv-x="766" 
d="M187 -3q-14 2 -26.5 3.5t-21.5 4.5q14 29 27.5 59t29.5 62l43 94l45 84l36 80l43 84l43 98l34 62l25 57q5 15 19 30h37q8 1 16.5 2t18.5 0l42 -5q8 0 14 -2t13 -6l-30 -56l-20 -39l-48 -94l-37 -76l-59 -131l-58 -106l-46 -104q-11 -27 -22 -51.5t-28 -50.5
q-10 -2 -17 -1.5t-17 0.5q-27 -3 -56 2zM50 663q23 23 52 35t67 13q51 -4 82.5 -19t49.5 -38q20 -29 26 -56t7 -56q-2 -36 -14.5 -60t-24.5 -44q-20 -23 -49.5 -37t-67.5 -15q-41 1 -69.5 13.5t-51.5 29.5q-22 23 -35 49.5t-11 61.5q-2 32 8.5 63t30.5 60zM110 545
q3 -24 18 -43q15 -10 46 -15q28 4 40 21q17 19 17 38q0 24 -17 40q-7 6 -15.5 11t-23.5 5q-15 4 -28.5 -0.5t-20.5 -14.5q-8 -9 -11 -20t-5 -22zM472 278q23 23 52 35t67 13q51 -4 82.5 -19t49.5 -38q20 -29 26 -56t7 -56q-2 -36 -14.5 -60t-24.5 -44q-20 -23 -49.5 -37
t-67.5 -15q-41 1 -69.5 13.5t-51.5 29.5q-22 23 -35 49.5t-11 61.5q-2 32 8.5 63t30.5 60zM534 159q2 -11 5.5 -22t11.5 -20q15 -10 46 -15q28 4 40 21q17 17 17 38q0 11 -4 21t-14 18q-6 6 -14.5 11t-23.5 5q-15 4 -28 -0.5t-20 -14.5q-9 -9 -11.5 -19.5t-4.5 -22.5z" />
    <glyph glyph-name="ampersand" unicode="&#x26;" horiz-adv-x="751" 
d="M275 319q-32 -11 -51.5 -32t-19.5 -47q0 -18 8 -36t23 -33t36 -24t47 -9q30 0 51.5 10.5t38.5 30.5l-75 76zM341 726q60 3 112 -9.5t100 -33.5q37 -29 52 -63t18 -70q2 -35 -10 -65t-35 -56q-47 -47 -104 -71l56 -53q8 11 16.5 23t20.5 20q13 -7 26 -16t26 -22
q18 -13 33 -24.5t27 -26.5q-4 -8 -8.5 -18.5t-16.5 -21.5l-17 -27l40 -34q12 -11 23.5 -23t21.5 -23q-5 -11 -14.5 -24.5t-29.5 -30.5l-45 -42q-6 -8 -12.5 -14.5t-16.5 -12.5q0 -1 -3.5 1.5t-8 7.5t-9 11t-7.5 12q-12 13 -22.5 23t-21.5 23q-14 -20 -26.5 -27.5
t-30.5 -15.5q-29 -17 -67 -22.5t-82 -4.5q-114 -2 -184 37q-17 7 -34.5 22t-31.5 30q-20 25 -35.5 53t-15.5 67q0 47 7 72.5t23 46.5q7 12 18.5 24t25.5 23t30.5 19.5t33.5 13.5q-37 19 -58 56q-17 20 -23 45t-4 56q2 36 20.5 66t50.5 56q35 18 79.5 30.5t112.5 12.5z
M376 475q11 9 19 23.5t8 37.5q0 22 -21 34t-44 12q-27 -1 -41.5 -11.5t-18.5 -35.5q-2 -10 7.5 -25.5t20.5 -25.5l34 -31z" />
    <glyph glyph-name="quoteright" unicode="&#x2019;" horiz-adv-x="253" 
d="M48 657q3 17 2.5 32.5t-1.5 32.5q3 13 18 16q14 2 30 0t31 -4q17 2 32.5 1.5t32.5 -1.5q11 0 17 -29q2 -18 1 -36.5t-2 -36.5v-26t-3 -27v-6.5t-1 -6.5q-3 -8 -7 -15.5t-11 -13.5q-5 -8 -9 -18t-11 -18q-3 -7 -6 -12.5t-9 -13.5l-21 -39q-9 -2 -18 -3.5t-20 0.5l-36 3
q-5 -1 -7 5q13 22 20 39l17 38q4 11 8 22.5t5 22.5q-9 2 -20 1.5t-20 1.5q-10 6 -14 24z" />
    <glyph glyph-name="parenleft" unicode="(" horiz-adv-x="434" 
d="M376 787q-23 -14 -38.5 -29t-26.5 -32t-19.5 -35t-17.5 -36q-14 -33 -23.5 -68t-15.5 -70q-7 -35 -9 -70.5t-3 -70.5q0 -93 20 -190q7 -48 27 -94.5t47 -91.5q14 -20 28 -35.5t36 -26.5q-1 -7 -6.5 -10.5t-12.5 -6.5q-39 7 -74.5 21t-62.5 35q-29 16 -51 40.5t-43 56.5
q-29 61 -52 120.5t-25 118.5q-2 51 1.5 100t14.5 100q11 41 28 79t40 74q28 35 61 65t77 53q39 22 89 21q9 -8 11 -18z" />
    <glyph glyph-name="parenright" unicode=")" horiz-adv-x="398" 
d="M47 -60q23 13 38.5 28.5t26.5 32.5t19.5 35t17.5 36q14 33 23.5 68t15.5 70q7 35 9 70.5t3 70.5q0 93 -20 190q-7 48 -27 94.5t-47 91.5q-14 20 -28 35.5t-36 26.5q1 7 6.5 10.5t12.5 6.5q39 -7 74.5 -21t62.5 -35q29 -16 51 -40.5t43 -56.5q29 -61 52 -120.5t25 -118.5
q2 -51 -1.5 -100t-14.5 -100q-11 -41 -28 -79t-40 -74q-28 -35 -61 -65t-77 -53q-39 -22 -89 -21q-9 8 -11 18z" />
    <glyph glyph-name="asterisk" unicode="*" horiz-adv-x="481" 
d="M299 742q3 -15 1.5 -31.5t-4.5 -33.5q-3 -41 -19 -78q14 11 29.5 21.5t34.5 17.5q19 8 37 14t37 12q13 -15 18.5 -30t6.5 -32q13 -31 22 -65q-14 -6 -30.5 -9.5t-33.5 -5.5q-20 -5 -38.5 -8t-38.5 -6l62 -48q15 -8 26.5 -18.5t16.5 -24.5q-10 -12 -21.5 -23t-25.5 -22
q-11 -14 -23.5 -25t-27.5 -19q-9 7 -18 14.5t-16 18.5q-17 20 -30.5 40.5t-25.5 41.5l-51 -82q-7 -15 -16.5 -25t-20.5 -19q-14 8 -25.5 18t-22.5 21q-15 11 -29 23.5t-25 27.5q11 17 23.5 31t26.5 28q33 28 65 42q-21 4 -41.5 8.5t-39.5 10.5q-20 2 -37 7t-33 13
q5 15 9 29.5t15 29.5q9 36 26 65q20 -4 36 -10t32 -14l47 -32q-6 19 -9 37t-5 37q-2 12 -1.5 24.5t2.5 26.5q17 5 34 3.5t34 -3.5q17 2 34 2h33z" />
    <glyph glyph-name="plus" unicode="+" horiz-adv-x="597" 
d="M218 53q-5 20 -4 42t2 46l1 78q-15 0 -31 1t-33 3l-88 -2q-3 8 -4 16t0 16q-2 24 0 47q-4 15 -3 30.5t3 30.5q20 5 42 4t46 -2l68 -1l1 92q0 16 0.5 32.5t5.5 30.5q12 10 26.5 8.5t28.5 -3.5l31 -2h24t21 -8q5 -7 5.5 -19.5t0.5 -22.5l-3 -108h10l94 -1q16 0 32.5 -0.5
t30.5 -5.5q10 -12 8.5 -26.5t-3.5 -28.5l-2 -31v-24t-8 -21q-7 -5 -19.5 -5.5t-22.5 -0.5l-113 3h-5q0 -18 -1 -37t-3 -39l2 -88q-8 -3 -16 -4t-16 0q-24 -2 -47 0q-15 -4 -30.5 -3t-30.5 3z" />
    <glyph glyph-name="comma" unicode="," horiz-adv-x="239" 
d="M42 90q3 17 2.5 32.5t-1.5 32.5q3 13 18 16q14 2 30 0t31 -4q17 2 32.5 1.5t32.5 -1.5q11 0 17 -29q2 -18 1 -36.5t-2 -36.5v-26t-3 -27v-6.5t-1 -6.5q-3 -8 -7 -15.5t-11 -13.5q-5 -8 -9 -18t-11 -18q-3 -7 -6 -12.5t-9 -13.5l-21 -39q-9 -2 -18 -3.5t-20 0.5l-36 3
q-5 -1 -7 5q13 22 20 39l17 38q4 11 8 22.5t5 22.5q-9 2 -20 1.5t-20 1.5q-10 6 -14 24z" />
    <glyph glyph-name="hyphen" unicode="-" horiz-adv-x="334" 
d="M47 404q4 4 19 5t28 1l69 -4l51 1l51 -1q9 0 17.5 -1.5t16.5 -6.5q4 -13 4 -27t-1 -29l-3 -35q2 -11 0.5 -21.5t-3.5 -20.5q-4 -5 -11.5 -8t-12.5 -3l-60 2q-16 0 -31.5 0.5t-30.5 1.5q-13 -2 -26 -2t-28 3q-31 -2 -49 0q-3 19 -2 34q-2 24 0 49q-4 30 2 62z" />
    <glyph glyph-name="period" unicode="." horiz-adv-x="270" 
d="M210 7q-11 -6 -23.5 -8.5t-26.5 -4.5l-93 3q-12 7 -16 26l2 67q3 17 2.5 32.5t-1.5 32.5q3 13 18 16q14 2 30 0t31 -4q17 2 32.5 1.5t32.5 -1.5q11 0 17 -29q2 -18 1 -36.5t-2 -36.5v-29t-4 -29z" />
    <glyph glyph-name="slash" unicode="/" horiz-adv-x="438" 
d="M68 -22q-14 1 -26.5 3t-22.5 4q11 29 23 59.5t26 63.5l39 95l35 85l30 81l36 85l34 107l29 70l20 58q4 16 17 30l36 1q8 2 16.5 3t19.5 0l41 -3q14 0 28 -8l-26 -56l-16 -40l-40 -102l-29 -85l-51 -132l-45 -108l-39 -105q-8 -27 -17.5 -52t-23.5 -52q-10 -2 -19 -2h-19
q-14 -2 -28 -2t-28 2z" />
    <glyph glyph-name="zero" unicode="0" horiz-adv-x="662" 
d="M324 731q77 0 134 -26t94.5 -73.5t57 -113t22.5 -144.5q0 -184 -76 -280t-228 -96q-143 0 -216.5 88t-81.5 262q0 84 16.5 155t52.5 122.5t91.5 79.5t133.5 26zM332 525q-25 0 -42.5 -13.5t-29 -36.5t-16.5 -54.5t-5 -68.5q3 -43 8 -74.5t14.5 -52t26.5 -30.5t44 -10
q50 0 66.5 48.5t16.5 140.5q0 19 -3 44t-11.5 48t-25 39.5t-43.5 19.5z" />
    <glyph glyph-name="one" unicode="1" horiz-adv-x="448" 
d="M211 708q23 2 45 4.5t47 2.5q44 0 81 -13q2 -9 2.5 -15.5t0.5 -17.5q6 -25 8.5 -49.5t2.5 -50.5l-2 -134l2 -116l-1 -122l1 -78l-4 -77q0 -31 -7 -39q-18 -2 -33.5 -1.5t-31.5 1.5q-46 -5 -88 0q-10 1 -19 2t-17 4q-4 7 -4 13.5t1 13.5l3 66l-4 65l1 70l3 73v69v45
q0 8 -4 11l-37 -32l-36 -31q-10 9 -21 19t-19 21l-55 53q-7 5 -10.5 12t-5.5 12q3 12 11 21t17 17l69 72l65 72z" />
    <glyph glyph-name="two" unicode="2" horiz-adv-x="597" 
d="M363 247q-11 -12 -19.5 -25t-16.5 -27q8 -5 21 -5.5t27 0.5l95 7h91q6 -11 5.5 -24.5t-2.5 -28.5l2 -101l1 -35q-3 -5 -9 -6t-15 -2l-86 2l-96 1l-128 -5l-65 5q-27 -3 -58.5 -2.5t-60.5 2.5q-14 11 -16 25q-1 11 -1.5 23t0.5 25l3 45l4 34q9 19 22.5 34.5t30.5 30.5
l74 82l70 77q11 11 21.5 23.5t18.5 28.5q11 11 15 25.5t5 29.5q0 19 -14.5 33.5t-34.5 14.5t-35.5 -4.5t-26.5 -12.5q-17 -7 -27 -11.5t-27 -11.5q-19 -12 -53 -23q-10 -10 -29 -6q-12 15 -14 26q-4 31 0 59l-3 46q-1 18 -1.5 32t4.5 40q15 10 30 19t44 17q31 8 64 15.5
t80 7.5q68 0 126 -16q35 -9 57.5 -22.5t39.5 -28.5q36 -30 47 -62.5t15 -66.5q-2 -58 -23 -104q-15 -30 -35 -57t-43 -53z" />
    <glyph glyph-name="three" unicode="3" horiz-adv-x="604" 
d="M50 722q58 12 137 7q25 1 48.5 -0.5t46.5 -6.5q44 -5 82 -17t73 -30q36 -21 53 -49.5t25 -63.5q6 -29 1.5 -55t-14.5 -52q-7 -18 -18 -31.5t-25 -24.5q8 -3 17 -9t17 -13.5t15 -15t12 -12.5q28 -23 39.5 -55t13.5 -73q3 -46 -12 -83t-36 -67q-22 -23 -47 -40t-57 -25
q-23 -5 -47.5 -6.5t-49.5 -2.5l-96 5l-130 -4l-65 8q-5 16 0 33l-2 82l2 62q15 3 28 2t28 -2q20 -5 40 -8.5t46 -4.5q21 -1 42 0t42 5q19 4 31 11.5t20 17.5q8 11 11 23.5t3 27.5q-2 13 -7.5 23t-17.5 17q-12 8 -23 11t-19 8l-59 8l-25 5q-3 13 -3 26v25q-2 11 -1 20.5
t1 20.5q-1 8 4.5 14.5t12.5 8.5q28 5 53 2q21 5 33.5 15.5t13.5 21.5q5 15 -4.5 28.5t-20.5 20.5q-8 7 -24 12.5t-34 5.5l-51 -3l-52 -4q-15 -1 -28 0.5t-21 8.5v19q-1 14 -1.5 27.5t1.5 27.5q-5 26 -3.5 50t1.5 48z" />
    <glyph glyph-name="four" unicode="4" horiz-adv-x="711" 
d="M430 667l74 39l23 6q8 3 20 1t14 -5q11 -31 9.5 -65t1.5 -65q-1 -23 -1.5 -46t1.5 -46q0 -25 0.5 -49t2.5 -49l38 -9l64 -12q1 -30 0 -59q3 -16 2.5 -36t-2.5 -36l3 -29q1 -11 -8 -20.5t-24 -11.5q-17 0 -33 1t-33 5q-6 -14 -7 -28t-1 -28l1 -58l-3 -59q-5 -7 -14.5 -8.5
t-19.5 -2.5l-68 5l-55 1q-8 -2 -15.5 -3.5t-17.5 0.5q-2 7 -3 15.5t-1 15.5l-2 78l1 33q0 11 0.5 20.5t2.5 20.5q-14 2 -28 2t-28 -1l-127 -3l-85 -1l-65 6q-12 -2 -20.5 1.5t-16.5 10.5q0 20 3.5 40t7.5 37l35 126l38 122l35 114q3 20 7 41t12 41q22 9 52 6q14 2 27.5 2
t27.5 -2l61 -5q5 -1 8 -2t6 -6q5 -11 3.5 -21.5t-3.5 -21.5l-23 -77l-25 -89l-13 -52l-14 -70q8 -2 19.5 -3t28.5 0q31 -1 66 5l4 48q2 14 1.5 27t-1.5 27l1 96q-1 11 -2 23t1 26z" />
    <glyph glyph-name="five" unicode="5" horiz-adv-x="614" 
d="M49 720l128 4l158 -1l181 -1q8 -22 5 -48v-79v-51q-19 -7 -42 -8t-42 0l-105 3h-45t-45 -5q-1 -11 -2 -24t1 -24h39.5t39.5 -2l59 -8q23 -3 42.5 -9t37.5 -14q39 -24 68 -50q14 -9 26 -28t20 -32q12 -23 17.5 -46t1.5 -46q0 -53 -20 -107q-17 -30 -38 -53t-46 -43
q-29 -14 -60 -24.5t-64 -12.5q-32 -5 -65 -9.5t-68 -3.5q-34 2 -66.5 3t-64.5 5q-20 5 -36.5 12.5t-30.5 20.5q1 29 2 57t-2 57q-2 14 -2.5 28t1.5 28q4 12 26 9l51 -6q32 -8 65.5 -15t75.5 -12q24 0 40 5t28 13q14 9 19.5 21t9.5 25q3 19 -2 33t-25 23q-8 7 -16.5 11
t-18.5 7q-16 8 -33.5 10.5t-35.5 2.5l-44 -2t-44 -6q-19 -2 -38 -4.5t-36 -9.5q-10 -3 -10 17q2 26 1.5 52t-2.5 52l-3 119l4 112z" />
    <glyph glyph-name="six" unicode="6" horiz-adv-x="655" 
d="M332 723q23 0 46 -0.5t46 -4.5q53 -2 98 -15q3 -11 6 -22.5t1 -25.5q2 -16 0.5 -30.5t-3.5 -28.5q1 -14 0.5 -28.5t-4.5 -28.5q-13 -2 -31 -1t-29 7q-17 4 -35 4.5t-35 0.5q-26 2 -42 -3t-30 -10q-46 -17 -62 -52q-8 -16 -10.5 -34t-4.5 -34q11 9 24.5 20t35.5 18
q45 20 97 17q63 -3 122 -32q42 -27 64 -62q45 -64 37 -129q1 -39 -9 -75.5t-27 -69.5q-13 -21 -28.5 -37t-36.5 -24q-32 -26 -73.5 -35.5t-91.5 -7.5q-51 1 -91.5 6.5t-71.5 16.5q-29 17 -52 37.5t-42 43.5q-31 49 -47 102t-21 110q-3 50 2 98.5t22 96.5q11 34 27 64.5
t41 56.5q20 20 41.5 37.5t47.5 28.5q27 11 56.5 18.5t62.5 6.5zM334 317q-15 0 -30 -7.5t-27 -18.5t-19.5 -23t-7.5 -22q0 -12 6.5 -26t17 -25t25 -18t30.5 -7q13 0 26.5 7t25 19t18.5 26.5t7 29.5q0 26 -17.5 45.5t-54.5 19.5z" />
    <glyph glyph-name="seven" unicode="7" horiz-adv-x="579" 
d="M15 706q4 6 31 0t83 -3l137 2l131 1l106 1q15 2 29.5 3.5t27.5 -2.5q7 -10 8.5 -19.5t-0.5 -19.5v-79l-1 -67l-1 -26q-5 -10 -12.5 -23.5t-15.5 -21.5l-51 -114l-62 -143l-43 -99l-31 -87q-5 -6 -14 -7.5t-19 -1.5l-99 2h-98q-12 0 -9 10l42 79q16 42 34 81.5t38 79.5
l54 126l57 130q-27 -3 -52 -3.5t-50 0.5l-144 -4q-20 -2 -38.5 -0.5t-36.5 4.5v39.5t-4 39.5q2 41 0 82q-5 20 3 40z" />
    <glyph glyph-name="eight" unicode="8" horiz-adv-x="666" 
d="M326 730q63 -4 111.5 -15.5t86.5 -31.5q41 -32 59 -68.5t19 -78.5q0 -23 -7 -45.5t-17 -45.5q-15 -31 -46 -50q28 -12 49.5 -30t39.5 -40q19 -28 26.5 -55.5t8.5 -55.5q-3 -97 -67 -161q-59 -34 -124.5 -48t-138.5 -14q-64 3 -119 17.5t-101 37.5q-42 32 -66.5 76
t-29.5 104q1 36 12.5 69.5t40.5 63.5q19 18 41 33t49 25q-33 19 -53 51q-12 21 -17 42.5t-7 42.5q3 35 18.5 67t38.5 60q23 26 71 37t122 13zM329 584q-32 -1 -45.5 -18.5t-15.5 -46.5q3 -34 19.5 -46.5t41.5 -12.5q62 6 65 70q-3 25 -18.5 39t-46.5 15zM331 314
q-42 0 -61.5 -22.5t-22.5 -62.5q2 -33 24 -53t61 -19q81 1 84 78q1 35 -18 56.5t-67 22.5z" />
    <glyph glyph-name="nine" unicode="9" horiz-adv-x="617" 
d="M283 3q-23 0 -47.5 1.5t-47.5 5.5q-26 1 -54.5 11.5t-51.5 17.5q-6 22 -6 42q0 16 5 33.5t7 31.5q-1 14 3 34t8 34q13 2 31.5 -3.5t29.5 -11.5q17 -4 32.5 -11.5t32.5 -7.5q26 -2 42.5 1t30.5 8q21 8 34 18.5t21 28.5q4 8 5 21.5t3 29.5q-11 -11 -27 -20.5t-33 -14.5
q-14 -7 -33 -9.5t-44 -2.5q-20 0 -44 12t-55 27q-21 14 -33 30t-23 34q-8 11 -15 29.5t-12 39.5t-8 42.5t-3 38.5q-1 39 9 65t27 59q13 21 27 37t35 24q30 20 71.5 29t82.5 9q51 -1 87 -12.5t67 -22.5q29 -17 48.5 -39.5t38.5 -45.5q15 -24 25.5 -46.5t17.5 -45t11 -47
t7 -52.5q3 -50 -1 -105.5t-21 -103.5q-11 -34 -27 -61t-41 -53q-20 -20 -42.5 -36t-48.5 -27q-27 -11 -57.5 -14t-63.5 -2zM289 415q15 0 26.5 6t20 15.5t12.5 20.5t4 21q0 12 -6.5 22.5t-16.5 18t-22 12t-24 4.5q-22 0 -40 -18t-18 -48q0 -9 5.5 -18.5t14.5 -17.5t20.5 -13
t23.5 -5z" />
    <glyph glyph-name="colon" unicode=":" horiz-adv-x="248" 
d="M200 7q-11 -6 -23.5 -8.5t-26.5 -4.5l-93 3q-12 7 -16 26l2 67q3 17 2.5 32.5t-1.5 32.5q3 13 18 16q14 2 30 0t31 -4q17 2 32.5 1.5t32.5 -1.5q11 0 17 -29q2 -18 1 -36.5t-2 -36.5v-29t-4 -29zM44 470q11 6 23.5 8.5t26.5 4.5l93 -3q12 -7 16 -26l-2 -67
q-3 -17 -2.5 -32.5t1.5 -32.5q-3 -13 -18 -16q-14 -2 -30 0t-31 4q-17 -2 -32.5 -1.5t-32.5 1.5q-11 0 -17 29q-2 18 -1 36.5t2 36.5v29t4 29z" />
    <glyph glyph-name="semicolon" unicode=";" horiz-adv-x="243" 
d="M44 470q11 6 23.5 8.5t26.5 4.5l93 -3q12 -7 16 -26l-2 -67q-3 -17 -2.5 -32.5t1.5 -32.5q-3 -13 -18 -16q-14 -2 -30 0t-31 4q-17 -2 -32.5 -1.5t-32.5 1.5q-11 0 -17 29q-2 18 -1 36.5t2 36.5v29t4 29zM42 90q3 17 2.5 32.5t-1.5 32.5q3 13 18 16q14 2 30 0t31 -4
q17 2 32.5 1.5t32.5 -1.5q11 0 17 -29q2 -18 1 -36.5t-2 -36.5v-26t-3 -27v-6.5t-1 -6.5q-3 -8 -7 -15.5t-11 -13.5q-5 -8 -9 -18t-11 -18q-3 -7 -6 -12.5t-9 -13.5l-21 -39q-9 -2 -18 -3.5t-20 0.5l-36 3q-5 -1 -7 5q13 22 20 39l17 38q4 11 8 22.5t5 22.5q-9 2 -20 1.5
t-20 1.5q-10 6 -14 24z" />
    <glyph glyph-name="equal" unicode="=" horiz-adv-x="586" 
d="M61 251q20 5 42 4t46 -2l126 -2l93 1l94 -1q16 0 32.5 -0.5t30.5 -5.5q10 -12 8.5 -26.5t-3.5 -28.5l-2 -31v-24t-8 -21q-7 -5 -19.5 -5.5t-22.5 -0.5l-113 3q-29 0 -57.5 -1t-56.5 0q-45 -3 -98 3l-88 -2q-3 8 -4 16t0 16q-2 24 0 47q-4 15 -3 30.5t3 30.5zM61 471
q20 5 42 4t46 -2l126 -2l93 1l94 -1q16 0 32.5 -0.5t30.5 -5.5q10 -12 8.5 -26.5t-3.5 -28.5l-2 -31v-24t-8 -21q-7 -5 -19.5 -5.5t-22.5 -0.5l-113 3q-29 0 -57.5 -1t-56.5 0q-45 -3 -98 3l-88 -2q-3 8 -4 16t0 16q-2 24 0 47q-4 15 -3 30.5t3 30.5z" />
    <glyph glyph-name="question" unicode="?" horiz-adv-x="585" 
d="M283 7q-11 -6 -23.5 -8.5t-26.5 -4.5l-93 3q-12 7 -16 26l2 67q3 17 2.5 32.5t-1.5 32.5q3 13 18 16q14 2 30 0t31 -4q17 2 32.5 1.5t32.5 -1.5q11 0 17 -29q2 -18 1 -36.5t-2 -36.5v-29t-4 -29zM50 706q14 14 35.5 21t44.5 13q28 6 58 8t60 2q29 1 57.5 -2t56.5 -8
q29 -7 57 -18.5t56 -26.5q45 -36 62.5 -77.5t13.5 -89.5q0 -36 -10 -71.5t-28 -58.5q-41 -41 -95 -59q-21 -9 -40.5 -13t-42.5 -9q-14 -1 -27.5 0t-24.5 5q2 -23 3 -45.5t-1 -45.5q-6 -6 -26.5 -7t-44.5 -1q-31 0 -53.5 2t-35.5 9q-10 18 -7 46l-2 84q0 45 8 91q8 6 17 5.5
t19 -2.5q27 -8 77 -12q26 -4 47 0.5t37 15.5q14 11 19 26t7 34q0 35 -25 51q-33 23 -77 15q-24 0 -47.5 -2.5t-43.5 -10.5q-26 -6 -46 -9.5t-37 -3.5q-8 -1 -14 2.5t-7 14.5l-2 47z" />
    <glyph glyph-name="at" unicode="@" horiz-adv-x="844" 
d="M596 57l37 -57q-22 -17 -47.5 -29.5t-54.5 -23.5q-27 -8 -55.5 -12.5t-62.5 -4.5q-37 2 -71 12t-65 22q-47 18 -84 45t-68 65q-35 54 -54.5 109t-20.5 113q-1 51 9.5 99.5t36.5 95.5q26 45 63 79t83 60q41 24 87 35.5t97 11.5q56 0 110.5 -20t104.5 -48q76 -62 119 -140
q19 -39 28.5 -77t9.5 -78q3 -45 -6 -81.5t-32 -63.5q-47 -50 -131 -53q-105 5 -147 47q-30 -29 -92 -27q-70 0 -103 33q-23 28 -31.5 58.5t-6.5 62.5q-1 75 41 120q20 19 49.5 29.5t56.5 10.5q23 0 39 -3t31 -10q-1 6 2 10.5t6 9.5l34 1q14 2 28.5 1.5t28.5 -2.5
q3 -9 6.5 -19t1.5 -21q-2 -19 -1.5 -40t3.5 -44l-2 -73q1 -22 12 -31t28 -11q40 3 51 38q9 26 6 49q-5 57 -21 97t-42 66q-33 41 -79.5 60.5t-101.5 25.5q-65 2 -112 -22t-83 -63q-33 -38 -49 -81t-16 -88q0 -57 24.5 -103.5t58.5 -77.5q34 -29 74.5 -46t88.5 -19
q43 2 82 15t62 33zM458 326q-7 5 -22 8t-30 3q-26 0 -38 -14t-13 -34q2 -23 16.5 -35t39.5 -13q17 0 30 9.5t21 25.5v25t-4 25z" />
    <glyph glyph-name="A" unicode="A" horiz-adv-x="790" 
d="M10 10q16 60 31 119.5t34 116.5q17 63 34 125.5t37 120.5q9 28 17.5 61.5t16.5 65.5t16 61t14 50q74 6 163 5t175 1q7 -21 16.5 -50t20.5 -60.5t22 -64t20 -62.5q21 -68 41.5 -132t43.5 -141q9 -28 17.5 -54t16.5 -53t16.5 -55.5t17.5 -61.5q-28 -1 -59 -1.5t-60 -0.5
t-53 1.5t-39 6.5q-14 30 -24 61t-21 64q-32 3 -68 3.5t-74 -0.5q-49 0 -87.5 -1t-49.5 -7q-8 -30 -17.5 -59.5t-19.5 -58.5q-49 -8 -98 -7.5t-100 7.5zM299 300q16 0 36.5 0.5t48.5 -0.5h45.5t39.5 2l-16 60t-18 60l-51 143h-8l-41 -135z" />
    <glyph glyph-name="B" unicode="B" horiz-adv-x="681" 
d="M47 240l-2 223l-5 262q28 6 56 5.5t56 -1.5l197 1q28 0 56 -0.5t53.5 -5t47 -14.5t37.5 -29q54 -38 70 -126q2 -59 -13 -94.5t-43 -58.5q55 -38 79 -88t25 -110q-5 -41 -19.5 -80.5t-51.5 -72.5q-60 -48 -148 -53l-157 -1q-38 2 -73 3t-65 2t-54.5 3t-39.5 8zM250 453
q30 -1 59.5 -1t59.5 4q23 1 38 12t15 31q0 26 -21.5 37.5t-51.5 13.5l-102 1q-4 -47 3 -98zM249 192q55 -7 113 -3l52 3q18 7 30 17.5t12 30.5q-3 19 -11 33t-27 21q-14 3 -36 5t-54 1l-81 -3v-57z" />
    <glyph glyph-name="C" unicode="C" horiz-adv-x="660" 
d="M20 366q0 79 18.5 147t51.5 109q35 42 81.5 64t96.5 36q25 7 51.5 9.5t51 3t46.5 0t38 0.5t41.5 0t50.5 -2q29 -2 60 -3q2 -8 3.5 -24t2 -32.5t0 -29t-1.5 -12.5q1 -2 1.5 -15t0.5 -28.5t-0.5 -30t-1.5 -20.5q-17 -1 -35 -1h-32.5t-31.5 1q-15 1 -41 0.5t-53.5 -2
t-52.5 -5t-37 -7.5q-12 -5 -29 -13.5t-32 -24.5t-25 -41t-9 -63t7 -63t14.5 -41.5t18.5 -27.5t21 -21q21 -20 48.5 -26.5t69.5 -8.5q10 0 29.5 -0.5t41 -0.5t40.5 0.5t30 0.5l74 -1q1 -6 1.5 -19t1 -29t0.5 -32v-28v-20.5t-0.5 -27t-1 -23.5t-1.5 -11t-27.5 -2t-62.5 -1
q-18 0 -45 -0.5t-55 -1t-53.5 0.5t-40.5 4t-39.5 6t-52 8t-54 13.5t-46.5 22.5q-45 32 -70 72.5t-35 73.5t-18 74t-8 93z" />
    <glyph glyph-name="D" unicode="D" horiz-adv-x="751" 
d="M54 11q-1 55 -1 99q0 18 -0.5 36t-0.5 32v23v9v9.5t-0.5 25t-0.5 35v39.5q-1 48 -1 108l-6 243q-2 13 -3 24q-1 9 -1 18t2 12q1 1 21 3t46.5 3.5t54 2.5t42.5 1l174 1q31 -2 65 -8t64.5 -15.5t56.5 -23t42 -31.5q43 -47 74.5 -98.5t39.5 -96.5q5 -25 7 -57.5t2 -77.5
q0 -18 -3 -39.5t-7 -41.5t-8.5 -36t-6.5 -22q-5 -14 -15.5 -33.5t-25 -39t-32.5 -37.5t-37 -30t-43 -20.5t-49.5 -14.5t-50 -9.5t-45.5 -3.5q-21 -1 -56.5 -1t-70.5 -1q-40 -1 -85 -1q-23 0 -58.5 1.5t-83.5 12.5zM259 190q9 -2 23.5 -3t30 -1t31 1t26.5 3q12 2 27.5 4.5
t31.5 6.5t31.5 11t29.5 19q12 11 20 29t12 40t4 45t-3 43q-2 10 -6.5 27t-13 36t-19.5 36.5t-24 28.5q-14 11 -34.5 16.5t-40.5 9.5q-23 4 -48 6q-5 0 -16.5 -0.5t-25 -1.5t-25.5 -2.5t-16 -4.5v-189z" />
    <glyph glyph-name="E" unicode="E" horiz-adv-x="679" 
d="M44 731q112 1 226 -0.5t226 -2.5q38 0 74.5 2.5t75.5 1.5q0 -47 1.5 -96.5t-1.5 -91.5q-35 -6 -73.5 -5t-71.5 0q-49 -1 -88.5 -2t-88.5 1q-12 1 -30.5 0t-26.5 -6q0 -23 0.5 -43.5t-1.5 -43.5q23 0 41.5 -0.5t41.5 0.5q90 3 181 3q2 -13 3 -36t1 -47.5t-2 -45t-6 -28.5
q-66 1 -130.5 1t-130.5 -2q-3 0 -5 -13t-3.5 -29.5t-2 -33t-0.5 -22.5q98 1 195 -0.5t195 -3.5q3 -23 4 -50t0 -53.5t-3 -49t-4 -37.5q-28 -2 -55.5 -1t-55.5 2q-30 1 -63 0t-63 1q-15 2 -27.5 0t-29.5 -1q-23 1 -45.5 1.5t-45.5 -0.5q-24 -1 -49 -1h-46.5h-38h-23.5h-8
t-15 1l-22 2q-4 36 -4 70t-1 70q0 16 -0.5 29.5t-0.5 26.5t-0.5 26.5t-0.5 30.5q-1 18 -2 42t-1 42q4 49 1 96.5t-4 95.5t-1 100.5t4 99.5z" />
    <glyph glyph-name="F" unicode="F" horiz-adv-x="641" 
d="M49 2q0 7 2 13t2 13q0 27 -1 58.5t-1 56.5q0 26 -2.5 50.5t-1.5 50.5q1 20 0.5 39t-1.5 38v13.5t0.5 20t0.5 19.5v13q-2 25 -2.5 45t-1 39t-0.5 39.5v45.5q2 27 1 51.5t-3 51.5q0 5 0.5 15t1.5 21t2.5 20.5t2.5 13.5q70 0 140 -2t140 -2q72 2 143.5 3t143.5 1
q7 -5 5.5 -21t-1.5 -23q0 -5 0.5 -27.5t0 -48.5t-2 -48t-5.5 -26q-41 -1 -80.5 0t-80.5 0q-44 1 -78.5 2.5t-73.5 -0.5q-3 0 -10 -0.5t-15 -1.5t-15.5 -1.5t-10.5 -0.5q0 -30 1.5 -62t1.5 -62q2 -3 15.5 -4t32.5 -1t42 0.5t44 -0.5q31 -2 57 0q16 1 40.5 0.5t42.5 -0.5
q4 -45 4.5 -90.5t-2.5 -87.5q-41 -5 -81 -4.5t-78 0.5l-16 0.5t-36 0.5t-38.5 -0.5t-24.5 -3.5v-25q0 -26 -0.5 -52.5t0.5 -52.5v-19.5t-0.5 -28t-1.5 -26t-3 -13.5q-48 -2 -99.5 -2.5t-99.5 2.5z" />
    <glyph glyph-name="G" unicode="G" horiz-adv-x="759" 
d="M711 22q-15 -2 -32.5 -2.5t-36 0t-36.5 1t-32 0.5q-7 0 -19 -2t-24 -4.5t-21.5 -5t-11.5 -2.5q-24 -5 -40 -8t-30.5 -5t-30.5 -2.5t-40 -0.5q-7 0 -21 0.5t-32 1.5q-24 1 -53.5 10t-46.5 14q-14 4 -32 17t-35 29t-31 32.5t-20 27.5q0 1 -4 6.5t-8.5 12.5t-8.5 13t-5 8
q-6 13 -13.5 34t-13.5 48t-9.5 58.5t-2.5 66.5q0 42 7 89t23.5 89.5t43 76t64.5 50.5q27 14 65 29t75 20q3 0 16.5 1.5t31 3t35.5 3t29 2.5q51 3 116.5 2t125.5 -12q5 -10 5 -19.5t-1 -20.5q-4 -38 -3 -77.5t-4 -71.5q-69 -5 -133.5 -3.5t-130.5 -2.5q-5 0 -16.5 -3
t-24.5 -7.5t-25.5 -10.5t-20.5 -12t-18 -20.5t-18.5 -35.5t-14.5 -48t-5 -58q0 -8 1.5 -20.5t3.5 -25.5t4.5 -24.5t4.5 -17.5q5 -15 16 -30.5t28.5 -28t41 -21t52.5 -8.5q50 -2 76 26.5t29 73.5q-14 2 -27 0t-28 -2q-10 0 -28 1t-28 1q0 8 -2 17t-4 17q-5 17 -5.5 35.5
t-1.5 36.5q-1 19 0.5 34.5t1.5 34.5h47.5t47.5 -2q61 -4 119 -1.5t117 0.5q3 -11 5 -44t3 -77.5t1 -93t-0.5 -90.5t-2.5 -70.5t-4 -32.5z" />
    <glyph glyph-name="H" unicode="H" horiz-adv-x="737" 
d="M40 719q26 5 56 6t61 1q21 0 45 -1t45 -1q2 -5 1.5 -17.5t0.5 -17.5q4 -52 5 -103.5t1 -106.5q37 -5 73.5 -8t74.5 -3q7 0 17.5 -0.5t22 -1.5t21 -1t14.5 2q2 1 5 9.5t4 27.5q1 14 0.5 26.5t-0.5 26.5q-1 47 -1.5 85t-0.5 85q49 5 103 5.5t104 -4.5q1 -45 1 -90.5
t1 -90.5q-1 -45 -0.5 -88.5t0.5 -88.5q0 -44 0.5 -87t2.5 -86q0 -37 -1.5 -74t-1.5 -74q0 -12 -0.5 -26t-2.5 -25q-50 -1 -96.5 1t-96.5 2q-7 26 -7.5 58t-0.5 63q0 38 -1 77t-1 77q-60 2 -117 3t-117 1q-1 -9 -2 -22.5t-1 -27t0.5 -26t2.5 -20.5q0 -49 1 -90.5t-1 -85.5
q-9 -5 -32.5 -6t-52.5 -1t-59.5 1t-54.5 2q-4 6 -5 16.5t-1 13.5q-2 66 -2 128.5v127.5q1 27 0.5 60t-1.5 59t-1.5 43.5t-0.5 43.5q-2 24 -1 50.5t2 50.5q2 32 -1.5 61t-3.5 61z" />
    <glyph glyph-name="I" unicode="I" horiz-adv-x="321" 
d="M51 725q0 1 9 1.5t23.5 0.5h33h38.5h38.5h35h25h10.5t0.5 -16t-1.5 -37t-1.5 -42t-0.5 -33v-38v-54.5t0.5 -53.5t1.5 -34q1 -6 1.5 -23t0.5 -39v-46.5t0.5 -46t0.5 -37.5v-20q0 -7 0.5 -25t1 -38.5t0.5 -38v-23.5t0.5 -18.5t1 -25.5t0.5 -23.5t-1 -12.5t-9.5 -3.5
t-19.5 -2.5t-21.5 -1.5t-14.5 -0.5h-17t-26.5 -0.5t-28 -1t-19.5 -0.5h-15t-17.5 1t-15 2.5t-7.5 4.5q-2 3 -2.5 24.5t-0.5 48v50.5v33t-0.5 35.5t-0.5 58v61.5t1 45t1 48.5t-0.5 68.5t-1 62.5t-0.5 31.5t-0.5 28.5t-1.5 53t-1 52v24.5z" />
    <glyph glyph-name="J" unicode="J" horiz-adv-x="516" 
d="M254 731q2 8 8 11t10 3q20 0 46 0.5t51.5 1t48.5 0t38 -1.5q7 -57 7.5 -113.5t-1.5 -113.5q1 -54 1.5 -106t0.5 -106q0 -22 1 -42.5t1 -42.5q0 -41 -6 -74t-13 -55q-9 -29 -28 -49t-36 -30q-6 -4 -19.5 -8t-28.5 -7.5t-28 -6t-19 -2.5q-15 -1 -25 -1h-19.5h-19.5h-25
q-36 2 -83 5.5t-87 6.5q-4 25 -5 46t-3 46q-1 17 1.5 33t2.5 33q0 2 2 12t4 12q3 3 21 3t40 -1t42 -2t26 0q7 1 22.5 2.5t24.5 3.5q24 11 34.5 35.5t12.5 72.5q0 41 -1 81t-1 81q1 39 0 74t-1 75v80v20.5t3 23.5z" />
    <glyph glyph-name="K" unicode="K" horiz-adv-x="789" 
d="M49 725q8 0 19.5 1t18.5 1q6 0 28.5 0.5t49 0.5t48.5 -0.5t27 -2.5q4 -2 6 -20t3.5 -45.5t2 -59.5t0 -61.5t-0.5 -52v-30.5t6 -3q8 5 13 12t13 12q14 10 31 25.5t32.5 31.5t27.5 30t15 22q22 19 47 47.5t49 46.5q3 2 10.5 9t16 15t16 14.5t9.5 7.5q18 3 30.5 3.5t24 0.5
t24 -1t29.5 -2q20 -1 47.5 -1.5t45.5 -1.5q2 0 7.5 -1t12.5 -2.5t13 -2.5t8 -2q-6 -12 -22 -31t-34 -39t-35 -38t-26 -29q-6 -8 -23 -25.5t-35.5 -36.5t-34.5 -34.5t-22 -20.5q12 -29 28.5 -60.5t28.5 -63.5q10 -26 21 -45t24 -42q12 -22 20.5 -43.5t20.5 -42.5
q10 -20 20 -39.5t18 -39.5q5 -14 13 -27t13 -26q2 -5 4 -14t2 -14q-45 -6 -94.5 -4.5t-97.5 1.5q-10 11 -17.5 20t-14.5 23q-14 28 -24 48.5t-24 48.5q-4 7 -11 23t-15 26q-4 11 -12 26.5t-17 32.5t-18.5 33.5t-17.5 30.5q-30 -26 -68.5 -59.5t-75.5 -56.5q-1 -38 0.5 -80
t-1.5 -80q-1 -8 -2.5 -17t-6.5 -17q-43 -5 -95.5 -4t-100.5 3q-2 7 -2.5 33t-1 57t-0.5 60v42q-1 22 -1 49t0.5 55.5l1 57t0.5 54.5q-1 44 -1.5 86.5t-0.5 86.5q0 1 -0.5 14t-1 30.5t-0.5 36t2 30.5q2 9 3 14t4 16z" />
    <glyph glyph-name="L" unicode="L" horiz-adv-x="633" 
d="M137 733q26 1 51.5 0t50.5 -6q5 -48 4.5 -92.5t-1.5 -89.5l1 -134l5 -130q2 -23 2.5 -46.5t4.5 -44.5q26 -5 52 0l123 -1h130q13 0 25.5 -0.5t25.5 -2.5q2 -23 1.5 -45.5t-1.5 -45.5q1 -24 2 -47t-1 -45q-45 -3 -87.5 -3.5t-84.5 -1.5l-199 3q-48 -2 -95.5 -2.5
t-93.5 3.5q-10 10 -7 22l1 128l-1 148l-2 141l-1 121l-2 129q1 11 3 19.5t5 16.5q23 4 44.5 4.5t44.5 1.5z" />
    <glyph glyph-name="M" unicode="M" horiz-adv-x="877" 
d="M61 741h60.5t60.5 -2l160 -1l31 -66q9 -34 28 -70t33 -59q22 45 40.5 93t38.5 96q39 3 77.5 2.5t77.5 -1.5q42 1 83 2.5t83 -2.5q2 -52 2.5 -103.5t-1.5 -103.5l-1 -193l1 -234q0 -24 -0.5 -48.5t1.5 -48.5q-15 -5 -31 -4.5t-31 0.5q-21 -1 -45.5 -1.5t-45.5 1.5
q-13 0 -25.5 0.5t-28.5 3.5q-1 22 -1 40v35.5t1 35.5t1 40l-3 188q-1 26 -1 52t-4 52q-16 -30 -27 -60.5t-22 -60.5l-57 -140q-11 -23 -22 -44t-22 -41q-13 -4 -29.5 -2.5t-33.5 3.5q-17 32 -30 65t-26 65l-58 125l-44 102q-7 -38 -5.5 -79.5t1.5 -82.5q1 -42 1.5 -82.5
t-1.5 -82.5q1 -34 2 -67t-6 -64l-88 -1q-28 -2 -54.5 -1.5t-52.5 5.5l-5 189l1 166l-4 191l3 179l4 12z" />
    <glyph glyph-name="N" unicode="N" horiz-adv-x="728" 
d="M41 730q21 4 45 4.5t51 -0.5q32 2 63 2.5t62 -1.5q27 -26 48 -54t40 -57q20 -29 38.5 -58.5t41.5 -58.5q11 -20 23 -37.5t23 -35.5q2 2 2.5 15t1 30.5t0.5 37v35.5v113q0 16 -0.5 31t3.5 31q20 4 41 5t45 -1l73 1q11 0 21.5 -0.5t19.5 -4.5q4 -29 3 -59t-1 -59l1 -152
l-1 -119l2 -159v-115q1 -14 0.5 -30t-2.5 -30q-13 -2 -25 -3.5t-23 0.5l-64 -2l-70 3l-65 119q-17 29 -33 55.5t-33 54.5q-18 28 -35 55.5t-32 52.5q-14 23 -27 44t-27 41q-5 -13 -5 -41.5v-57.5l1 -118q1 -29 1.5 -58.5t-1.5 -58.5q1 -21 0.5 -42.5t-1.5 -41.5
q-4 -3 -13 -4.5t-13 -0.5l-83 -2q-24 -1 -46.5 -0.5t-42.5 4.5q-4 38 -4 74.5v74.5v184q-2 38 -2 77t1 77q0 50 -0.5 100t-2.5 100z" />
    <glyph glyph-name="O" unicode="O" horiz-adv-x="810" 
d="M400 545q-37 0 -68.5 -14t-54 -37.5t-35.5 -55t-13 -67.5q0 -25 11.5 -55.5t32.5 -57.5t50.5 -45t65.5 -18q39 0 71.5 15t55 39.5t34.5 56.5t12 67q0 31 -8.5 60.5t-27.5 53.5t-50 39.5t-76 18.5zM789 371q-1 -36 -7 -72.5t-17.5 -70.5t-30 -65t-43.5 -56
q-56 -54 -119.5 -87.5t-141.5 -37.5q-47 0 -87.5 6t-77.5 20t-72 38.5t-72 60.5q-54 66 -77.5 132t-23.5 129q1 41 7.5 76t21 68.5t37 67t57.5 72.5q45 44 109 72.5t144 30.5q36 0 73.5 -6.5t71 -17t61.5 -25.5t45 -31q67 -55 106 -133t36 -171z" />
    <glyph glyph-name="P" unicode="P" horiz-adv-x="747" 
d="M46 725q4 1 21.5 3t43 3t55 1.5t56.5 0.5l219 2q58 -1 102.5 -13.5t78.5 -35.5q67 -55 94 -128q6 -18 7.5 -36t1.5 -36q5 -48 -6.5 -79.5t-30.5 -55.5q-30 -54 -100 -75q-30 -13 -60.5 -17t-60.5 -5q-39 -2 -77.5 -3t-73.5 3h-54l-6 -137q-1 -29 -1 -57.5t-1 -56.5
q-23 -3 -46.5 -4.5t-47.5 0.5h-58.5t-56.5 2l-5 154q4 117 0 236v224q2 28 1.5 55.5t4.5 54.5zM327 430q20 1 38.5 1.5t41.5 -1.5q19 0 31.5 4.5t21.5 12.5q11 11 16.5 19.5t6.5 24.5q0 8 -4.5 18t-12.5 18q-22 23 -51 20q-17 1 -33 1.5t-33 -1.5q-22 1 -44.5 1.5
t-45.5 -0.5l-1 -40v-38t2 -38z" />
    <glyph glyph-name="Q" unicode="Q" horiz-adv-x="812" 
d="M791 367q-2 -71 -25.5 -137t-72.5 -117l39 -50q14 -18 26.5 -36.5t24.5 -36.5q-14 -12 -29.5 -23.5t-31.5 -23.5q-20 -17 -42.5 -32.5t-44.5 -22.5q-6 5 -11.5 10.5t-7.5 13.5q-25 31 -50 69q-14 14 -23 29q-54 -20 -113 -23q-47 0 -87.5 5t-77.5 18.5t-72 37t-72 59.5
q-54 66 -77.5 132t-23.5 129q1 41 7.5 76t21 68.5t37 67t57.5 72.5q45 44 112.5 71.5t147.5 29.5q36 0 72.5 -7t68.5 -19t59 -27.5t44 -31.5q67 -55 107 -131.5t37 -169.5zM400 540q-37 0 -68.5 -13t-54 -35.5t-35.5 -53.5t-13 -67t11.5 -67.5t32.5 -55t50.5 -37t65.5 -13.5
q79 0 126 45t47 130q0 31 -8.5 60t-27.5 51.5t-50 37.5t-76 18z" />
    <glyph glyph-name="R" unicode="R" horiz-adv-x="745" 
d="M461 734q31 -2 65 -4.5t55 -9.5q40 -13 68 -38t45 -57q19 -34 27 -67t13 -67q1 -48 -9 -85t-29 -62q-31 -33 -53 -45.5t-39 -23.5l50 -107l59 -119q15 -23 21 -49l-77 -4h-76q-4 0 -12 1t-17 2t-17.5 2t-13.5 3q-23 35 -36 65.5t-30 62.5l-50 101q-2 5 -5 9.5t-9 6.5
q-21 -2 -42 -2.5t-42 0.5q-14 1 -27 1.5t-27 -1.5q-4 -32 -3.5 -54.5t0.5 -42.5q2 -52 0 -103q0 -14 -1 -25t-3 -22q-40 -7 -80 -6q-22 -2 -43.5 -2t-43.5 2q-27 -1 -32 10q-8 37 -4 72l-3 225l3 176v126q0 18 -1 36.5t-1 36.5t1 33.5t5 26.5q50 5 99 4.5t99 1.5zM250 427
q28 -4 55.5 -4.5t55.5 0.5q19 -2 32 -1t32 1q16 2 30.5 5t20.5 11q12 8 15.5 19.5t1.5 25.5q1 20 -9 33.5t-25 21.5q-9 2 -20 4t-25 3q-17 2 -34.5 2h-34.5q-23 1 -45.5 1.5t-45.5 -1.5q-2 -17 -3 -32.5t-1 -32.5v-56z" />
    <glyph glyph-name="S" unicode="S" horiz-adv-x="702" 
d="M599 635q5 -41 -3 -82q-38 -4 -75 -3t-75 5q-38 -1 -70 -1t-61 2q-28 1 -40.5 -9.5t-12.5 -19.5q0 -19 11.5 -25.5t37.5 -10.5l81 -19q35 -6 69 -13t66 -17q30 -12 54 -28.5t44 -34.5q27 -27 38 -55t14 -61q3 -23 4 -44.5t-2 -42.5q-5 -32 -16 -56.5t-24 -45.5
q-17 -23 -42.5 -39.5t-58.5 -30.5q-27 -5 -54.5 -8.5t-56.5 -2.5l-194 1l-131 1q-17 1 -35 2.5t-35 4.5q-2 26 -2 50t1 48l3 74q0 14 4 29q35 -6 72.5 -9t75.5 -5q25 -2 50 -3.5t56 -1.5l92 6q18 -1 34.5 2.5t24.5 9.5t10 13t1 18q0 26 -26 41q-11 7 -26.5 10.5t-33.5 5.5
l-122 27l-74 23q-45 19 -83 51q-12 11 -24.5 30t-17.5 39q-10 40 -12 82q-1 20 2 36.5t9 39.5q11 23 31.5 48.5t43.5 38.5q20 13 39 20t39 12q14 5 45.5 6.5t57.5 -0.5q27 2 53.5 1.5t53.5 -1.5q46 -1 91.5 -2t93.5 -6z" />
    <glyph glyph-name="T" unicode="T" horiz-adv-x="669" 
d="M17 730q27 4 54.5 4t56.5 -2l137 -3l157 3l123 -1l109 3q3 -20 4 -38t0 -36v-79l-3 -29q-16 -5 -32 -6t-32 -1h-110l-44 -2v-65l5 -174l3 -181q2 -29 2.5 -47.5t0 -31.5t-1.5 -23.5t-1 -22.5q-44 -5 -90 -6l-95 1q-15 -3 -17 7q-5 34 -5.5 68t-0.5 68l1 176l-5 131
q-1 24 -1.5 48.5t-3.5 50.5l-80 1q-37 0 -70.5 5t-64.5 7l-1 47l-1 61q-1 17 0 34.5t6 32.5z" />
    <glyph glyph-name="U" unicode="U" horiz-adv-x="680" 
d="M44 728q22 2 44.5 4t46.5 0q19 2 37 2.5t37 -0.5q9 0 17.5 -1t17.5 -3q2 -24 1.5 -48t-0.5 -48q2 -45 3.5 -88t-0.5 -88v-135q-2 -44 9 -87q3 -18 10 -31.5t22 -19.5q16 -8 53 -8q17 -1 29 1t24 9q12 8 22.5 26.5t12.5 37.5q3 29 3.5 51.5t-1.5 53.5v136l-3 107l-3 127
l3 11q17 5 37.5 5.5t42.5 0.5l69 -3l56 -2l5 -85l-2 -134l2 -142v-139q1 -38 -2.5 -73.5t-14.5 -69.5q-22 -58 -74 -88q-42 -14 -88.5 -20t-100.5 -4q-25 0 -56 1.5t-61.5 4.5t-57.5 7t-43 9q-32 15 -53 36.5t-30 52.5q-2 10 -4 19t-4 19.5t-3 24t-1 33.5v123
q-3 47 -2.5 93.5t-0.5 93.5l-2 136q-1 23 -1 45t4 47z" />
    <glyph glyph-name="V" unicode="V" horiz-adv-x="766" 
d="M13 731q23 4 42.5 2t39.5 -4l71 2q28 3 62 -2q10 -23 18 -46.5t13 -48.5l45 -152l32 -98q9 -27 18.5 -53.5t20.5 -52.5q14 28 23.5 55t18.5 55q11 29 19.5 58t21.5 58q10 36 21 72l22 72q6 20 14.5 41t19.5 41q22 3 43.5 5t45.5 -1l81 2q24 1 51 -5q-20 -56 -40 -113
t-43 -114q-20 -64 -41 -127.5t-44 -125.5q-12 -40 -24.5 -79.5t-29.5 -79.5q-5 -25 -13 -48.5t-17 -43.5q-27 -2 -48.5 -2t-43.5 2q-25 -2 -49.5 -2.5t-49.5 0.5q-17 1 -33.5 0t-33.5 5l-46 128l-69 221l-62 188q-14 42 -25 83.5t-31 83.5q-5 10 0 24z" />
    <glyph glyph-name="W" unicode="W" horiz-adv-x="1068" 
d="M10 725q20 2 39.5 4t39.5 0l73 5l60 -2q12 -27 20 -54t14 -54l30 -122q7 -32 15 -63.5t19 -61.5l38 96l38 94l31 86q3 17 8.5 34t16.5 37l81 8q20 0 40 -0.5t38 -4.5l26 -84l31 -126l33 -130l62 140l45 123q8 20 17.5 39.5t21.5 39.5q45 7 90 3l112 -2q11 -2 7 -11
q-2 -22 -14 -45t-23 -47l-49 -134l-56 -132l-67 -172l-66 -168q-2 -5 -5 -10.5t-8 -8.5q-13 -5 -26 -5.5t-26 0.5l-84 1q-14 1 -27 2t-27 3q-8 20 -10.5 38t-6.5 36l-26 102q-6 27 -11.5 54t-17.5 54q-8 -14 -16 -29.5t-12 -29.5l-40 -103l-26 -61q-8 -17 -15 -33.5
t-15 -30.5q-27 -5 -54 -2h-88l-38 2q-14 23 -21.5 49.5t-13.5 53.5l-31 142l-42 159l-37 151l-28 101q-16 37 -19 69z" />
    <glyph glyph-name="X" unicode="X" horiz-adv-x="841" 
d="M10 726q24 7 54 7.5t62 0.5q21 0 42 -1t42 -3q14 1 26.5 2t26.5 -3q15 -13 25.5 -28.5t21.5 -30.5l56 -74l50 -67l52 70l41 54q8 17 22.5 37.5t28.5 34.5q29 3 56.5 4t56.5 0q25 2 50 3.5t50 1.5q15 2 30 -1t28 -8q-13 -24 -35.5 -49.5t-37.5 -48.5q-17 -23 -32.5 -43.5
t-36.5 -46.5q-14 -22 -28.5 -42.5t-31.5 -38.5l-68 -97q9 -21 24 -40l30 -38l78 -99l70 -93q16 -20 33 -41t28 -41q-10 -7 -28.5 -8.5t-37.5 -3.5q-19 1 -37.5 1.5t-37.5 -1.5h-64q-13 0 -22.5 0.5t-18.5 4.5l-59 77l-78 94q-4 7 -11 6q-14 -6 -20.5 -13.5t-13.5 -15.5
l-56 -79l-41 -59q-19 -5 -39 -8t-40 -1q-48 1 -96 0q-26 0 -49.5 1.5t-40.5 7.5q-2 3 -3 5.5t3 5.5q14 28 38 58.5t47 61.5l65 87l61 76l39 55q-8 20 -24 40.5t-30 40.5l-89 107q-20 28 -42 55t-45 53q-33 36 -44 71z" />
    <glyph glyph-name="Y" unicode="Y" horiz-adv-x="848" 
d="M10 729q24 4 42 5t42 1l89 1q14 1 32 0.5t32 -2.5q20 -20 34.5 -40.5t31.5 -43.5l84 -122l44 -68q17 17 26 36t22 36l44 87l42 71l29 40q23 2 44 2t44 -2l75 2q21 0 39.5 0.5t31.5 -3.5q-4 -20 -18 -41l-53 -79l-67 -107l-58 -102l-57 -95l-37 -54l-3 -128q-2 -29 -2 -59
t2 -59q-11 -6 -27 -5.5t-33 2.5q-14 -4 -28.5 -4t-29.5 2q-30 -5 -57 0q-8 1 -15 1.5t-13 3.5q-2 12 -0.5 30.5t3.5 33.5l2 107l-2 65q-16 29 -32.5 52t-34.5 48l-78 112l-56 79l-64 92q-20 26 -38 52t-32 53z" />
    <glyph glyph-name="Z" unicode="Z" horiz-adv-x="746" 
d="M44 731q38 6 78 6.5t82 0.5l188 -1l168 -3q35 1 69.5 0.5t66.5 -5.5l4 -64l-1 -58l-5 -44l-100 -103l-97 -104l-97 -102l-50 -64q27 -5 54 -4.5t54 1.5h140l75 3q11 0 20.5 -0.5t20.5 -2.5l2 -82l-2 -97q-10 -4 -22.5 -5t-28.5 -1l-135 -4l-147 2h-155l-141 -3l-32 3
q-17 0 -22 10q-3 26 3 53q-2 20 -2.5 38.5t-0.5 38.5l36 52l77 94l97 101l79 79l56 58q10 12 13 23l-90 1l-122 2q-23 -2 -46.5 -3t-46.5 1q-13 0 -24 2t-16 8v43.5t2 43.5q-3 32 -3.5 53.5t1.5 32.5z" />
    <glyph glyph-name="bracketleft" unicode="[" horiz-adv-x="431" 
d="M60 917q23 5 49.5 4.5t53.5 -4.5h85h83q12 1 21.5 0t26.5 -9q2 -19 2 -38t-2 -38l2 -89q-23 -3 -45 -3l-56 -1q-30 -3 -57 1l2 -96l-2 -158l-2 -213l4 -154l-2 -119l77 -2l39 1q20 2 36 -5q7 -20 4 -37l-3 -53v-77q-12 -2 -22.5 -3t-22.5 -1l-77 -1l-65 -3l-64 1l-62 -1
q-10 2 -10 12l-1 51l-2 92l3 159l3 130l-2 234l1 146l2 111l-3 124z" />
    <glyph glyph-name="bracketright" unicode="]" horiz-adv-x="433" 
d="M372 -175q-23 -5 -49.5 -4.5t-53.5 4.5h-85h-83q-12 -1 -21.5 0t-26.5 9q-2 19 -2 38t2 38l-2 89q22 3 45 3l56 1q30 3 57 -1l-2 96l2 158l2 213l-4 154l2 119l-77 2l-39 -1q-20 -2 -36 5q-7 20 -4 37l3 53v77q12 2 22.5 3t22.5 1l77 1l65 3l64 -1l62 1q10 -2 10 -12
l1 -51l2 -92l-3 -159l-3 -130l2 -234l-1 -146l-2 -111l3 -124z" />
    <glyph glyph-name="underscore" unicode="_" horiz-adv-x="597" 
d="M47 0q20 5 42 4t46 -2l126 -2l93 1l134 -1q16 0 32.5 -0.5t30.5 -5.5q10 -12 8.5 -26.5t-3.5 -28.5l-2 -31v-24t-8 -21q-7 -5 -19.5 -5.5t-22.5 -0.5l-153 3q-29 0 -57.5 -1t-56.5 0q-45 -3 -98 3l-88 -2q-3 8 -4 16t0 16q-2 24 0 47q-4 15 -3 30.5t3 30.5z" />
    <glyph glyph-name="quoteleft" unicode="&#x2018;" horiz-adv-x="258" 
d="M205 520q-3 -17 -2.5 -32.5t1.5 -32.5q-3 -13 -18 -16q-14 -2 -30 0t-31 4q-17 -2 -32.5 -1.5t-32.5 1.5q-11 0 -17 29q-2 18 -1 36.5t2 36.5v26t3 27v6.5t1 6.5q3 8 7 15.5t11 13.5q5 8 9 18t11 18q3 7 6 12.5t9 13.5l21 39q9 2 18 3.5t20 -0.5l36 -3q5 1 7 -5
q-13 -22 -20 -39l-17 -38q-4 -11 -8 -22.5t-5 -22.5q9 -2 20 -1.5t20 -1.5q10 -6 14 -24z" />
    <glyph glyph-name="a" unicode="a" horiz-adv-x="594" 
d="M97 388q-6 8 -10.5 19.5t-5.5 19.5q-2 23 -5 46t-1 49q42 7 90.5 11.5t97.5 6.5q20 0 33 -0.5t24 -1.5t23.5 -1.5t32.5 -0.5q1 0 9 -1t18.5 -2.5t21 -3.5t16.5 -5q27 -11 47 -24t32.5 -31.5t19.5 -43.5t9 -60q4 -47 4 -87v-88q2 -48 0.5 -93t-6.5 -93q-34 -3 -65 -3
t-64 -2q-1 0 -5.5 -0.5t-10 -1t-10 -0.5t-4.5 1q-2 2 -8 12t-6 13q-13 -6 -35 -11.5t-38 -7.5q-10 -2 -31 -4t-46 -2q-23 0 -45 2t-36 6q-35 9 -53.5 24t-32.5 32q-6 6 -11 19t-8.5 28t-5.5 29.5t-2 23.5q0 33 8 64.5t30 56.5q7 9 20 17.5t27.5 15.5t28.5 12t23 6
q29 4 63.5 7.5t62.5 3.5q22 2 37.5 0t35.5 -5q2 25 -8.5 37.5t-27.5 17.5q-12 3 -27.5 5t-32 3.5t-31.5 1t-26 -1.5q-7 -2 -22.5 -3.5t-33 -4t-34 -4.5t-26.5 -3zM367 212q-18 2 -37 2.5t-36 0.5h-33.5t-30.5 -3q-14 -3 -23.5 -13t-9.5 -22q0 -14 11.5 -23t24.5 -11
q20 -3 33.5 -4.5t35.5 -1.5q17 0 33.5 3.5t33.5 7.5q3 16 2 32t-4 32z" />
    <glyph glyph-name="b" unicode="b" horiz-adv-x="662" 
d="M45 735l67 4l62 -2h37q2 -14 1.5 -26.5t-1.5 -26.5q2 -32 1.5 -62t-1.5 -59q1 -16 0.5 -33.5t1.5 -28.5q11 6 21.5 10t21.5 8q17 6 34.5 9.5t39.5 3.5q35 2 68 -3.5t65 -13.5q35 -14 66.5 -34t57.5 -52q20 -23 30 -47.5t17 -50.5q4 -20 6 -39.5t2 -39.5q0 -21 -3 -42.5
t-7 -42.5q-8 -30 -21 -56t-27 -37q-20 -26 -50 -42t-65 -27q-27 -4 -53.5 -5.5t-53.5 -1.5q-24 -2 -43 1t-35 9q-22 6 -37 14t-29 16q-9 -3 -9 -10l-2 -14t-4 -14q-16 -3 -34 -3.5t-36 1.5q-21 -1 -40.5 -1t-40.5 3q-13 34 -11 70q2 27 2.5 53.5t-0.5 53.5q2 44 2.5 87
t-2.5 87v177v133zM405 320q-4 5 -9 11t-13 12q-14 11 -32.5 15.5t-38.5 4.5q-21 0 -42.5 -8t-32.5 -20q-13 -14 -16.5 -37t-3.5 -47q0 -29 11.5 -52.5t32.5 -37.5q11 -5 26.5 -9t32.5 -2q35 -1 68 14q17 9 28.5 33t11.5 59q0 23 -6 34.5t-17 29.5z" />
    <glyph glyph-name="c" unicode="c" horiz-adv-x="522" 
d="M473 358l-30 3q-17 5 -33.5 6.5t-33.5 2.5q-13 -1 -25.5 -2t-25.5 -4q-18 -2 -31.5 -8t-25.5 -14q-13 -6 -21 -15t-15 -19q-8 -14 -12.5 -28.5t-3.5 -30.5q2 -19 11 -32.5t21 -24.5q13 -8 29.5 -13.5t39.5 -5.5q16 -2 31 -3.5t31 -0.5q28 -2 52 4q9 5 19 6.5t21 1.5
q13 1 15 -6q6 -21 5 -42.5t-2 -42.5q2 -19 2.5 -37.5t-0.5 -37.5q-17 -8 -34 -12l-34 -8q-20 -4 -40.5 -4.5t-41.5 0.5q-20 -1 -41 0t-41 3q-20 4 -38.5 9.5t-34.5 13.5q-23 11 -44 24t-41 27q-20 20 -33.5 42t-22.5 48q-20 44 -25 93q0 23 1 47t7 47q5 25 14.5 47t22.5 42
q14 21 33.5 37t39.5 31q24 11 48 17.5t48 11.5q20 3 40 5.5t43 3.5q36 2 73 0q22 -2 42.5 -4.5t38.5 -10.5q3 -17 4 -33.5t0 -33.5q1 -19 1.5 -37t0.5 -36z" />
    <glyph glyph-name="d" unicode="d" horiz-adv-x="668" 
d="M622 652v-124v-177q-3 -44 -2.5 -87t2.5 -87q-1 -27 -0.5 -53.5t2.5 -53.5q1 -17 3.5 -34.5t-4.5 -35.5q-21 -3 -45.5 -1.5t-45.5 2.5q-18 -2 -36 -3t-34 2q-7 6 -9.5 12t-5.5 13q-8 -3 -13 -5t-10 -3.5t-11.5 -3.5t-17.5 -5q-8 -3 -20.5 -5t-26 -3t-26 -1.5t-19.5 -0.5
q-27 0 -43.5 1.5t-43.5 5.5q-35 11 -68 27t-53 42q-14 11 -32.5 37t-26.5 56q-4 21 -10 44t-6 44q0 20 0.5 44.5t4.5 44.5q7 26 20 52t33 49q13 16 24.5 26t23.5 17.5t25.5 13.5t30.5 13q31 8 56 12t60 2q11 0 25.5 -1.5t29 -4.5t27.5 -6t21 -6q11 -4 21.5 -8t21.5 -10
q2 11 1.5 32.5t0.5 37.5q-1 29 -1.5 54.5t1.5 57.5q-1 14 -1.5 26.5t1.5 26.5h45l62 2l67 -4zM228 331q-11 -18 -14.5 -31.5t-3.5 -36.5q0 -14 5 -27t13 -24t17 -20t17 -14q16 -11 36.5 -16.5t38.5 -4.5q17 -2 32 1.5t26 8.5q10 2 18 6t17 15q3 4 5.5 12.5t4.5 19t3 20.5
t1 18q0 24 -3 47.5t-9 33.5q-8 7 -20.5 13.5t-26 10.5t-27.5 6.5t-24 2.5q-20 0 -44.5 -4t-38.5 -15t-23 -22z" />
    <glyph glyph-name="e" unicode="e" horiz-adv-x="627" 
d="M289 534q31 1 58.5 -4t56.5 -10q31 -9 57.5 -23.5t51.5 -31.5q43 -44 60 -89q11 -20 15 -41t7 -41q2 -17 1 -35t-5 -35l-90 -10l-151 -3l-172 4q-1 -6 1.5 -13t4.5 -10q17 -29 49 -43q21 -8 43 -11.5t45 -5.5q23 1 44 4t40 10q18 8 32 21q5 5 10.5 11.5t9.5 8.5
q14 -7 25 -20t22 -25q14 -11 27.5 -21t27.5 -26q-4 -11 -10.5 -19t-14.5 -16q-14 -16 -33.5 -26t-42.5 -16q-44 -15 -86 -21q-18 -3 -35.5 -4.5t-35.5 0.5q-25 -2 -45.5 1.5t-39.5 8.5q-33 5 -58 19t-46 35q-26 20 -43 43.5t-28 51.5q-10 26 -14.5 53t-6.5 55q0 27 2.5 53
t10.5 51q5 24 17 45.5t29 41.5q20 23 47 39t59 30q26 7 51.5 10t52.5 4zM185 322q32 1 67 1.5t69 1.5l108 -2q-10 17 -23 33.5t-39 30.5q-28 14 -63 17q-36 5 -59 -6q-15 -7 -25.5 -16t-19.5 -20q-6 -9 -10.5 -19t-4.5 -21z" />
    <glyph glyph-name="f" unicode="f" horiz-adv-x="414" 
d="M403 715v-52v-32t-2 -32q-37 -9 -77 -6q-11 0 -22.5 -2t-21.5 -5q-7 -4 -12.5 -11t-6.5 -16q-2 -10 -3 -19.5t1 -17.5l60 -2l51 -1q1 -8 1.5 -15t-1.5 -15q2 -18 2 -36v-36l-2 -34q-15 -2 -30 -3t-30 -1q-11 -1 -24.5 -1.5t-26.5 0.5l-2 -68l1 -116l-2 -110v-86
q-17 -3 -35 -3.5t-35 2.5l-77 -2q-8 0 -14 0.5t-8 4.5l-3 110l1 104l-1 91l-2 75l-31 1q-10 1 -16.5 1t-16.5 3q-3 8 -5.5 15t-1.5 15v87q0 5 1 9t3 9q17 3 33 4t33 1l3 74q2 19 11 38.5t20 38.5q14 19 31.5 33.5t47.5 19.5q20 2 40 3.5t40 1.5q32 1 63.5 2t63.5 -3z" />
    <glyph glyph-name="g" unicode="g" horiz-adv-x="628" 
d="M578 518q10 -16 9 -32t0 -32l-2 -171l-1 -187l-3 -114q-2 -26 -9.5 -51t-15.5 -45q-12 -21 -33 -39t-45 -31q-46 -18 -94 -17q-31 -5 -61 -5t-59 1l-103 6l-70 10l-6 67q-1 23 0 44.5t9 44.5l50 -2l81 -9q26 -2 51.5 -1.5t48.5 5.5q49 -1 75 25q8 12 11.5 24.5t3.5 24.5
l-2 42q-16 -8 -32.5 -13t-33.5 -10q-17 -8 -37.5 -8.5t-40.5 -1.5q-33 -1 -59 5.5t-51 14.5q-27 11 -48 26t-40 31q-20 23 -34.5 48.5t-19.5 54.5q-5 27 -6 53.5t1 53.5q3 28 13 52.5t21 50.5q15 17 32.5 33.5t38.5 27.5q20 15 45.5 24.5t54.5 14.5q19 3 37 2.5t37 -2.5
q21 -5 41.5 -9.5t39.5 -15.5l44 -18q7 7 7 18q0 5 -1 7t1 7q41 4 83 0zM217 341q-14 -30 -15 -62q-2 -25 12 -47q11 -19 34 -28q25 -20 58 -16q13 1 26 1.5t26 5.5q29 11 46 37q13 22 11 50q-3 31 -17 59q-15 24 -47 35q-23 4 -48 6q-8 2 -17.5 0t-19.5 -4q-30 -12 -49 -37z
" />
    <glyph glyph-name="h" unicode="h" horiz-adv-x="621" 
d="M46 728q16 2 33 3.5t37 -0.5l63 1q8 1 17 0t17 -3q2 -22 2.5 -44t2.5 -44q1 -22 1 -42.5t-2 -40.5l1 -56q13 8 28 12t32 8q20 4 39.5 8t42.5 4q50 -1 92 -12q25 -7 45 -18.5t37 -24.5q36 -30 42 -79q3 -21 3.5 -42t-0.5 -42l1 -88v-107l-1 -55q2 -15 1.5 -30.5
t-3.5 -30.5q-13 -3 -26 -4.5t-26 -3.5q-18 0 -35 -0.5t-34 3.5q-28 -2 -51 5q-3 14 -5 28.5t-1 28.5l2 99l-2 91q1 16 0 31.5t-6 29.5q-1 20 -16 35q-25 16 -69 16q-20 -2 -38 -5.5t-32 -11.5q-21 -9 -26 -26q-2 -14 -1 -28l2 -28v-144l-4 -106q-16 -5 -33.5 -6t-35.5 0
q-20 1 -40.5 2t-38.5 4l-21 6l1 125l1 143l-1 152l2 121v127z" />
    <glyph glyph-name="i" unicode="i" horiz-adv-x="289" 
d="M144 738q17 -1 28 -5.5t22 -9.5q21 -14 29 -31.5t9 -36.5q2 -16 -4 -30t-15 -25q-7 -5 -13 -8.5t-13 -6.5q-11 -7 -23 -9t-26 0q-17 2 -31.5 6t-25.5 13q-16 9 -22.5 22.5t-8.5 30.5q1 16 5 29.5t13 24.5q19 24 42 32q8 2 16.5 3t17.5 1zM129 525q15 2 34 2.5t33 -2.5
q18 1 36 -4q3 -9 5 -17.5t1 -17.5v-124l-2 -128v-149v-41t-3 -41q-19 -5 -43 -4t-43 3q-18 -2 -35.5 -2h-35.5q-6 1 -11.5 2.5t-7.5 6.5q-1 14 -2 29t1 29l-2 131l-1 119l-2 123l2 64q3 8 7.5 11.5t13.5 5.5z" />
    <glyph glyph-name="j" unicode="j" horiz-adv-x="320" 
d="M172 580q-17 1 -28 5.5t-22 9.5q-21 14 -29 31.5t-9 35.5q-2 16 4 30t15 25q15 10 26 15q11 7 23 8.5t26 0.5q35 -3 57 -19q16 -9 22.5 -22.5t8.5 -30.5q-1 -15 -5 -28.5t-13 -24.5t-19 -19t-23 -12q-8 -2 -16.5 -3.5t-17.5 -1.5zM152 525l59 2l47 -2q5 -7 5.5 -14
t0.5 -14l6 -130q-2 -28 -2.5 -55t2.5 -55q-1 -28 -2 -57t-3 -58q1 -34 1 -71.5t-4 -71.5l-9 -61q-5 -23 -14 -41t-17 -35q-11 -19 -27 -29.5t-35 -18.5q-17 -6 -36 -9t-39 -5l-63 -6q-15 0 -27.5 1.5t-25.5 3.5q-17 3 -27 14l-2 70l2 75q6 2 12 2h12q14 -2 26.5 -1t26.5 1
q13 1 25 4t19 10q11 9 14.5 23.5t4.5 33.5q1 15 1.5 29.5t-1.5 29.5q2 28 1 55t-2 55l1 97v75l-1 94v28t6 28z" />
    <glyph glyph-name="k" unicode="k" horiz-adv-x="676" 
d="M184 733h33q2 -15 2.5 -30.5t0.5 -30.5v-114v-118q1 -23 1.5 -46t-1.5 -46q20 12 37.5 28.5t34.5 32.5l71 65l51 48l62 2l102 3l67 1q1 -8 -5 -14q-18 -32 -45 -54l-47 -47l-69 -61q-9 -9 -20.5 -19.5t-22 -20.5t-18.5 -19t-10 -14q2 -5 9 -13.5t16.5 -18.5t20 -20
t19.5 -19l77 -79l63 -64l51 -49q5 -6 -2.5 -10.5t-15.5 -3.5l-59 -4q-17 0 -34 1t-34 3q-11 -1 -23 -1.5t-23 1.5q-11 0 -21.5 0.5t-21.5 2.5q-14 8 -23 16.5t-18 18.5l-55 58l-34 44l-25 30l-28 -19l-25 -15v-51q-1 -19 -0.5 -38t-4.5 -38q-10 -4 -20 -5t-20 -1l-50 4
q-26 -2 -51 0q-10 -1 -17 -1.5t-17 3.5q-1 14 -1.5 28.5t1.5 28.5v104l2 127l1 150v136l-1 87v29t3 29q20 2 40.5 3t43.5 0h53z" />
    <glyph glyph-name="l" unicode="l" horiz-adv-x="276" 
d="M59 725q13 7 29 7t33 1l59 -7q11 0 19.5 -2.5t21.5 -4.5q7 -14 4 -28v-126l-1 -110l-2 -167l-1 -131v-75v-78q-11 -6 -21 -3l-52 -1l-50 -2q-14 0 -25.5 1t-19.5 3q-3 16 -3 32v108l2 119v166l1 92l-1 114l4 70z" />
    <glyph glyph-name="m" unicode="m" horiz-adv-x="923" 
d="M46 514q8 9 28 9.5t41 1.5l65 -2l29 2q9 0 12 -7.5t4 -15.5l37 18q20 9 41 11.5t41 5.5q23 -2 44 -4.5t40 -10.5q22 -4 39 -11t32 -17q8 9 21 18.5t41 18.5q17 3 32.5 4t32.5 2q38 2 68 -5t55 -17q33 -10 55 -26t37 -38q20 -29 28 -61t10 -65l1 -164l-1 -84l4 -68
q-5 -8 -10.5 -9.5t-12.5 -1.5l-70 -3l-69 3q-14 -6 -28 0l1 62l-3 127v46t3 46l-3 45q-1 11 -8 20.5t-16 14.5q-11 14 -48 17q-15 -1 -28 -3t-24 -9q-10 -9 -12.5 -20.5t-1.5 -22.5l-1 -96l3 -89v-99q-1 -11 -2 -20.5t-6 -18.5q-15 -4 -30 -5t-30 1h-57q-20 0 -35 1t-21 7
q-5 8 -5.5 16t0.5 16l5 87l-2 111v75q0 8 -2.5 19t-6.5 18q-7 14 -21 23t-33 9q-17 -2 -29.5 -6.5t-20.5 -9.5q-14 -7 -22.5 -17t-9.5 -18q-2 -14 -1 -23t1 -23l2 -69v-97l-2 -73q2 -9 -1 -16.5t-6 -14.5q-3 -6 -9 -9l-74 -2q-32 0 -52.5 2t-32.5 6q-10 4 -11 11
q2 48 2.5 94.5t-1.5 94.5v130l-1 110q2 17 -0.5 34t5.5 34z" />
    <glyph glyph-name="n" unicode="n" horiz-adv-x="630" 
d="M42 520q13 7 36 8t46 0q37 1 74 0q5 -4 8.5 -8t4.5 -9q14 2 23.5 7.5t18.5 11.5q19 8 41 12t51 0q31 -1 60 -5t58 -9q32 -8 54.5 -25t38.5 -41q14 -23 19 -47.5t7 -50.5l3 -152v-87l2 -75q1 -12 2 -23.5t-1 -23.5q-2 -4 -7.5 -5t-13.5 -1t-17.5 1t-18.5 2l-55 -2l-48 2
q-10 0 -17.5 1t-11.5 7l1 80l-3 72l-2 93q-2 17 -3.5 34.5t-7.5 32.5q-1 18 -15 38q-8 14 -23 20.5t-35 8.5q-28 0 -60 -17q-14 -9 -21 -23.5t-8 -24.5l-4 -62l2 -116l3 -87l2 -40q0 -13 -10 -13l-36 -4q-14 -2 -28.5 -2h-28.5l-65 -1q-13 3 -13 8l-2 28q-1 27 -1.5 54.5
t1.5 54.5l1 73l-3 107l2 91q-1 28 -1.5 55t1.5 52z" />
    <glyph glyph-name="o" unicode="o" horiz-adv-x="635" 
d="M83 462q42 38 97 59t126 23q91 -7 149.5 -32.5t91.5 -64.5q36 -47 50 -93.5t18 -93.5q-5 -60 -22.5 -100.5t-40.5 -73.5q-44 -52 -103 -74t-129 -24q-149 2 -220 77q-39 40 -60.5 87t-18.5 105q-3 54 12 105.5t50 99.5zM208 263q2 -23 8.5 -43.5t20.5 -38.5
q14 -12 33.5 -20.5t45.5 -10.5q29 2 48.5 12.5t30.5 27.5q14 17 21.5 35.5t6.5 39.5q2 50 -31 80q-11 13 -27.5 22.5t-44.5 10.5q-27 5 -50 -3t-36 -28q-14 -19 -19 -40t-7 -44z" />
    <glyph glyph-name="p" unicode="p" horiz-adv-x="632" 
d="M47 -184q-3 19 -2.5 37t0.5 37l-1 110l2 177q3 44 1.5 87t-3.5 87q1 27 0.5 53.5t-2.5 53.5q-1 9 -1 20.5t0.5 22t3.5 18t8 9.5q21 3 40.5 3t40.5 -1q18 2 38.5 1t36.5 -4q3 -7 4 -14l2 -14v-9q15 5 29 13t33 15q8 2 21 4.5t27 4t28.5 2t25.5 -0.5q17 -1 38.5 -6
t35.5 -11q32 -11 58 -29.5t36 -29.5q13 -11 27.5 -36t22.5 -55q7 -20 11 -42t4 -43q0 -20 -2 -39.5t-7 -39.5q-6 -26 -12 -50.5t-25 -47.5q-23 -32 -43.5 -52.5t-51.5 -33.5q-29 -8 -64 -15t-67 -5q-20 0 -41 5t-36 11q-10 4 -24 12t-24 15q-2 -11 -2 -33t-1 -38
q0 -15 0.5 -26t0.5 -21.5t-0.5 -22t-1.5 -27.5q1 -14 4.5 -25.5t1.5 -25.5q-11 -6 -20.5 -5t-20.5 2l-62 -2q-20 -2 -37.5 -0.5t-29.5 4.5zM399 193q11 18 14 32.5t3 37.5q0 35 -11.5 59t-28.5 33q-16 8 -28 11.5t-30 2.5q-17 2 -32.5 -2t-26.5 -9q-21 -14 -32.5 -37.5
t-11.5 -52.5q0 -24 3.5 -42t16.5 -32q11 -12 32.5 -26t42.5 -14q20 0 36.5 2.5t30.5 13.5q8 6 13 12t9 11z" />
    <glyph glyph-name="q" unicode="q" horiz-adv-x="603" 
d="M556 -173q-12 -3 -27.5 -4.5t-35.5 0.5h-62q-11 -1 -17.5 -2t-17.5 5q-2 14 -2.5 26.5t0.5 26.5q-1 16 -1 25.5t0.5 18t1 17.5t0.5 24q1 16 0 37t-6 32q-10 -7 -25 -12t-25 -8q-6 -2 -17 -3.5t-23.5 -3t-24.5 -2t-21 -0.5q-23 -1 -52 8t-57 22q-17 8 -36 25.5t-41 49.5
q-17 23 -26 47t-14 50q-5 20 -6 39.5t-1 39.5q0 21 2.5 43t8.5 42q7 35 21.5 63.5t26.5 39.5q9 11 25 23t45 23q6 3 18.5 5.5t27 4t27.5 2.5t21 1q22 2 45.5 0.5t38.5 -6.5q17 -4 30.5 -7t27.5 -6q6 5 8 10.5t6 7.5q16 3 36 1.5t38 -3.5q21 1 40.5 1t40.5 -3q5 -6 7.5 -29
t0.5 -42q-2 -27 -1 -53t2 -53q-2 -44 -3.5 -87t1.5 -87v-177l-4 -98q0 -19 1 -37t-2 -37zM215 196q4 -5 13 -13t17 -13t23.5 -8t35.5 -3q10 0 23 3t24.5 8.5t21 12t12.5 13.5q8 17 9.5 37t1.5 44q0 29 -4.5 49t-18.5 31q-11 10 -30 17t-47 7q-18 1 -31.5 -4t-29.5 -13
q-17 -9 -29 -34t-12 -50q0 -48 21 -84z" />
    <glyph glyph-name="r" unicode="r" horiz-adv-x="439" 
d="M47 525q15 4 32 5.5t38 -0.5q16 1 32 1.5t32 -1.5l21 -4q2 -2 4.5 -5t2.5 -8q3 -9 1 -21q9 11 20 17t24 11q25 12 68 14q28 2 51 -1q9 -1 18.5 -1t18.5 -5q8 -12 8 -24t1 -24l-1 -37q0 -19 1 -37.5t-4 -37.5q-16 -4 -30 1q-16 3 -31.5 4.5t-33.5 0.5q-27 0 -54 -8
q-17 -6 -33 -18t-18 -23q-4 -17 -6 -33.5t0 -33.5v-121q-1 -24 -1.5 -48.5t1.5 -48.5q1 -7 1.5 -13t-1.5 -13q-14 -2 -29 -2h-29q-23 -5 -44.5 -4.5t-40.5 2.5q-4 -1 -9.5 1.5t-9.5 4.5q-4 20 -5 40.5t1 42.5q-2 68 0 136l-3 128l2 100q-1 17 -0.5 33t5.5 30z" />
    <glyph glyph-name="s" unicode="s" horiz-adv-x="570" 
d="M485 532q4 -13 5 -25.5t0 -23.5l-2 -60q1 -10 0 -19t-6 -17l-62 -3l-74 5l-65 2l-42 -2q-12 -3 -15 -9.5t-3 -11.5q-1 -6 2.5 -11.5t11.5 -7.5q14 -5 28.5 -8.5t31.5 -4.5l99 -14q43 -10 74 -25q17 -10 29 -23.5t21 -27.5q10 -18 14.5 -36t6.5 -38q3 -32 -9 -64
q-5 -13 -10 -24.5t-13 -22.5q-17 -23 -42 -36q-26 -16 -54 -20q-17 -2 -32 -2.5t-29 -0.5q-16 -2 -31.5 -3.5t-31.5 -0.5l-90 2l-83 -1q-18 0 -36 0.5t-34 5.5q-3 11 -3 22.5t1 22.5l-3 42l-2 45q-1 6 0.5 11.5t6.5 7.5l66 -3l86 -1q41 -4 85 -6q11 -1 21 1t19 5q9 2 17 6
t11 12q8 16 -11 27q-18 5 -35.5 7.5t-35.5 3.5q-44 1 -86 6q-18 4 -35.5 10.5t-33.5 18.5q-29 17 -45 47q-15 21 -23 41q-6 14 -10 29t-4 32q0 35 17 71q7 19 21 32.5t33 24.5q19 10 40.5 14t46.5 6l90 -1l93 1l57 -4h20t14 -0.5t11 -1.5t12 -2z" />
    <glyph glyph-name="t" unicode="t" horiz-adv-x="391" 
d="M197 661q15 5 30.5 9t35.5 5l1 -14v-54v-43l2 -37q11 -4 18.5 -4.5t16.5 0.5q13 2 22 0.5t22 -2.5q14 -4 14 -9q5 -15 3.5 -28t-2.5 -26l-1 -45q-1 -14 -6 -26q-8 -5 -17 -6.5t-19 -0.5q-13 0 -25 0.5t-24 3.5q-2 -5 -3 -13t-1 -19v-81l2 -86q2 -12 5.5 -19.5t8.5 -13.5
q6 -7 16 -13t24 -4q12 1 23 1t22 -3q4 -11 5 -22.5t1 -22.5q-1 -20 -1 -44.5t-3 -35.5q-5 -4 -10.5 -5t-11.5 -1l-73 -2q-38 -3 -73 6q-17 2 -30.5 7.5t-25.5 14.5q-25 14 -34 42q-15 36 -18 72q-1 28 -1 56t2 56l-3 91v37q-8 2 -15.5 3.5t-17.5 1.5q-9 0 -18 -1t-18 1
q-5 13 -6 23.5t-2 21.5l1 48q-2 11 -2.5 22t2.5 20q8 1 17 2t17 -1l38 -3q5 11 4.5 21t0.5 21l-2 50q-2 14 1 26q11 5 24 7.5t27 4.5z" />
    <glyph glyph-name="u" unicode="u" horiz-adv-x="600" 
d="M43 519q9 5 20 8.5t26 2.5q14 0 27 -0.5t27 -2.5l53 3q6 0 11 -16l1 -23q1 -14 3 -28.5t0 -28.5l-1 -78l-1 -136q0 -16 4.5 -24.5t9.5 -16.5q8 -23 36 -28q18 -2 36.5 -2t36.5 4q20 5 32 15t20 23q6 16 6 34.5v36.5l-1 94v76l1 56l-3 34q14 8 27 7t27 -1l69 -3
q9 0 18.5 -0.5t18.5 -2.5q8 -8 10 -20t2 -25l1 -75l-2 -149l1 -106v-70l-5 -65q-17 -5 -31 -5h-31q-20 2 -39.5 0t-30.5 -2q-8 0 -10.5 5t-7.5 7t-10.5 2.5t-12.5 0.5q-19 -3 -37 -7t-35 -11q-22 -7 -43.5 -8t-43.5 0q-17 2 -33 3.5t-31 4.5q-24 2 -46.5 9.5t-33.5 15.5
q-28 27 -33 64l-3 107q-1 29 -1.5 57.5t1.5 57.5l1 96l-2 57v26.5t2 26.5z" />
    <glyph glyph-name="v" unicode="v" horiz-adv-x="671" 
d="M10 522q11 8 27.5 10t36.5 1l61 -3q12 1 24.5 1t26.5 -3q6 -8 9.5 -17t5.5 -17l41 -101l25 -64l27 -67q6 -17 12.5 -32.5t12.5 -20.5q7 5 11 15.5t9 21.5l20 42l41 81l30 71l30 63q2 8 6.5 12t10.5 9q17 2 34 3.5t34 0.5l53 3q14 2 27 1t27 -6q9 -5 8 -13
q-8 -17 -15.5 -32.5t-17.5 -32.5l-51 -106l-38 -80l-55 -110l-37 -84l-28 -58q-7 -13 -18 -13l-62 1q-15 -2 -30 -2.5t-28 1.5q-14 -1 -28 -2.5t-26 0.5l-23 44l-40 90l-41 105l-37 88l-39 91l-21 58z" />
    <glyph glyph-name="w" unicode="w" horiz-adv-x="920" 
d="M148 527q11 1 22.5 1t22.5 -3l25 -63l37 -78l10 -30t9.5 -27.5t9 -21.5t8.5 -12q13 10 20 30t17 37l45 88l28 57q12 10 24 10.5t24 -1.5q15 2 29.5 0.5t29.5 -5.5q9 -15 16.5 -30t12.5 -35l28 -77q10 -25 18 -44t16 -21q11 5 20.5 24.5t17.5 35.5l32 72q11 23 20.5 44.5
t18.5 40.5q6 3 13.5 5.5t21.5 0.5l96 5l58 -3q12 0 12 -13l-32 -68l-67 -132l-46 -85l-33 -74l-28 -56l-34 -73l-16 -20q-14 -4 -27 -3.5t-27 2.5q-17 -2 -33 -1.5t-33 2.5q-8 14 -16.5 28t-12.5 28l-27 73q-3 11 -7 24.5t-8 26t-7.5 22t-6.5 12.5q-11 -14 -17.5 -32
t-13.5 -35l-41 -82l-31 -68q-16 -5 -31 0q-14 -3 -27 -2.5t-27 -0.5h-26t-21 5q-6 12 -11.5 24.5t-7.5 24.5l-41 109l-38 93l-41 108l-38 84q-5 8 -6.5 18.5t-6.5 16.5q-11 17 -14 39q17 5 36.5 5.5t39.5 -0.5h62z" />
    <glyph glyph-name="x" unicode="x" horiz-adv-x="683" 
d="M151 530l90 -3q12 -7 22 -19.5t20 -27.5l35 -42q5 -10 14 -18t14 -8q11 2 22 13t20 23l40 49q8 8 16 15.5t22 12.5l71 2q18 1 35.5 0t34.5 -4q17 4 33 3t33 -6q-3 -18 -20 -32l-77 -86l-57 -64l-53 -62q1 -16 13.5 -29t23.5 -27l67 -90l73 -85q10 -11 13 -20t5 -20
q-11 -5 -19.5 -6t-19.5 -1l-77 5q-14 -4 -28.5 -4.5t-29.5 -0.5q-10 -8 -21 -4q-10 8 -17.5 16.5t-13.5 17.5l-36 42q-13 16 -26.5 31.5t-28.5 25.5l-40 -46l-40 -42q-13 -21 -25 -33q-34 -6 -68 -3l-94 -2q-24 -2 -43 -2t-24 7l6 16t8 14l37 49l42 48l59 59
q15 18 32.5 38.5t34.5 37.5q-10 17 -22 32.5t-26 30.5l-54 59l-41 52l-46 49q-8 3 -10.5 7.5t-5.5 12.5q2 5 6 10t16 7z" />
    <glyph glyph-name="y" unicode="y" horiz-adv-x="617" 
d="M312 241q11 16 18 39.5t16 45.5l31 95l34 97q8 5 26.5 5.5t40.5 1.5l55 -1l40 1q11 -2 21 -4t13 -6q-2 -14 -7.5 -29t-12.5 -29l-48 -115l-66 -162l-53 -126l-50 -121q-10 -21 -20.5 -40t-24.5 -36q-6 -13 -21 -25t-29 -23q-35 -11 -68 -12q-26 3 -52.5 4t-50.5 -2
q-21 -2 -36 -1.5t-30 5.5q-3 25 -3 51l-2 64q-4 25 0 50q10 2 20.5 4t24.5 2l55 -2q26 -2 41 9q22 19 27 45q-1 17 -12 31l-45 91l-32 82l-46 117l-28 78l-27 70q-1 6 -1 11.5t4 11.5q28 9 55 9h55q20 2 39 3t39 0q19 -38 30.5 -75.5t25.5 -75.5q12 -35 25 -69t29 -69z" />
    <glyph glyph-name="z" unicode="z" horiz-adv-x="594" 
d="M40 520q31 7 71 8.5t85 -0.5l127 2h123q23 -1 47 -1t50 -4q7 -18 2 -40q2 -12 3 -23.5t-3 -23.5l-8 -25q-11 -20 -23.5 -38.5t-27.5 -32.5l-47 -55l-55 -56l-34 -36t-27 -35q8 -2 17.5 -2.5t21.5 0.5l67 2l58 5q20 2 37.5 1t34.5 -3q6 -9 4 -24v-64l-6 -66q-7 -9 -25 -7
q-27 -1 -53.5 -1.5t-53.5 1.5l-120 -5l-90 5l-112 -3q-17 0 -34.5 1t-32.5 3l-4 26q-1 16 -2 31t1 31l3 24q12 17 51 45l49 51l59 63l46 51q13 14 25.5 27t20.5 27q-27 3 -57 3q-23 -2 -44 -1.5t-42 1.5q-20 -3 -39.5 -3.5t-40.5 0.5q-8 2 -11.5 5.5t-7.5 8.5l-3 50v38
q-2 10 -2 19.5t2 19.5z" />
    <glyph glyph-name="quotesingle" unicode="'" horiz-adv-x="222" 
d="M36 737q18 3 38 3t42 -1l38 2t38 -1q9 -8 9 -17q0 -27 -1.5 -53t-7.5 -52l-15 -99q-3 -20 -8 -40.5t-14 -40.5q-16 -1 -30.5 -1.5t-28.5 3.5q-8 13 -13 26l-10 26q-12 26 -18 46.5t-12 40.5q-5 33 -11.5 66t-5.5 66q-3 17 10 26z" />
    <glyph glyph-name="quotedblleft" unicode="&#x201c;" horiz-adv-x="454" 
d="M407 520q-3 -17 -2.5 -32.5t1.5 -32.5q-3 -13 -18 -16q-14 -2 -30 0t-31 4q-17 -2 -32.5 -1.5t-32.5 1.5q-11 0 -17 29q-2 18 -1 36.5t2 36.5v26t3 27v6.5t1 6.5q3 8 7 15.5t11 13.5q5 8 9 18t11 18q3 7 6 12.5t9 13.5l21 39q9 2 18 3.5t20 -0.5l36 -3q5 1 7 -5
q-13 -22 -20 -39l-17 -38q-4 -11 -8 -22.5t-5 -22.5q9 -2 20 -1.5t20 -1.5q10 -6 14 -24zM208 520q-3 -17 -2.5 -32.5t1.5 -32.5q-3 -13 -18 -16q-14 -2 -30 0t-31 4q-17 -2 -32.5 -1.5t-32.5 1.5q-11 0 -17 29q-2 18 -1 36.5t2 36.5v26t3 27v6.5t1 6.5q3 8 7 15.5t11 13.5
q5 8 9 18t11 18q3 7 6 12.5t9 13.5l21 39q9 2 18 3.5t20 -0.5l36 -3q5 1 7 -5q-13 -22 -20 -39l-17 -38q-4 -11 -8 -22.5t-5 -22.5q9 -2 20 -1.5t20 -1.5q10 -6 14 -24z" />
    <glyph glyph-name="endash" unicode="&#x2013;" horiz-adv-x="573" 
d="M61 361q20 5 42 4t46 -2l126 -2l93 1l94 -1q16 0 32.5 -0.5t30.5 -5.5q10 -12 8.5 -26.5t-3.5 -28.5l-2 -31v-24t-8 -21q-7 -5 -19.5 -5.5t-22.5 -0.5l-113 3q-29 0 -57.5 -1t-56.5 0q-45 -3 -98 3l-88 -2q-3 8 -4 16t0 16q-2 24 0 47q-4 15 -3 30.5t3 30.5z" />
    <glyph glyph-name="paragraph" unicode="&#xb6;" horiz-adv-x="577" 
d="M213 738q4 0 13.5 0.5t21 0.5t22.5 -0.5t19 -1.5l105 -3l65 -1l35 1q15 2 25 -1t13 -14q5 -12 3 -28l-2 -126l-3 -110l-3 -167l-3 -131l-1 -75l-1 -78q-6 -5 -13 -3l-33 -1l-31 -2q-8 0 -15 1t-11 2q-2 8 -2 16v16l2 108l2 119l3 166l2 92l2 54t-1 54l-19 1
q-18 1 -33.5 1.5t-29.5 -0.5q-2 -16 -2 -31.5t1 -31.5l-3 -110l-3 -167l-3 -131l-1 -75l-1 -78q-6 -5 -13 -3l-33 -1l-31 -2q-8 0 -15 1t-11 2q-2 8 -2 16v16l2 108l2 119l2 121q-15 0 -29.5 1t-24.5 3q-12 2 -27.5 4.5t-31.5 6.5t-32 11t-29 19q-12 11 -20 29t-12 40t-4 45
t3 43q1 10 6 26.5t13.5 34.5t19 34.5t24.5 27.5t34.5 16.5t40.5 9.5q23 4 48 6z" />
    <glyph glyph-name="bullet" unicode="&#x2022;" 
d="M270 219q-14 -7 -28.5 -10t-31.5 -5l-111 4q-13 8 -19 31l2 80q4 20 3.5 39t-1.5 39q3 15 21 19q17 2 36 -0.5t37 -4.5q21 2 39 1.5t39 -1.5q8 0 12 -9t8 -26q3 -22 1.5 -43.5t-2.5 -43.5v-35t-5 -35z" />
    <glyph glyph-name="quotedblright" unicode="&#x201d;" horiz-adv-x="449" 
d="M42 657q3 17 2.5 32.5t-1.5 32.5q3 13 18 16q14 2 30 0t31 -4q17 2 32.5 1.5t32.5 -1.5q11 0 17 -29q2 -18 1 -36.5t-2 -36.5v-26t-3 -27v-6.5t-1 -6.5q-3 -8 -7 -15.5t-11 -13.5q-5 -8 -9 -18t-11 -18q-3 -7 -6 -12.5t-9 -13.5l-21 -39q-9 -2 -18 -3.5t-20 0.5l-36 3
q-5 -1 -7 5q13 22 20 39l17 38q4 11 8 22.5t5 22.5q-9 2 -20 1.5t-20 1.5q-10 6 -14 24zM241 657q3 17 2.5 32.5t-1.5 32.5q3 13 18 16q14 2 30 0t31 -4q17 2 32.5 1.5t32.5 -1.5q11 0 17 -29q2 -18 1 -36.5t-2 -36.5v-26t-3 -27v-6.5t-1 -6.5q-3 -8 -7 -15.5t-11 -13.5
q-5 -8 -9 -18t-11 -18q-3 -7 -6 -12.5t-9 -13.5l-21 -39q-9 -2 -18 -3.5t-20 0.5l-36 3q-5 -1 -7 5q13 22 20 39l17 38q4 11 8 22.5t5 22.5q-9 2 -20 1.5t-20 1.5q-10 6 -14 24z" />
    <glyph glyph-name="ellipsis" unicode="&#x2026;" horiz-adv-x="683" 
d="M198 9q-10 -5 -21.5 -7.5t-23.5 -3.5l-83 2q-9 5 -14 22l2 58q2 14 2 27.5t-1 27.5q3 11 16 14q12 2 26 0.5t28 -3.5q30 1 58 0q10 0 15 -25q2 -16 1 -31.5t-1 -31.5q0 -12 -0.5 -24.5t-3.5 -24.5zM273 140q2 8 14 9t31 0h67q10 -1 20.5 -6.5t9.5 -15.5l-2 -58
q-2 -14 -2 -27.5t1 -27.5q-3 -11 -16 -14q-25 -3 -54 0q-16 -1 -29.5 0.5t-28.5 2.5q-10 0 -15 25q-2 16 -1 31.5t1 31.5q0 12 0.5 24.5t3.5 24.5zM483 9q-3 12 -3.5 24.5t-0.5 24.5q0 16 -1 31.5t1 31.5q4 22 15 25q14 4 27.5 3t30.5 -3q14 2 28 3.5t26 -0.5q13 -3 16 -14
q-1 -14 -1 -27.5t2 -27.5l2 -58q-5 -17 -14 -22l-83 -2q-12 -1 -23.5 -0.5t-21.5 11.5z" />
    <glyph glyph-name="perthousand" unicode="&#x2030;" horiz-adv-x="1125" 
d="M187 -3q-14 2 -26.5 3.5t-21.5 4.5q14 29 27.5 59t29.5 62l43 94l45 84l36 80l43 84l37 87l34 69l25 57q5 15 19 30h37q8 1 16.5 2t18.5 0l42 -5q8 0 14 -2t13 -6l-30 -56l-20 -39l-48 -101l-31 -65l-59 -131l-58 -106l-46 -104q-11 -27 -22 -51.5t-28 -50.5
q-10 -2 -17 -1.5t-17 0.5q-27 -3 -56 2zM50 663q23 23 52 35t67 13q51 -4 82.5 -19t49.5 -38q20 -29 26 -56t7 -56q-2 -36 -14.5 -60t-24.5 -44q-20 -23 -49.5 -37t-67.5 -15q-41 1 -69.5 13.5t-51.5 29.5q-22 23 -35 49.5t-11 61.5q-2 32 8.5 63t30.5 60zM472 278
q23 23 52 35t67 13q51 -4 82.5 -19t49.5 -38q20 -29 26 -56t7 -56q-2 -36 -14.5 -60t-24.5 -44q-20 -23 -49.5 -37t-67.5 -15q-41 1 -69.5 13.5t-51.5 29.5q-22 23 -35 49.5t-11 61.5q-2 32 8.5 63t30.5 60zM1075 49q-23 -23 -52 -35t-67 -13q-51 4 -82.5 19t-49.5 38
q-20 29 -26 56t-7 56q2 36 14.5 60t24.5 44q20 23 49.5 37t67.5 15q41 -1 69.5 -13.5t51.5 -29.5q22 -23 35 -49.5t11 -61.5q2 -32 -8.5 -63t-30.5 -60zM110 545q3 -24 18 -43q15 -10 46 -15q28 4 40 21q17 19 17 38q0 24 -17 40q-7 6 -15.5 11t-23.5 5q-15 4 -28.5 -0.5
t-20.5 -14.5q-8 -9 -11 -20t-5 -22zM534 159q2 -11 5.5 -22t11.5 -20q15 -10 46 -15q28 4 40 21q17 17 17 38q0 11 -4 21t-14 18q-6 6 -14.5 11t-23.5 5q-15 4 -28 -0.5t-20 -14.5q-9 -9 -11.5 -19.5t-4.5 -22.5zM1014 164q-2 11 -5.5 22t-11.5 20q-15 10 -46 15
q-28 -4 -40 -21q-17 -17 -17 -38q0 -11 4 -21t14 -18q6 -6 14.5 -11t23.5 -5q15 -4 28 0.5t20 14.5q9 9 11.5 19.5t4.5 22.5z" />
    <glyph glyph-name="emdash" unicode="&#x2014;" horiz-adv-x="1061" 
d="M42 361q40 5 85.5 4.5t94.5 -2.5q62 -3 125.5 -4t133.5 2q50 2 97.5 3.5t93.5 -2.5q47 1 94.5 1t98.5 -2q32 0 69.5 -0.5t65.5 -5.5q5 -10 5 -25.5t-3 -29.5l-2 -31v-24t-8 -22q-7 -2 -19 -3t-25.5 -1.5t-27 -0.5h-23.5l-231 3q-63 -2 -120.5 -2.5t-113.5 1.5
q-48 -2 -97 -1t-104 4q-48 -4 -91.5 -4t-79.5 2q-8 1 -14.5 10t-3.5 22q-3 24 0 47q-5 15 -3.5 30.5t3.5 30.5z" />
    <glyph glyph-name="AE" unicode="&#xc6;" horiz-adv-x="1071" 
d="M40 10q20 60 40.5 119.5t43.5 116.5q23 63 45.5 125.5t46.5 120.5q11 28 22.5 61.5t22.5 65.5t21 61t18 50q28 2 49 2.5t41.5 0.5t44 -1t56.5 -1q52 0 101 -0.5t97 -1t97 -1t102 -0.5q38 0 74.5 2.5t75.5 1.5q0 -47 1.5 -96.5t-1.5 -91.5q-35 -6 -73.5 -5t-71.5 0
q-24 0 -38 -0.5t-25.5 -1t-25.5 -0.5t-38 1h-17.5t-23.5 -0.5t-22 -2t-14 -3.5q0 -23 0.5 -43.5t-1.5 -43.5q23 0 51.5 -0.5t51.5 0.5q22 1 37 1.5t28.5 1t28 0.5h37.5q2 -13 3 -36t1 -47.5t-2 -45t-6 -28.5q-33 0 -61 0.5t-54.5 0.5t-54.5 -0.5t-61 -1.5q-3 0 -5 -13
t-3.5 -29.5t-2 -33t-0.5 -22.5h93t87 -0.5t87 -1.5t93 -2q3 -23 4 -50t0 -53.5t-3 -49t-4 -37.5q-28 -2 -55.5 -1t-55.5 2q-30 1 -63 0t-63 1q-8 1 -6.5 0.5t4 -1t3 -0.5t-7.5 0q-7 1 -13.5 1h-13.5h-86q-23 -1 -47.5 -1h-46.5h-38h-23h-8t-15 1l-22 2q-4 35 -4 67t-1 67
l-49 1q-49 -1 -87.5 -2t-50.5 -7q-11 -30 -22.5 -59.5t-23.5 -58.5q-50 -8 -99 -7.5t-99 7.5zM353 300q16 0 36.5 1t48.5 0l29 -1q-1 11 -1 21v18q4 49 1 96.5t-4 95.5q0 8 -0.5 16.5t-0.5 17.5l-10 1l-52 -136z" />
    <glyph glyph-name="Oslash" unicode="&#xd8;" horiz-adv-x="810" 
d="M139 -87q-8 1 -18.5 8t-14.5 12q9 19 15.5 32.5t13 26.5l14 28t17.5 36l3 7q-12 10 -24 20.5t-24 23.5q-54 66 -77.5 132t-23.5 129q1 41 7.5 76t21 68.5t37 67t57.5 72.5q45 44 109 72.5t144 30.5q23 0 45.5 -2.5t45.5 -7.5l26 57q3 11 14 27.5t20 25.5l41 -4
q11 0 22.5 -4.5t21.5 -5.5q23 -6 39 -19l-30 -58l-25 -51l-6 -12q11 -7 20 -13t17 -13q67 -55 106 -133t36 -171q-1 -36 -7 -72.5t-17.5 -70.5t-30 -65t-43.5 -56q-56 -54 -119.5 -87.5t-141.5 -37.5q-40 0 -74 4t-66 14q-11 -26 -25 -51t-31 -52q-15 -3 -25 -1t-24 5
q-20 2 -30 6.5t-16 5.5zM562 373q-1 34 -10.5 65.5t-32.5 56.5l-9 -22l-79 -170l-54 -108h12q39 0 71.5 15t55 39.5t34.5 56.5t12 67zM229 371q0 -24 10 -53t29 -55l12 24l46 104l56 110l16 44q-37 -1 -68 -15t-53.5 -37.5t-35 -54.5t-12.5 -67z" />
    <glyph glyph-name="ae" unicode="&#xe6;" horiz-adv-x="1048" 
d="M97 388q-6 8 -10.5 19.5t-5.5 19.5q-2 23 -5 46t-1 49q42 7 90.5 11.5t97.5 6.5q20 0 33 -0.5t24 -1.5t23.5 -1.5t32.5 -0.5q1 0 9 -1t18.5 -2.5t21 -3.5t16.5 -5q26 -11 45.5 -23.5t32.5 -30.5q18 16 39.5 27.5t47.5 22.5q26 7 51.5 10t52.5 4q31 1 58.5 -4t56.5 -10
q31 -9 57.5 -23.5t51.5 -31.5q43 -44 60 -89q11 -20 15 -41t7 -41q2 -17 1 -35t-5 -35l-90 -10l-151 -3l-172 4q-1 -6 1.5 -13t4.5 -10q17 -29 49 -43q21 -8 43 -11.5t45 -5.5q23 1 44 4t40 10q18 8 32 21q5 5 10.5 11.5t9.5 8.5q14 -7 25 -20t22 -25q14 -11 27.5 -21
t27.5 -26q-4 -11 -10.5 -19t-14.5 -16q-14 -16 -33.5 -26t-42.5 -16q-44 -15 -86 -21q-18 -3 -35.5 -4.5t-35.5 0.5q-25 -2 -45.5 1.5t-39.5 8.5q-13 2 -30 5.5t-34.5 8t-32.5 10.5t-24 14q-12 -8 -29 -14t-36.5 -10t-39.5 -7t-37 -4q-14 -4 -36 -5t-37 -1q-9 -1 -29.5 -1.5
t-44 0t-46.5 2t-38 5.5q-35 9 -53.5 24t-32.5 32q-6 6 -11 19t-8.5 28t-5.5 29.5t-2 23.5q0 33 8 64.5t30 56.5q7 9 20 17.5t27.5 15.5t28.5 12t23 6q29 4 63.5 7.5t62.5 3.5q22 2 37.5 0t35.5 -5q2 25 -8.5 37.5t-27.5 17.5q-12 3 -27.5 5t-32 3.5t-31.5 1t-26 -1.5
q-7 -2 -22.5 -3.5t-33 -4t-34 -4.5t-26.5 -3zM742 325l108 -2q-10 17 -23 33.5t-39 30.5q-28 14 -63 17q-36 5 -59 -6q-15 -7 -25.5 -16t-19.5 -20q-6 -9 -10.5 -19t-4.5 -21zM367 212q-18 2 -37 2.5t-36 0.5h-33.5t-30.5 -3q-14 -3 -23.5 -13t-9.5 -22q0 -14 11.5 -23
t24.5 -11q20 -3 33.5 -4.5t35.5 -1.5q17 0 33.5 3.5t33.5 7.5q3 16 2 32t-4 32z" />
    <glyph glyph-name="dotlessi" unicode="&#x131;" horiz-adv-x="292" 
d="M128 525q15 2 34 2.5t33 -2.5q18 1 36 -4q3 -9 5 -17.5t1 -17.5v-124l-2 -128v-149v-41t-3 -41q-19 -5 -43 -4t-43 3q-18 -2 -35.5 -2h-35.5q-6 1 -11.5 2.5t-7.5 6.5q-1 14 -2 29t1 29l-2 131l-1 119l-2 123l2 64q3 8 7.5 11.5t13.5 5.5z" />
    <glyph glyph-name="oslash" unicode="&#xf8;" horiz-adv-x="635" 
d="M83 462q42 38 97 59t126 23q21 -2 40 -4.5t37 -6.5l24 49q3 11 14 27.5t20 25.5l41 -4q11 0 17.5 -4.5t16.5 -5.5q23 -6 39 -19l-30 -58l-28 -54q29 -19 50 -43q36 -47 50 -93.5t18 -93.5q-5 -60 -22.5 -100.5t-40.5 -73.5q-44 -52 -103 -74t-129 -24q-17 0 -33 1.5
t-31 3.5l-1 -2q-11 -26 -25 -51t-31 -52q-15 -3 -25 -1t-24 5q-20 2 -24.5 6.5t-10.5 5.5q-8 1 -12.5 4.5t-8.5 8.5q15 32 25 56.5t24 56.5q-12 8 -23 16t-20 19q-39 40 -60.5 87t-18.5 105q-3 54 12 105.5t50 99.5zM208 263q1 -18 4 -32t12 -29l38 78l26 55l20 42
q-23 1 -43 -6t-31 -24q-14 -19 -19 -40t-7 -44zM333 152q22 4 37 14t25 24q14 17 21.5 35.5t6.5 39.5q0 16 -2.5 29.5t-9.5 26.5l-12 -24z" />
    <glyph glyph-name="trademark" unicode="&#x2122;" horiz-adv-x="708" 
d="M38 730q11 2 22 2t23 -1l56 -1l64 1l50 -1l45 2q2 -8 2 -15.5v-15.5v-31l-2 -13q-7 -2 -13 -2h-13h-45l-18 -1v-27l3 -71l1 -74q1 -23 0.5 -32t-0.5 -19q-10 -1 -19 -1.5t-18 -0.5h-39q-7 -2 -7 3q-2 14 -2 28v28v72l-2 53q-1 10 -1 19.5t-1 20.5l-32 1q-15 0 -29 1.5
t-27 2.5v20l-1 24q0 8 0.5 15t2.5 13zM337 737h24.5t24.5 -1h65l13 -27q4 -14 11.5 -28.5t13.5 -23.5q8 18 16 37.5t16 38.5q17 2 32 1.5t31 -1.5q17 1 34 1.5t34 -1.5q2 -42 0 -83v-79v-96q0 -10 -0.5 -20t0.5 -20q-5 -1 -11.5 -1h-13.5h-37h-10t-12 1q-1 19 -0.5 31.5
t0.5 31.5v76q-1 11 -1 21t-2 21q-6 -12 -10.5 -24.5t-9.5 -24.5l-23 -57q-4 -9 -8.5 -18l-8.5 -17q-5 -2 -12 -1.5t-14 2.5q-8 13 -13 26t-10 27l-24 51l-18 41q-3 -15 -2.5 -32t0.5 -34q1 -33 0 -67q1 -14 1.5 -27.5t-2.5 -25.5l-36 -1h-21.5t-21.5 1l-3 78l1 68l-2 77
l1 74l2 4z" />
    <glyph glyph-name="degree" unicode="&#xb0;" horiz-adv-x="430" 
d="M84 766q25 21 55.5 33t72.5 13q54 -4 88 -18.5t54 -36.5q22 -27 28 -53t8 -53q-2 -34 -13 -57t-24 -42q-26 -29 -58.5 -40t-73.5 -12q-44 1 -76 11t-54 33q-23 22 -34.5 47.5t-9.5 57.5q-2 31 6.5 60t30.5 57zM155 655q3 -26 18 -47q8 -6 20 -10.5t27 -6.5q17 2 26.5 8
t16.5 15q17 20 17 43q0 28 -18 45q-7 7 -15.5 12.5t-24.5 5.5q-16 3 -29.5 -1.5t-20.5 -15.5q-9 -11 -12 -22.5t-5 -25.5z" />
    <glyph glyph-name="registered" unicode="&#xae;" horiz-adv-x="551" 
d="M308 638q11 0 22.5 -1t19.5 -3q28 -9 39 -33q7 -12 10 -23t5 -22q0 -34 -14 -51q-11 -11 -18.5 -15.5t-13.5 -8.5l18 -36l20 -41q3 -5 4.5 -9t3.5 -8l-28 -1h-26q-3 0 -10 0.5t-11 1.5q-8 13 -12.5 23t-10.5 21l-17 34q-2 5 -5 7q-8 -1 -15 -1.5t-14 0.5q-5 0 -9.5 0.5
t-9.5 -0.5q-2 -11 -1.5 -19t0.5 -14v-36q0 -5 -0.5 -8.5t-0.5 -7.5q-8 -1 -14.5 -1.5t-13.5 -0.5q-16 -2 -31 0q-8 0 -11 3q-3 11 -1 25l-1 77l1 60v44q-1 12 -1 24.5t2 20.5q17 2 34.5 2h34.5zM235 533q10 -1 19.5 -1h19.5q7 -1 11 -0.5t11 0.5q5 1 10.5 2t7.5 3q7 5 5 16
q1 12 -11 19q-8 2 -16 2q-6 1 -12 1h-12h-32q-1 -6 -1 -11.5v-11.5v-19zM271 689q-29 0 -57.5 -10.5t-54.5 -29.5q-29 -33 -46 -64.5t-16 -66.5q0 -37 14 -72.5t38 -68.5q28 -24 59 -38.5t68 -16.5q40 2 74 17.5t63 47.5q20 27 31 61t10 70q0 26 -11.5 58.5t-36.5 61.5
q-57 54 -135 51zM282 770q42 1 81 -14.5t78 -41.5q48 -41 74 -96t24 -106q0 -52 -22.5 -96.5t-57.5 -92.5q-41 -34 -86 -54.5t-99 -22.5q-117 6 -200 97q-29 39 -46 82t-16 95q5 48 23.5 92.5t54.5 85.5q41 38 87.5 56t104.5 16z" />
    <glyph glyph-name="copyright" unicode="&#xa9;" horiz-adv-x="833" 
d="M397 654q-47 1 -89 -17t-84 -47q-47 -53 -73.5 -102t-24.5 -105q0 -59 19.5 -113t57.5 -108q37 -42 87.5 -68t114.5 -26q125 0 218 105q32 44 49 98t16 112q0 40 -18.5 92t-58.5 98q-90 87 -214 81zM414 751q63 2 120 -21t114 -61q35 -30 62.5 -66t46 -75t27.5 -79t8 -77
q0 -38 -8.5 -73.5t-24 -69t-37 -67t-47.5 -68.5q-60 -50 -127 -80t-145 -30q-88 2 -160 37t-134 103q-42 57 -65 120.5t-21 139.5q8 69 31.5 135.5t77.5 126.5q60 56 128.5 82.5t153.5 22.5zM213 362q0 44 10.5 81.5t28.5 60.5q20 23 46 35.5t54 20.5t57.5 7t47.5 0h22.5
t28.5 -1q16 -1 34 -2q1 -5 2 -14t1 -18v-15.5t-1 -6.5q1 -1 1 -8v-16v-17.5t-1 -11.5h-19q-8 0 -18 -0.5t-18 0.5h-22.5t-30.5 -1t-29.5 -2.5t-20.5 -4.5q-7 -2 -16.5 -6.5t-18 -13.5t-14 -23t-4.5 -35q0 -21 3.5 -35t8 -23.5t10.5 -15.5l12 -12q11 -11 26.5 -14.5
t39.5 -4.5q6 0 16.5 -0.5t22.5 -0.5t23 0.5t17 0.5l41 -1q1 -3 1.5 -10t0.5 -16v-18v-16v-11v-14.5t-0.5 -13.5t-1.5 -6q0 -1 -15 -1.5t-35 -0.5q-10 0 -25 -0.5t-31 -0.5t-30 0.5t-23 2.5l-22.5 2.5t-28.5 4.5t-30 8t-26 13q-26 17 -40 39.5t-19 41.5q-5 18 -10 41t-5 52z
" />
    <glyph glyph-name="Adieresis" unicode="&#xc4;" horiz-adv-x="790" 
d="M262 926q18 0 34.5 -7t29 -18.5t20 -25.5t7.5 -28q0 -36 -26 -59t-68 -23q-19 0 -34.5 7.5t-26 18.5t-16 24t-5.5 25q0 38 25.5 62t59.5 24zM500 764q-50 2 -74.5 24.5t-24.5 55.5q0 32 26 57t67 25q19 0 36.5 -8t30.5 -20t20.5 -25.5t7.5 -25.5q0 -33 -25 -58t-64 -25z
M10 10q16 60 31 119.5t34 116.5q17 63 34 125.5t37 120.5q9 28 17.5 61.5t16.5 65.5t16 61t14 50q74 6 163 5t175 1q7 -21 16.5 -50t20.5 -60.5t22 -64t20 -62.5q21 -68 41.5 -132t43.5 -141q9 -28 17.5 -54t16.5 -53t16.5 -55.5t17.5 -61.5q-28 -1 -59 -1.5t-60 -0.5
t-53 1.5t-39 6.5q-14 30 -24 61t-21 64q-32 3 -68 3.5t-74 -0.5q-49 0 -87.5 -1t-49.5 -7q-8 -30 -17.5 -59.5t-19.5 -58.5q-49 -8 -98 -7.5t-100 7.5zM299 300q16 0 36.5 0.5t48.5 -0.5h45.5t39.5 2l-16 60t-18 60l-51 143h-8l-41 -135z" />
    <glyph glyph-name="Agrave" unicode="&#xc0;" horiz-adv-x="790" 
d="M10 10q16 60 31 119.5t34 116.5q17 63 34 125.5t37 120.5q9 28 17.5 61.5t16.5 65.5t16 61t14 50q74 6 163 5t175 1q7 -21 16.5 -50t20.5 -60.5t22 -64t20 -62.5q21 -68 41.5 -132t43.5 -141q9 -28 17.5 -54t16.5 -53t16.5 -55.5t17.5 -61.5q-28 -1 -59 -1.5t-60 -0.5
t-53 1.5t-39 6.5q-14 30 -24 61t-21 64q-32 3 -68 3.5t-74 -0.5q-49 0 -87.5 -1t-49.5 -7q-8 -30 -17.5 -59.5t-19.5 -58.5q-49 -8 -98 -7.5t-100 7.5zM299 300q16 0 36.5 0.5t48.5 -0.5h45.5t39.5 2l-16 60t-18 60l-51 143h-8l-41 -135zM483 762q-11 -2 -20 -2h-20
q-12 2 -24.5 1.5t-24.5 -1.5l-48 29q-17 11 -38.5 27t-35.5 27q-19 14 -35 27t-31 29q-8 6 -21 20t-16 22q17 5 37 6.5t40 3.5q28 3 58 3q33 5 67 0l23 -27l39 -62q14 -26 26.5 -52t23.5 -51z" />
    <glyph glyph-name="Aring" unicode="&#xc5;" horiz-adv-x="790" 
d="M10 10q16 60 31 119.5t34 116.5q17 63 34 125.5t37 120.5q14 45 27.5 99l24.5 98v1q-7 15 -10 31t-3 30q0 45 16.5 82.5t44 64.5t63.5 41.5t74 14.5q42 0 78 -16.5t63 -43t43 -60t17 -66.5q0 -23 -5.5 -44t-14.5 -39q14 -42 31.5 -91.5t31.5 -94.5q21 -68 41.5 -132
t43.5 -141q9 -28 17.5 -54t16.5 -53t16.5 -55.5t17.5 -61.5q-28 -1 -59 -1.5t-60 -0.5t-53 1.5t-39 6.5q-14 30 -24 61t-21 64q-32 3 -68 3.5t-74 -0.5q-49 0 -87.5 -1t-49.5 -7q-8 -30 -17.5 -59.5t-19.5 -58.5q-49 -8 -98 -7.5t-100 7.5zM299 300q16 0 36.5 0.5t48.5 -0.5
h45.5t39.5 2l-16 60t-18 60l-51 143h-8l-41 -135zM379 830q-28 0 -49.5 -19t-21.5 -55q0 -11 4.5 -24t13 -24.5t21.5 -19t30 -7.5q31 0 53.5 21.5t22.5 55.5q0 32 -22 52t-52 20z" />
    <glyph glyph-name="Eacute" unicode="&#xc9;" horiz-adv-x="679" 
d="M44 731q112 1 226 -0.5t226 -2.5q38 0 74.5 2.5t75.5 1.5q0 -47 1.5 -96.5t-1.5 -91.5q-35 -6 -73.5 -5t-71.5 0q-49 -1 -88.5 -2t-88.5 1q-12 1 -30.5 0t-26.5 -6q0 -23 0.5 -43.5t-1.5 -43.5q23 0 41.5 -0.5t41.5 0.5q90 3 181 3q2 -13 3 -36t1 -47.5t-2 -45t-6 -28.5
q-66 1 -130.5 1t-130.5 -2q-3 0 -5 -13t-3.5 -29.5t-2 -33t-0.5 -22.5q98 1 195 -0.5t195 -3.5q3 -23 4 -50t0 -53.5t-3 -49t-4 -37.5q-28 -2 -55.5 -1t-55.5 2q-30 1 -63 0t-63 1q-15 2 -27.5 0t-29.5 -1q-23 1 -45.5 1.5t-45.5 -0.5q-24 -1 -49 -1h-46.5h-38h-23.5h-8
t-15 1l-22 2q-4 36 -4 70t-1 70q0 16 -0.5 29.5t-0.5 26.5t-0.5 26.5t-0.5 30.5q-1 18 -2 42t-1 42q4 49 1 96.5t-4 95.5t-1 100.5t4 99.5zM247 762q11 25 23.5 51t26.5 52l39 62l23 27q33 5 67 0q29 0 58 -3q20 -2 40 -3.5t37 -6.5q-3 -8 -16 -22t-21 -20q-15 -16 -31 -29
t-35 -27q-14 -11 -35.5 -27t-38.5 -27l-48 -29q-12 1 -24.5 1.5t-24.5 -1.5h-20t-20 2z" />
    <glyph glyph-name="Odieresis" unicode="&#xd6;" horiz-adv-x="810" 
d="M400 545q-37 0 -68.5 -14t-54 -37.5t-35.5 -55t-13 -67.5q0 -25 11.5 -55.5t32.5 -57.5t50.5 -45t65.5 -18q39 0 71.5 15t55 39.5t34.5 56.5t12 67q0 31 -8.5 60.5t-27.5 53.5t-50 39.5t-76 18.5zM789 371q-1 -36 -7 -72.5t-17.5 -70.5t-30 -65t-43.5 -56
q-56 -54 -119.5 -87.5t-141.5 -37.5q-47 0 -87.5 6t-77.5 20t-72 38.5t-72 60.5q-54 66 -77.5 132t-23.5 129q1 41 7.5 76t21 68.5t37 67t57.5 72.5q45 44 109 72.5t144 30.5q36 0 73.5 -6.5t71 -17t61.5 -25.5t45 -31q67 -55 106 -133t36 -171zM274 936q18 0 34.5 -7
t29 -18.5t20 -25.5t7.5 -28q0 -36 -26 -59t-68 -23q-19 0 -34.5 7.5t-26 18.5t-16 24t-5.5 25q0 38 25.5 62t59.5 24zM532 774q-50 2 -74.5 24.5t-24.5 55.5q0 32 26 57t67 25q19 0 36.5 -8t30.5 -20t20.5 -25.5t7.5 -25.5q0 -33 -25 -58t-64 -25z" />
    <glyph glyph-name="adieresis" unicode="&#xe4;" horiz-adv-x="594" 
d="M184 745q18 0 34.5 -7t29 -18.5t20 -25.5t7.5 -28q0 -36 -26 -59t-68 -23q-19 0 -34.5 7.5t-26 18.5t-16 24t-5.5 25q0 38 25.5 62t59.5 24zM422 584q-50 2 -74.5 24.5t-24.5 55.5q0 32 26 57t67 25q19 0 36.5 -8t30.5 -20t20.5 -25.5t7.5 -25.5q0 -33 -25 -58t-64 -25z
M97 388q-6 8 -10.5 19.5t-5.5 19.5q-2 23 -5 46t-1 49q42 7 90.5 11.5t97.5 6.5q20 0 33 -0.5t24 -1.5t23.5 -1.5t32.5 -0.5q1 0 9 -1t18.5 -2.5t21 -3.5t16.5 -5q27 -11 47 -24t32.5 -31.5t19.5 -43.5t9 -60q4 -47 4 -87v-88q2 -48 0.5 -93t-6.5 -93q-34 -3 -65 -3t-64 -2
q-1 0 -5.5 -0.5t-10 -1t-10 -0.5t-4.5 1q-2 2 -8 12t-6 13q-13 -6 -35 -11.5t-38 -7.5q-10 -2 -31 -4t-46 -2q-23 0 -45 2t-36 6q-35 9 -53.5 24t-32.5 32q-6 6 -11 19t-8.5 28t-5.5 29.5t-2 23.5q0 33 8 64.5t30 56.5q7 9 20 17.5t27.5 15.5t28.5 12t23 6q29 4 63.5 7.5
t62.5 3.5q22 2 37.5 0t35.5 -5q2 25 -8.5 37.5t-27.5 17.5q-12 3 -27.5 5t-32 3.5t-31.5 1t-26 -1.5q-7 -2 -22.5 -3.5t-33 -4t-34 -4.5t-26.5 -3zM367 212q-18 2 -37 2.5t-36 0.5h-33.5t-30.5 -3q-14 -3 -23.5 -13t-9.5 -22q0 -14 11.5 -23t24.5 -11q20 -3 33.5 -4.5
t35.5 -1.5q17 0 33.5 3.5t33.5 7.5q3 16 2 32t-4 32z" />
    <glyph glyph-name="agrave" unicode="&#xe0;" horiz-adv-x="594" 
d="M97 388q-6 8 -10.5 19.5t-5.5 19.5q-2 23 -5 46t-1 49q42 7 90.5 11.5t97.5 6.5q20 0 33 -0.5t24 -1.5t23.5 -1.5t32.5 -0.5q1 0 9 -1t18.5 -2.5t21 -3.5t16.5 -5q27 -11 47 -24t32.5 -31.5t19.5 -43.5t9 -60q4 -47 4 -87v-88q2 -48 0.5 -93t-6.5 -93q-34 -3 -65 -3
t-64 -2q-1 0 -5.5 -0.5t-10 -1t-10 -0.5t-4.5 1q-2 2 -8 12t-6 13q-13 -6 -35 -11.5t-38 -7.5q-10 -2 -31 -4t-46 -2q-23 0 -45 2t-36 6q-35 9 -53.5 24t-32.5 32q-6 6 -11 19t-8.5 28t-5.5 29.5t-2 23.5q0 33 8 64.5t30 56.5q7 9 20 17.5t27.5 15.5t28.5 12t23 6
q29 4 63.5 7.5t62.5 3.5q22 2 37.5 0t35.5 -5q2 25 -8.5 37.5t-27.5 17.5q-12 3 -27.5 5t-32 3.5t-31.5 1t-26 -1.5q-7 -2 -22.5 -3.5t-33 -4t-34 -4.5t-26.5 -3zM367 212q-18 2 -37 2.5t-36 0.5h-33.5t-30.5 -3q-14 -3 -23.5 -13t-9.5 -22q0 -14 11.5 -23t24.5 -11
q20 -3 33.5 -4.5t35.5 -1.5q17 0 33.5 3.5t33.5 7.5q3 16 2 32t-4 32zM397 563q-11 -2 -20 -2h-20q-12 2 -24.5 1.5t-24.5 -1.5l-48 29q-17 11 -38.5 27t-35.5 27q-19 14 -35 27t-31 29q-8 6 -21 20t-16 22q17 5 37 6.5t40 3.5q28 3 58 3q33 5 67 0l23 -27l39 -62
q14 -26 26.5 -52t23.5 -51z" />
    <glyph glyph-name="aring" unicode="&#xe5;" horiz-adv-x="594" 
d="M198 776q20 17 45 26.5t59 10.5q44 -3 71.5 -15t43.5 -29q17 -22 22 -43t7 -43q-2 -27 -10.5 -45.5t-19.5 -33.5q-21 -23 -47.5 -32t-59.5 -10q-35 1 -61.5 9t-43.5 26q-19 18 -28.5 38.5t-7.5 46.5q-3 51 30 94zM256 687q1 -21 14 -38q14 -11 38 -14q14 2 22 6.5
t13 12.5q14 16 14 34q0 11 -3.5 20t-11.5 16q-5 6 -12 10.5t-20 4.5q-28 5 -41 -14q-7 -8 -9.5 -17.5t-3.5 -20.5zM97 388q-6 8 -10.5 19.5t-5.5 19.5q-2 23 -5 46t-1 49q42 7 90.5 11.5t97.5 6.5q20 0 33 -0.5t24 -1.5t23.5 -1.5t32.5 -0.5q1 0 9 -1t18.5 -2.5t21 -3.5
t16.5 -5q27 -11 47 -24t32.5 -31.5t19.5 -43.5t9 -60q4 -47 4 -87v-88q2 -48 0.5 -93t-6.5 -93q-34 -3 -65 -3t-64 -2q-1 0 -5.5 -0.5t-10 -1t-10 -0.5t-4.5 1q-2 2 -8 12t-6 13q-13 -6 -35 -11.5t-38 -7.5q-10 -2 -31 -4t-46 -2q-23 0 -45 2t-36 6q-35 9 -53.5 24t-32.5 32
q-6 6 -11 19t-8.5 28t-5.5 29.5t-2 23.5q0 33 8 64.5t30 56.5q7 9 20 17.5t27.5 15.5t28.5 12t23 6q29 4 63.5 7.5t62.5 3.5q22 2 37.5 0t35.5 -5q2 25 -8.5 37.5t-27.5 17.5q-12 3 -27.5 5t-32 3.5t-31.5 1t-26 -1.5q-7 -2 -22.5 -3.5t-33 -4t-34 -4.5t-26.5 -3zM367 212
q-18 2 -37 2.5t-36 0.5h-33.5t-30.5 -3q-14 -3 -23.5 -13t-9.5 -22q0 -14 11.5 -23t24.5 -11q20 -3 33.5 -4.5t35.5 -1.5q17 0 33.5 3.5t33.5 7.5q3 16 2 32t-4 32z" />
    <glyph glyph-name="eacute" unicode="&#xe9;" horiz-adv-x="662" 
d="M303 529q32 1 61.5 -5t59.5 -11q32 -9 55.5 -23t49.5 -31q22 -21 40 -42t27 -44q13 -20 19.5 -40t9.5 -40q2 -17 5.5 -39t-0.5 -39q-22 -6 -54 -10t-58 -2q-37 -2 -65.5 0t-65.5 4q-45 2 -88.5 1.5t-86.5 -2.5q0 -24 14 -36q8 -7 23.5 -12.5t30.5 -7.5q21 -5 43 -8.5
t45 -5.5q25 1 42.5 2.5t34.5 5.5q10 5 22 6t23 5q4 2 11.5 4.5t16.5 4.5t17.5 3t14.5 1q10 -8 19 -19t14 -19q11 -11 23 -26.5t19 -26.5q-8 -19 -29 -29q-17 -11 -37.5 -20.5t-44.5 -15.5q-23 -8 -52 -9t-52 -3q-19 -3 -37.5 -4.5t-37.5 0.5q-26 -2 -57 2t-51 8
q-35 5 -61.5 20.5t-48.5 35.5q-28 19 -46 43t-29 50t-15.5 52t-6.5 53q0 26 3 51.5t11 50.5q5 23 17.5 43.5t29.5 40.5q22 23 50 38t63 29q26 7 53 11t56 5zM214 323q29 1 59 -2.5t62 -2.5l97 4q0 17 -7 29t-30 23q-27 10 -60 13q-15 2 -34 1t-32 -6q-14 -5 -23.5 -10
t-18.5 -13q-5 -8 -9 -17.5t-4 -18.5zM241 553q11 25 23.5 51t26.5 52l39 62l23 27q33 5 67 0q29 0 58 -3q20 -2 40 -3.5t37 -6.5q-3 -8 -16 -22t-21 -20q-15 -16 -31 -29t-35 -27q-14 -11 -35.5 -27t-38.5 -27l-48 -29q-12 1 -24.5 1.5t-24.5 -1.5h-20t-20 2z" />
    <glyph glyph-name="odieresis" unicode="&#xf6;" horiz-adv-x="669" 
d="M87 477q88 76 236 79q96 -7 157.5 -30.5t96.5 -64.5q38 -48 53 -96.5t19 -96.5q-5 -62 -23.5 -103.5t-43.5 -75.5q-46 -54 -108.5 -77t-136.5 -25q-156 2 -232 79q-42 42 -64.5 90.5t-19.5 108.5q-6 113 66 212zM223 271q3 -47 30 -84q14 -12 35 -21t48 -11q31 2 51 13
t31 28q14 17 22.5 36t7.5 41q2 50 -33 82q-11 13 -28.5 23t-46.5 11q-28 5 -52 -3.5t-38 -28.5t-19.5 -41.5t-7.5 -44.5zM213 755q18 0 34.5 -7t29 -18.5t20 -25.5t7.5 -28q0 -36 -26 -59t-68 -23q-19 0 -34.5 7.5t-26 18.5t-16 24t-5.5 25q0 38 25.5 62t59.5 24zM451 594
q-50 2 -74.5 24.5t-24.5 55.5q0 32 26 57t67 25q19 0 36.5 -8t30.5 -20t20.5 -25.5t7.5 -25.5q0 -33 -25 -58t-64 -25z" />
    <glyph glyph-name="Euro" unicode="&#x20ac;" horiz-adv-x="717" 
d="M5 330q8 6 23.5 7t33.5 1v28v17h-57l-3 24v45l3 20q5 6 22.5 5t32.5 0h12q8 45 23.5 82t36.5 63q35 42 81.5 64t96.5 36q25 7 51.5 9.5t51 3t46.5 0t38 0.5t41.5 0t50.5 -2q29 -2 60 -3q2 -8 3.5 -24t2 -32.5t0 -29t-1.5 -12.5q1 -2 1.5 -13t0.5 -25t-0.5 -27t-1.5 -19
q-17 -1 -35 -1h-32.5t-31.5 1q-15 1 -41 0.5t-53.5 -2t-52.5 -5t-37 -7.5q-15 -5 -36 -19t-37 -40l17 -1h58l88 1h88q16 1 26 -1t16 -5q8 -9 8.5 -17.5t-0.5 -17.5q2 -26 -8 -48q-5 -3 -10 -5.5t-16 -1.5l-53 -1l-76 1h-87l-44 -1l-29 2q0 -14 1 -25t3 -22h73l77 2l79 -2
q17 2 31 -5q6 -9 7 -17.5t1 -17.5q0 -10 -1 -19t-7 -17q-1 -6 -4 -10.5t-8 -9.5q-11 -1 -22 -1.5t-25 1.5q-23 -2 -43.5 -1t-40.5 2l-60 2h-20q8 -11 20 -21q21 -20 48.5 -26.5t69.5 -8.5q10 0 29.5 -0.5t41 -0.5t40.5 0.5t30 0.5l74 -1q1 -6 1.5 -17.5t1 -25.5t0.5 -28.5
v-26.5v-20.5t-0.5 -27t-1 -23.5t-1.5 -11t-27.5 -2t-62.5 -1q-18 0 -45 -0.5t-55 -1t-53.5 0.5t-40.5 4t-39.5 6t-52 8t-54 13.5t-46.5 22.5q-45 32 -70 72.5t-35 73.5q-3 9 -6 19t-5 21l-12 -1q-15 -1 -30 -0.5t-30 4.5l-5 35q-1 16 0.5 28.5t4.5 24.5z" />
    <glyph glyph-name="uni00A0" unicode="&#xa0;" horiz-adv-x="500" 
 />
    <glyph glyph-name="fi" unicode="&#xfb01;" horiz-adv-x="670" 
d="M403 715v-52v-32t-2 -32q-37 -9 -77 -6q-11 0 -22.5 -2t-21.5 -5q-7 -4 -12.5 -11t-6.5 -16q-2 -10 -3 -19.5t1 -17.5l60 -2l51 -1q1 -8 1.5 -15t-1.5 -15q2 -18 2 -36v-36l-2 -34q-15 -2 -30 -3t-30 -1q-11 -1 -24.5 -1.5t-26.5 0.5l-2 -68l1 -116l-2 -110v-86
q-17 -3 -35 -3.5t-35 2.5l-77 -2q-8 0 -14 0.5t-8 4.5l-3 110l1 104l-1 91l-2 75l-31 1q-10 1 -16.5 1t-16.5 3q-3 8 -5.5 15t-1.5 15v87q0 5 1 9t3 9q17 3 33 4t33 1l3 74q2 19 11 38.5t20 38.5q14 19 31.5 33.5t47.5 19.5q20 2 40 3.5t40 1.5q32 1 63.5 2t63.5 -3z
M531 738q17 -1 28 -4.5t22 -8.5q21 -13 29 -28.5t9 -32.5q2 -14 -4 -26.5t-15 -22.5q-7 -5 -13 -8t-13 -6q-11 -6 -23 -7.5t-26 -0.5q-36 3 -57 17q-16 8 -22.5 20.5t-8.5 27.5q1 14 5 26t13 22t19 17t23 11q8 2 16.5 3t17.5 1zM516 525q15 2 29 2.5t28 -2.5q18 1 36 -4
q3 -9 5 -17.5t1 -17.5v-124l-2 -128v-149v-41t-3 -41q-19 -5 -38 -4t-38 3q-18 -2 -35.5 -2h-35.5q-6 1 -11.5 2.5t-7.5 6.5q-1 14 -2 29t1 29l-2 131l-1 119l-2 123l2 64q3 8 7.5 11.5t13.5 5.5z" />
    <glyph glyph-name="fl" unicode="&#xfb02;" horiz-adv-x="687" 
d="M403 715v-52v-32t-2 -32q-37 -9 -77 -6q-11 0 -22.5 -2t-21.5 -5q-7 -4 -12.5 -11t-6.5 -16q-2 -10 -3 -19.5t1 -17.5l60 -2l51 -1q1 -8 1.5 -15t-1.5 -15q2 -18 2 -36v-36l-2 -34q-15 -2 -30 -3t-30 -1q-11 -1 -24.5 -1.5t-26.5 0.5l-2 -68l1 -116l-2 -110v-86
q-17 -3 -35 -3.5t-35 2.5l-77 -2q-8 0 -14 0.5t-8 4.5l-3 110l1 104l-1 91l-2 75l-31 1q-10 1 -16.5 1t-16.5 3q-3 8 -5.5 15t-1.5 15v87q0 5 1 9t3 9q17 3 33 4t33 1l3 74q2 19 11 38.5t20 38.5q14 19 31.5 33.5t47.5 19.5q20 2 40 3.5t40 1.5q32 1 63.5 2t63.5 -3z
M470 725q13 7 29 7t33 1l59 -7q11 0 19.5 -2.5t21.5 -4.5q7 -14 4 -28v-126l-1 -110l-2 -167l-1 -131v-75v-78q-11 -6 -21 -3l-52 -1l-50 -2q-14 0 -25.5 1t-19.5 3q-3 16 -3 32v108l2 119v166l1 92l-1 114l4 70z" />
    <glyph glyph-name="quotedbl" unicode="&#x22;" horiz-adv-x="435" 
d="M36 737q18 3 38 3t42 -1l38 2t38 -1q9 -8 9 -17q0 -27 -1.5 -53t-7.5 -52l-15 -99q-3 -20 -8 -40.5t-14 -40.5q-16 -1 -30.5 -1.5t-28.5 3.5q-8 13 -13 26l-10 26q-12 26 -18 46.5t-12 40.5q-5 33 -11.5 66t-5.5 66q-3 17 10 26zM388 734q14 -8 12 -26q3 -33 -3 -66
t-9 -66q-5 -20 -7.5 -40.5t-13.5 -46.5q-4 -13 -6.5 -26t-10.5 -26q-14 -4 -28.5 -3.5t-30.5 2.5q-10 20 -17.5 40.5t-12.5 40.5l-24 99q-8 26 -8 52t-2 53q0 10 8 17q19 2 36.5 0.5t36.5 -2.5q22 1 42 1t38 -3z" />
    <glyph glyph-name="exclam" unicode="!" horiz-adv-x="315" 
d="M240 7q-11 -6 -23.5 -8.5t-26.5 -4.5l-93 3q-12 7 -16 26l2 67q3 17 2.5 32.5t-1.5 32.5q3 13 18 16q14 2 30 0t31 -4q17 2 32.5 1.5t32.5 -1.5q11 0 17 -29q2 -18 1 -36.5t-2 -36.5v-29t-4 -29zM248 593l1 -119l2 -82v-127q0 -9 -7.5 -14.5t-17.5 -7.5l-68 -1
q-19 -2 -37 -4t-37 2q-7 8 -8.5 16.5t-2.5 16.5v96l4 189l-1 131q-4 25 8 51q20 4 39.5 3t39.5 -3q14 2 28 2.5t30 -0.5q27 -6 27 -20v-129z" />
    <glyph glyph-name="numbersign" unicode="#" horiz-adv-x="738" 
d="M60 453q-6 10 -6 19.5t-2 21.5l6 35q0 6 2 12t4 14q11 5 25 3l105 -2l1 76l3 70l2 22q9 7 18.5 7t21.5 2l35 -7q6 0 11.5 -2.5t13.5 -4.5q5 -12 3 -28l-2 -126l-1 -12l137 -3h7l1 82l3 70l2 22q9 7 18.5 7t21.5 2l35 -7q6 0 11.5 -2.5t13.5 -4.5q5 -12 3 -28l-2 -126
l-1 -18l65 -1l67 -1q5 -8 3 -14l1 -33l1 -31q0 -17 -2 -27q-8 -2 -14 -2h-14l-93 2h-17l-2 -152v-8h5l65 -1l67 -1q5 -8 3 -14l1 -33l1 -31q0 -17 -2 -27q-8 -2 -14 -2h-14l-93 2h-22v-16l-1 -75l-1 -78q-6 -5 -13 -3l-33 -1l-31 -2q-8 0 -15 1t-11 2q-2 8 -2 16v16l2 108
v34l-119 3h-26v-21l-1 -75l-1 -78q-6 -5 -13 -3l-33 -1l-31 -2q-8 0 -15 1t-11 2q-2 8 -2 16v16l2 108v39l-47 1l-61 3l-19 2q-6 10 -6 19.5t-2 21.5l6 35q0 6 2 12t4 14q11 5 25 3l100 -2l3 137v21l-52 1l-61 3zM295 286l142 -3h2l3 143v16l-124 3h-20l-3 -157v-2z" />
    <glyph glyph-name="dollar" unicode="$" horiz-adv-x="716" 
d="M347 878q6 10 13.5 10t15.5 1l28 -10q5 0 9 -3t10 -7q3 -19 2 -40v-86q45 -1 90.5 -2t93.5 -6l5 -100q5 -41 -3 -82q-38 -4 -75 -3t-75 5q-11 -1 -19.5 -1h-17.5v-64v-21q31 -6 60.5 -12.5t57.5 -14.5q30 -12 54 -28.5t44 -34.5q27 -27 38 -55t14 -61q3 -23 4 -44.5
t-2 -42.5q-5 -32 -16 -56.5t-24 -45.5q-17 -23 -42.5 -39.5t-58.5 -30.5q-27 -5 -54.5 -8.5t-56.5 -2.5h-19v-150q-5 -10 -10 -5l-24 -1l-24 -3q-7 0 -12 2t-9 4q-1 12 -1 23v23v108h-95l-131 1q-17 1 -35 2.5t-35 4.5q-2 26 -2 50t1 48l3 74q0 14 4 29q35 -6 72.5 -9
t75.5 -5q25 -2 50 -3.5t56 -1.5l37 2v112l-83 19l-74 23q-45 19 -83 51q-12 11 -24.5 30t-17.5 39q-10 40 -12 82q-1 20 2 36.5t9 39.5q11 23 31.5 48.5t43.5 38.5q20 13 39 20t39 12q14 5 45.5 6.5t57.5 -0.5q7 0 13.5 0.5t13.5 0.5v2l2 100zM277 527q0 -19 11.5 -25.5
t37.5 -10.5l18 -4v68q-4 0 -7.5 0.5t-6.5 0.5q-28 1 -40.5 -9.5t-12.5 -19.5zM423 283v-92q11 2 20.5 4t14.5 7q8 6 10 13t1 18q0 26 -26 41z" />
    <glyph glyph-name="f_i" horiz-adv-x="670" 
d="M403 715v-52v-32t-2 -32q-37 -9 -77 -6q-11 0 -22.5 -2t-21.5 -5q-7 -4 -12.5 -11t-6.5 -16q-2 -10 -3 -19.5t1 -17.5l60 -2l51 -1q1 -8 1.5 -15t-1.5 -15q2 -18 2 -36v-36l-2 -34q-15 -2 -30 -3t-30 -1q-11 -1 -24.5 -1.5t-26.5 0.5l-2 -68l1 -116l-2 -110v-86
q-17 -3 -35 -3.5t-35 2.5l-77 -2q-8 0 -14 0.5t-8 4.5l-3 110l1 104l-1 91l-2 75l-31 1q-10 1 -16.5 1t-16.5 3q-3 8 -5.5 15t-1.5 15v87q0 5 1 9t3 9q17 3 33 4t33 1l3 74q2 19 11 38.5t20 38.5q14 19 31.5 33.5t47.5 19.5q20 2 40 3.5t40 1.5q32 1 63.5 2t63.5 -3z
M531 738q17 -1 28 -4.5t22 -8.5q21 -13 29 -28.5t9 -32.5q2 -14 -4 -26.5t-15 -22.5q-7 -5 -13 -8t-13 -6q-11 -6 -23 -7.5t-26 -0.5q-36 3 -57 17q-16 8 -22.5 20.5t-8.5 27.5q1 14 5 26t13 22t19 17t23 11q8 2 16.5 3t17.5 1zM516 525q15 2 29 2.5t28 -2.5q18 1 36 -4
q3 -9 5 -17.5t1 -17.5v-124l-2 -128v-149v-41t-3 -41q-19 -5 -38 -4t-38 3q-18 -2 -35.5 -2h-35.5q-6 1 -11.5 2.5t-7.5 6.5q-1 14 -2 29t1 29l-2 131l-1 119l-2 123l2 64q3 8 7.5 11.5t13.5 5.5z" />
    <glyph glyph-name="f_l" horiz-adv-x="687" 
d="M403 715v-52v-32t-2 -32q-37 -9 -77 -6q-11 0 -22.5 -2t-21.5 -5q-7 -4 -12.5 -11t-6.5 -16q-2 -10 -3 -19.5t1 -17.5l60 -2l51 -1q1 -8 1.5 -15t-1.5 -15q2 -18 2 -36v-36l-2 -34q-15 -2 -30 -3t-30 -1q-11 -1 -24.5 -1.5t-26.5 0.5l-2 -68l1 -116l-2 -110v-86
q-17 -3 -35 -3.5t-35 2.5l-77 -2q-8 0 -14 0.5t-8 4.5l-3 110l1 104l-1 91l-2 75l-31 1q-10 1 -16.5 1t-16.5 3q-3 8 -5.5 15t-1.5 15v87q0 5 1 9t3 9q17 3 33 4t33 1l3 74q2 19 11 38.5t20 38.5q14 19 31.5 33.5t47.5 19.5q20 2 40 3.5t40 1.5q32 1 63.5 2t63.5 -3z
M470 725q13 7 29 7t33 1l59 -7q11 0 19.5 -2.5t21.5 -4.5q7 -14 4 -28v-126l-1 -110l-2 -167l-1 -131v-75v-78q-11 -6 -21 -3l-52 -1l-50 -2q-14 0 -25.5 1t-19.5 3q-3 16 -3 32v108l2 119v166l1 92l-1 114l4 70z" />
    <glyph glyph-name="less" unicode="&#x3c;" 
d="M270 219q-14 -7 -28.5 -10t-31.5 -5l-111 4q-13 8 -19 31l2 80q4 20 3.5 39t-1.5 39q3 15 21 19q17 2 36 -0.5t37 -4.5q21 2 39 1.5t39 -1.5q8 0 12 -9t8 -26q3 -22 1.5 -43.5t-2.5 -43.5v-35t-5 -35z" />
    <glyph glyph-name="greater" unicode="&#x3e;" 
d="M270 219q-14 -7 -28.5 -10t-31.5 -5l-111 4q-13 8 -19 31l2 80q4 20 3.5 39t-1.5 39q3 15 21 19q17 2 36 -0.5t37 -4.5q21 2 39 1.5t39 -1.5q8 0 12 -9t8 -26q3 -22 1.5 -43.5t-2.5 -43.5v-35t-5 -35z" />
    <glyph glyph-name="backslash" unicode="\" 
d="M270 219q-14 -7 -28.5 -10t-31.5 -5l-111 4q-13 8 -19 31l2 80q4 20 3.5 39t-1.5 39q3 15 21 19q17 2 36 -0.5t37 -4.5q21 2 39 1.5t39 -1.5q8 0 12 -9t8 -26q3 -22 1.5 -43.5t-2.5 -43.5v-35t-5 -35z" />
    <glyph glyph-name="asciicircum" unicode="^" 
d="M270 219q-14 -7 -28.5 -10t-31.5 -5l-111 4q-13 8 -19 31l2 80q4 20 3.5 39t-1.5 39q3 15 21 19q17 2 36 -0.5t37 -4.5q21 2 39 1.5t39 -1.5q8 0 12 -9t8 -26q3 -22 1.5 -43.5t-2.5 -43.5v-35t-5 -35z" />
    <glyph glyph-name="braceleft" unicode="{" 
d="M270 219q-14 -7 -28.5 -10t-31.5 -5l-111 4q-13 8 -19 31l2 80q4 20 3.5 39t-1.5 39q3 15 21 19q17 2 36 -0.5t37 -4.5q21 2 39 1.5t39 -1.5q8 0 12 -9t8 -26q3 -22 1.5 -43.5t-2.5 -43.5v-35t-5 -35z" />
    <glyph glyph-name="bar" unicode="|" 
d="M270 219q-14 -7 -28.5 -10t-31.5 -5l-111 4q-13 8 -19 31l2 80q4 20 3.5 39t-1.5 39q3 15 21 19q17 2 36 -0.5t37 -4.5q21 2 39 1.5t39 -1.5q8 0 12 -9t8 -26q3 -22 1.5 -43.5t-2.5 -43.5v-35t-5 -35z" />
    <glyph glyph-name="braceright" unicode="}" 
d="M270 219q-14 -7 -28.5 -10t-31.5 -5l-111 4q-13 8 -19 31l2 80q4 20 3.5 39t-1.5 39q3 15 21 19q17 2 36 -0.5t37 -4.5q21 2 39 1.5t39 -1.5q8 0 12 -9t8 -26q3 -22 1.5 -43.5t-2.5 -43.5v-35t-5 -35z" />
    <glyph glyph-name="asciitilde" unicode="~" 
d="M270 219q-14 -7 -28.5 -10t-31.5 -5l-111 4q-13 8 -19 31l2 80q4 20 3.5 39t-1.5 39q3 15 21 19q17 2 36 -0.5t37 -4.5q21 2 39 1.5t39 -1.5q8 0 12 -9t8 -26q3 -22 1.5 -43.5t-2.5 -43.5v-35t-5 -35z" />
    <glyph glyph-name="Ccedilla" unicode="&#xc7;" 
d="M270 219q-14 -7 -28.5 -10t-31.5 -5l-111 4q-13 8 -19 31l2 80q4 20 3.5 39t-1.5 39q3 15 21 19q17 2 36 -0.5t37 -4.5q21 2 39 1.5t39 -1.5q8 0 12 -9t8 -26q3 -22 1.5 -43.5t-2.5 -43.5v-35t-5 -35z" />
    <glyph glyph-name="Ntilde" unicode="&#xd1;" 
d="M270 219q-14 -7 -28.5 -10t-31.5 -5l-111 4q-13 8 -19 31l2 80q4 20 3.5 39t-1.5 39q3 15 21 19q17 2 36 -0.5t37 -4.5q21 2 39 1.5t39 -1.5q8 0 12 -9t8 -26q3 -22 1.5 -43.5t-2.5 -43.5v-35t-5 -35z" />
    <glyph glyph-name="Udieresis" unicode="&#xdc;" 
d="M270 219q-14 -7 -28.5 -10t-31.5 -5l-111 4q-13 8 -19 31l2 80q4 20 3.5 39t-1.5 39q3 15 21 19q17 2 36 -0.5t37 -4.5q21 2 39 1.5t39 -1.5q8 0 12 -9t8 -26q3 -22 1.5 -43.5t-2.5 -43.5v-35t-5 -35z" />
    <glyph glyph-name="aacute" unicode="&#xe1;" 
d="M270 219q-14 -7 -28.5 -10t-31.5 -5l-111 4q-13 8 -19 31l2 80q4 20 3.5 39t-1.5 39q3 15 21 19q17 2 36 -0.5t37 -4.5q21 2 39 1.5t39 -1.5q8 0 12 -9t8 -26q3 -22 1.5 -43.5t-2.5 -43.5v-35t-5 -35z" />
    <glyph glyph-name="acircumflex" unicode="&#xe2;" 
d="M270 219q-14 -7 -28.5 -10t-31.5 -5l-111 4q-13 8 -19 31l2 80q4 20 3.5 39t-1.5 39q3 15 21 19q17 2 36 -0.5t37 -4.5q21 2 39 1.5t39 -1.5q8 0 12 -9t8 -26q3 -22 1.5 -43.5t-2.5 -43.5v-35t-5 -35z" />
    <glyph glyph-name="atilde" unicode="&#xe3;" 
d="M270 219q-14 -7 -28.5 -10t-31.5 -5l-111 4q-13 8 -19 31l2 80q4 20 3.5 39t-1.5 39q3 15 21 19q17 2 36 -0.5t37 -4.5q21 2 39 1.5t39 -1.5q8 0 12 -9t8 -26q3 -22 1.5 -43.5t-2.5 -43.5v-35t-5 -35z" />
    <glyph glyph-name="ccedilla" unicode="&#xe7;" 
d="M270 219q-14 -7 -28.5 -10t-31.5 -5l-111 4q-13 8 -19 31l2 80q4 20 3.5 39t-1.5 39q3 15 21 19q17 2 36 -0.5t37 -4.5q21 2 39 1.5t39 -1.5q8 0 12 -9t8 -26q3 -22 1.5 -43.5t-2.5 -43.5v-35t-5 -35z" />
    <glyph glyph-name="egrave" unicode="&#xe8;" 
d="M270 219q-14 -7 -28.5 -10t-31.5 -5l-111 4q-13 8 -19 31l2 80q4 20 3.5 39t-1.5 39q3 15 21 19q17 2 36 -0.5t37 -4.5q21 2 39 1.5t39 -1.5q8 0 12 -9t8 -26q3 -22 1.5 -43.5t-2.5 -43.5v-35t-5 -35z" />
    <glyph glyph-name="ecircumflex" unicode="&#xea;" 
d="M270 219q-14 -7 -28.5 -10t-31.5 -5l-111 4q-13 8 -19 31l2 80q4 20 3.5 39t-1.5 39q3 15 21 19q17 2 36 -0.5t37 -4.5q21 2 39 1.5t39 -1.5q8 0 12 -9t8 -26q3 -22 1.5 -43.5t-2.5 -43.5v-35t-5 -35z" />
    <glyph glyph-name="edieresis" unicode="&#xeb;" 
d="M270 219q-14 -7 -28.5 -10t-31.5 -5l-111 4q-13 8 -19 31l2 80q4 20 3.5 39t-1.5 39q3 15 21 19q17 2 36 -0.5t37 -4.5q21 2 39 1.5t39 -1.5q8 0 12 -9t8 -26q3 -22 1.5 -43.5t-2.5 -43.5v-35t-5 -35z" />
    <glyph glyph-name="iacute" unicode="&#xed;" 
d="M270 219q-14 -7 -28.5 -10t-31.5 -5l-111 4q-13 8 -19 31l2 80q4 20 3.5 39t-1.5 39q3 15 21 19q17 2 36 -0.5t37 -4.5q21 2 39 1.5t39 -1.5q8 0 12 -9t8 -26q3 -22 1.5 -43.5t-2.5 -43.5v-35t-5 -35z" />
    <glyph glyph-name="igrave" unicode="&#xec;" 
d="M270 219q-14 -7 -28.5 -10t-31.5 -5l-111 4q-13 8 -19 31l2 80q4 20 3.5 39t-1.5 39q3 15 21 19q17 2 36 -0.5t37 -4.5q21 2 39 1.5t39 -1.5q8 0 12 -9t8 -26q3 -22 1.5 -43.5t-2.5 -43.5v-35t-5 -35z" />
    <glyph glyph-name="icircumflex" unicode="&#xee;" 
d="M270 219q-14 -7 -28.5 -10t-31.5 -5l-111 4q-13 8 -19 31l2 80q4 20 3.5 39t-1.5 39q3 15 21 19q17 2 36 -0.5t37 -4.5q21 2 39 1.5t39 -1.5q8 0 12 -9t8 -26q3 -22 1.5 -43.5t-2.5 -43.5v-35t-5 -35z" />
    <glyph glyph-name="idieresis" unicode="&#xef;" 
d="M270 219q-14 -7 -28.5 -10t-31.5 -5l-111 4q-13 8 -19 31l2 80q4 20 3.5 39t-1.5 39q3 15 21 19q17 2 36 -0.5t37 -4.5q21 2 39 1.5t39 -1.5q8 0 12 -9t8 -26q3 -22 1.5 -43.5t-2.5 -43.5v-35t-5 -35z" />
    <glyph glyph-name="ntilde" unicode="&#xf1;" 
d="M270 219q-14 -7 -28.5 -10t-31.5 -5l-111 4q-13 8 -19 31l2 80q4 20 3.5 39t-1.5 39q3 15 21 19q17 2 36 -0.5t37 -4.5q21 2 39 1.5t39 -1.5q8 0 12 -9t8 -26q3 -22 1.5 -43.5t-2.5 -43.5v-35t-5 -35z" />
    <glyph glyph-name="oacute" unicode="&#xf3;" 
d="M270 219q-14 -7 -28.5 -10t-31.5 -5l-111 4q-13 8 -19 31l2 80q4 20 3.5 39t-1.5 39q3 15 21 19q17 2 36 -0.5t37 -4.5q21 2 39 1.5t39 -1.5q8 0 12 -9t8 -26q3 -22 1.5 -43.5t-2.5 -43.5v-35t-5 -35z" />
    <glyph glyph-name="ograve" unicode="&#xf2;" 
d="M270 219q-14 -7 -28.5 -10t-31.5 -5l-111 4q-13 8 -19 31l2 80q4 20 3.5 39t-1.5 39q3 15 21 19q17 2 36 -0.5t37 -4.5q21 2 39 1.5t39 -1.5q8 0 12 -9t8 -26q3 -22 1.5 -43.5t-2.5 -43.5v-35t-5 -35z" />
    <glyph glyph-name="ocircumflex" unicode="&#xf4;" 
d="M270 219q-14 -7 -28.5 -10t-31.5 -5l-111 4q-13 8 -19 31l2 80q4 20 3.5 39t-1.5 39q3 15 21 19q17 2 36 -0.5t37 -4.5q21 2 39 1.5t39 -1.5q8 0 12 -9t8 -26q3 -22 1.5 -43.5t-2.5 -43.5v-35t-5 -35z" />
    <glyph glyph-name="otilde" unicode="&#xf5;" 
d="M270 219q-14 -7 -28.5 -10t-31.5 -5l-111 4q-13 8 -19 31l2 80q4 20 3.5 39t-1.5 39q3 15 21 19q17 2 36 -0.5t37 -4.5q21 2 39 1.5t39 -1.5q8 0 12 -9t8 -26q3 -22 1.5 -43.5t-2.5 -43.5v-35t-5 -35z" />
    <glyph glyph-name="uacute" unicode="&#xfa;" 
d="M270 219q-14 -7 -28.5 -10t-31.5 -5l-111 4q-13 8 -19 31l2 80q4 20 3.5 39t-1.5 39q3 15 21 19q17 2 36 -0.5t37 -4.5q21 2 39 1.5t39 -1.5q8 0 12 -9t8 -26q3 -22 1.5 -43.5t-2.5 -43.5v-35t-5 -35z" />
    <glyph glyph-name="ugrave" unicode="&#xf9;" 
d="M270 219q-14 -7 -28.5 -10t-31.5 -5l-111 4q-13 8 -19 31l2 80q4 20 3.5 39t-1.5 39q3 15 21 19q17 2 36 -0.5t37 -4.5q21 2 39 1.5t39 -1.5q8 0 12 -9t8 -26q3 -22 1.5 -43.5t-2.5 -43.5v-35t-5 -35z" />
    <glyph glyph-name="ucircumflex" unicode="&#xfb;" 
d="M270 219q-14 -7 -28.5 -10t-31.5 -5l-111 4q-13 8 -19 31l2 80q4 20 3.5 39t-1.5 39q3 15 21 19q17 2 36 -0.5t37 -4.5q21 2 39 1.5t39 -1.5q8 0 12 -9t8 -26q3 -22 1.5 -43.5t-2.5 -43.5v-35t-5 -35z" />
    <glyph glyph-name="udieresis" unicode="&#xfc;" 
d="M270 219q-14 -7 -28.5 -10t-31.5 -5l-111 4q-13 8 -19 31l2 80q4 20 3.5 39t-1.5 39q3 15 21 19q17 2 36 -0.5t37 -4.5q21 2 39 1.5t39 -1.5q8 0 12 -9t8 -26q3 -22 1.5 -43.5t-2.5 -43.5v-35t-5 -35z" />
    <glyph glyph-name="germandbls" unicode="&#xdf;" 
d="M270 219q-14 -7 -28.5 -10t-31.5 -5l-111 4q-13 8 -19 31l2 80q4 20 3.5 39t-1.5 39q3 15 21 19q17 2 36 -0.5t37 -4.5q21 2 39 1.5t39 -1.5q8 0 12 -9t8 -26q3 -22 1.5 -43.5t-2.5 -43.5v-35t-5 -35z" />
    <glyph glyph-name="Atilde" unicode="&#xc3;" 
d="M270 219q-14 -7 -28.5 -10t-31.5 -5l-111 4q-13 8 -19 31l2 80q4 20 3.5 39t-1.5 39q3 15 21 19q17 2 36 -0.5t37 -4.5q21 2 39 1.5t39 -1.5q8 0 12 -9t8 -26q3 -22 1.5 -43.5t-2.5 -43.5v-35t-5 -35z" />
    <glyph glyph-name="Otilde" unicode="&#xd5;" 
d="M270 219q-14 -7 -28.5 -10t-31.5 -5l-111 4q-13 8 -19 31l2 80q4 20 3.5 39t-1.5 39q3 15 21 19q17 2 36 -0.5t37 -4.5q21 2 39 1.5t39 -1.5q8 0 12 -9t8 -26q3 -22 1.5 -43.5t-2.5 -43.5v-35t-5 -35z" />
    <glyph glyph-name="OE" unicode="&#x152;" 
d="M270 219q-14 -7 -28.5 -10t-31.5 -5l-111 4q-13 8 -19 31l2 80q4 20 3.5 39t-1.5 39q3 15 21 19q17 2 36 -0.5t37 -4.5q21 2 39 1.5t39 -1.5q8 0 12 -9t8 -26q3 -22 1.5 -43.5t-2.5 -43.5v-35t-5 -35z" />
    <glyph glyph-name="oe" unicode="&#x153;" 
d="M270 219q-14 -7 -28.5 -10t-31.5 -5l-111 4q-13 8 -19 31l2 80q4 20 3.5 39t-1.5 39q3 15 21 19q17 2 36 -0.5t37 -4.5q21 2 39 1.5t39 -1.5q8 0 12 -9t8 -26q3 -22 1.5 -43.5t-2.5 -43.5v-35t-5 -35z" />
    <glyph glyph-name="ydieresis" unicode="&#xff;" 
d="M270 219q-14 -7 -28.5 -10t-31.5 -5l-111 4q-13 8 -19 31l2 80q4 20 3.5 39t-1.5 39q3 15 21 19q17 2 36 -0.5t37 -4.5q21 2 39 1.5t39 -1.5q8 0 12 -9t8 -26q3 -22 1.5 -43.5t-2.5 -43.5v-35t-5 -35z" />
    <glyph glyph-name="Ydieresis" unicode="&#x178;" 
d="M270 219q-14 -7 -28.5 -10t-31.5 -5l-111 4q-13 8 -19 31l2 80q4 20 3.5 39t-1.5 39q3 15 21 19q17 2 36 -0.5t37 -4.5q21 2 39 1.5t39 -1.5q8 0 12 -9t8 -26q3 -22 1.5 -43.5t-2.5 -43.5v-35t-5 -35z" />
    <glyph glyph-name="Acircumflex" unicode="&#xc2;" 
d="M270 219q-14 -7 -28.5 -10t-31.5 -5l-111 4q-13 8 -19 31l2 80q4 20 3.5 39t-1.5 39q3 15 21 19q17 2 36 -0.5t37 -4.5q21 2 39 1.5t39 -1.5q8 0 12 -9t8 -26q3 -22 1.5 -43.5t-2.5 -43.5v-35t-5 -35z" />
    <glyph glyph-name="Ecircumflex" unicode="&#xca;" 
d="M270 219q-14 -7 -28.5 -10t-31.5 -5l-111 4q-13 8 -19 31l2 80q4 20 3.5 39t-1.5 39q3 15 21 19q17 2 36 -0.5t37 -4.5q21 2 39 1.5t39 -1.5q8 0 12 -9t8 -26q3 -22 1.5 -43.5t-2.5 -43.5v-35t-5 -35z" />
    <glyph glyph-name="Aacute" unicode="&#xc1;" 
d="M270 219q-14 -7 -28.5 -10t-31.5 -5l-111 4q-13 8 -19 31l2 80q4 20 3.5 39t-1.5 39q3 15 21 19q17 2 36 -0.5t37 -4.5q21 2 39 1.5t39 -1.5q8 0 12 -9t8 -26q3 -22 1.5 -43.5t-2.5 -43.5v-35t-5 -35z" />
    <glyph glyph-name="Edieresis" unicode="&#xcb;" 
d="M270 219q-14 -7 -28.5 -10t-31.5 -5l-111 4q-13 8 -19 31l2 80q4 20 3.5 39t-1.5 39q3 15 21 19q17 2 36 -0.5t37 -4.5q21 2 39 1.5t39 -1.5q8 0 12 -9t8 -26q3 -22 1.5 -43.5t-2.5 -43.5v-35t-5 -35z" />
    <glyph glyph-name="Egrave" unicode="&#xc8;" 
d="M270 219q-14 -7 -28.5 -10t-31.5 -5l-111 4q-13 8 -19 31l2 80q4 20 3.5 39t-1.5 39q3 15 21 19q17 2 36 -0.5t37 -4.5q21 2 39 1.5t39 -1.5q8 0 12 -9t8 -26q3 -22 1.5 -43.5t-2.5 -43.5v-35t-5 -35z" />
    <glyph glyph-name="Iacute" unicode="&#xcd;" 
d="M270 219q-14 -7 -28.5 -10t-31.5 -5l-111 4q-13 8 -19 31l2 80q4 20 3.5 39t-1.5 39q3 15 21 19q17 2 36 -0.5t37 -4.5q21 2 39 1.5t39 -1.5q8 0 12 -9t8 -26q3 -22 1.5 -43.5t-2.5 -43.5v-35t-5 -35z" />
    <glyph glyph-name="Icircumflex" unicode="&#xce;" 
d="M270 219q-14 -7 -28.5 -10t-31.5 -5l-111 4q-13 8 -19 31l2 80q4 20 3.5 39t-1.5 39q3 15 21 19q17 2 36 -0.5t37 -4.5q21 2 39 1.5t39 -1.5q8 0 12 -9t8 -26q3 -22 1.5 -43.5t-2.5 -43.5v-35t-5 -35z" />
    <glyph glyph-name="Idieresis" unicode="&#xcf;" 
d="M270 219q-14 -7 -28.5 -10t-31.5 -5l-111 4q-13 8 -19 31l2 80q4 20 3.5 39t-1.5 39q3 15 21 19q17 2 36 -0.5t37 -4.5q21 2 39 1.5t39 -1.5q8 0 12 -9t8 -26q3 -22 1.5 -43.5t-2.5 -43.5v-35t-5 -35z" />
    <glyph glyph-name="Igrave" unicode="&#xcc;" 
d="M270 219q-14 -7 -28.5 -10t-31.5 -5l-111 4q-13 8 -19 31l2 80q4 20 3.5 39t-1.5 39q3 15 21 19q17 2 36 -0.5t37 -4.5q21 2 39 1.5t39 -1.5q8 0 12 -9t8 -26q3 -22 1.5 -43.5t-2.5 -43.5v-35t-5 -35z" />
    <glyph glyph-name="Oacute" unicode="&#xd3;" 
d="M270 219q-14 -7 -28.5 -10t-31.5 -5l-111 4q-13 8 -19 31l2 80q4 20 3.5 39t-1.5 39q3 15 21 19q17 2 36 -0.5t37 -4.5q21 2 39 1.5t39 -1.5q8 0 12 -9t8 -26q3 -22 1.5 -43.5t-2.5 -43.5v-35t-5 -35z" />
    <glyph glyph-name="Ocircumflex" unicode="&#xd4;" 
d="M270 219q-14 -7 -28.5 -10t-31.5 -5l-111 4q-13 8 -19 31l2 80q4 20 3.5 39t-1.5 39q3 15 21 19q17 2 36 -0.5t37 -4.5q21 2 39 1.5t39 -1.5q8 0 12 -9t8 -26q3 -22 1.5 -43.5t-2.5 -43.5v-35t-5 -35z" />
    <glyph glyph-name="Ograve" unicode="&#xd2;" 
d="M270 219q-14 -7 -28.5 -10t-31.5 -5l-111 4q-13 8 -19 31l2 80q4 20 3.5 39t-1.5 39q3 15 21 19q17 2 36 -0.5t37 -4.5q21 2 39 1.5t39 -1.5q8 0 12 -9t8 -26q3 -22 1.5 -43.5t-2.5 -43.5v-35t-5 -35z" />
    <glyph glyph-name="Uacute" unicode="&#xda;" 
d="M270 219q-14 -7 -28.5 -10t-31.5 -5l-111 4q-13 8 -19 31l2 80q4 20 3.5 39t-1.5 39q3 15 21 19q17 2 36 -0.5t37 -4.5q21 2 39 1.5t39 -1.5q8 0 12 -9t8 -26q3 -22 1.5 -43.5t-2.5 -43.5v-35t-5 -35z" />
    <glyph glyph-name="Ucircumflex" unicode="&#xdb;" 
d="M270 219q-14 -7 -28.5 -10t-31.5 -5l-111 4q-13 8 -19 31l2 80q4 20 3.5 39t-1.5 39q3 15 21 19q17 2 36 -0.5t37 -4.5q21 2 39 1.5t39 -1.5q8 0 12 -9t8 -26q3 -22 1.5 -43.5t-2.5 -43.5v-35t-5 -35z" />
    <glyph glyph-name="Ugrave" unicode="&#xd9;" 
d="M270 219q-14 -7 -28.5 -10t-31.5 -5l-111 4q-13 8 -19 31l2 80q4 20 3.5 39t-1.5 39q3 15 21 19q17 2 36 -0.5t37 -4.5q21 2 39 1.5t39 -1.5q8 0 12 -9t8 -26q3 -22 1.5 -43.5t-2.5 -43.5v-35t-5 -35z" />
    <glyph glyph-name="Eth" unicode="&#xd0;" 
d="M270 219q-14 -7 -28.5 -10t-31.5 -5l-111 4q-13 8 -19 31l2 80q4 20 3.5 39t-1.5 39q3 15 21 19q17 2 36 -0.5t37 -4.5q21 2 39 1.5t39 -1.5q8 0 12 -9t8 -26q3 -22 1.5 -43.5t-2.5 -43.5v-35t-5 -35z" />
    <glyph glyph-name="eth" unicode="&#xf0;" 
d="M270 219q-14 -7 -28.5 -10t-31.5 -5l-111 4q-13 8 -19 31l2 80q4 20 3.5 39t-1.5 39q3 15 21 19q17 2 36 -0.5t37 -4.5q21 2 39 1.5t39 -1.5q8 0 12 -9t8 -26q3 -22 1.5 -43.5t-2.5 -43.5v-35t-5 -35z" />
    <glyph glyph-name="Lslash" unicode="&#x141;" 
d="M270 219q-14 -7 -28.5 -10t-31.5 -5l-111 4q-13 8 -19 31l2 80q4 20 3.5 39t-1.5 39q3 15 21 19q17 2 36 -0.5t37 -4.5q21 2 39 1.5t39 -1.5q8 0 12 -9t8 -26q3 -22 1.5 -43.5t-2.5 -43.5v-35t-5 -35z" />
    <glyph glyph-name="lslash" unicode="&#x142;" 
d="M270 219q-14 -7 -28.5 -10t-31.5 -5l-111 4q-13 8 -19 31l2 80q4 20 3.5 39t-1.5 39q3 15 21 19q17 2 36 -0.5t37 -4.5q21 2 39 1.5t39 -1.5q8 0 12 -9t8 -26q3 -22 1.5 -43.5t-2.5 -43.5v-35t-5 -35z" />
    <glyph glyph-name="Scaron" unicode="&#x160;" 
d="M270 219q-14 -7 -28.5 -10t-31.5 -5l-111 4q-13 8 -19 31l2 80q4 20 3.5 39t-1.5 39q3 15 21 19q17 2 36 -0.5t37 -4.5q21 2 39 1.5t39 -1.5q8 0 12 -9t8 -26q3 -22 1.5 -43.5t-2.5 -43.5v-35t-5 -35z" />
    <glyph glyph-name="scaron" unicode="&#x161;" 
d="M270 219q-14 -7 -28.5 -10t-31.5 -5l-111 4q-13 8 -19 31l2 80q4 20 3.5 39t-1.5 39q3 15 21 19q17 2 36 -0.5t37 -4.5q21 2 39 1.5t39 -1.5q8 0 12 -9t8 -26q3 -22 1.5 -43.5t-2.5 -43.5v-35t-5 -35z" />
    <glyph glyph-name="Yacute" unicode="&#xdd;" 
d="M270 219q-14 -7 -28.5 -10t-31.5 -5l-111 4q-13 8 -19 31l2 80q4 20 3.5 39t-1.5 39q3 15 21 19q17 2 36 -0.5t37 -4.5q21 2 39 1.5t39 -1.5q8 0 12 -9t8 -26q3 -22 1.5 -43.5t-2.5 -43.5v-35t-5 -35z" />
    <glyph glyph-name="yacute" unicode="&#xfd;" 
d="M270 219q-14 -7 -28.5 -10t-31.5 -5l-111 4q-13 8 -19 31l2 80q4 20 3.5 39t-1.5 39q3 15 21 19q17 2 36 -0.5t37 -4.5q21 2 39 1.5t39 -1.5q8 0 12 -9t8 -26q3 -22 1.5 -43.5t-2.5 -43.5v-35t-5 -35z" />
    <glyph glyph-name="Thorn" unicode="&#xde;" 
d="M270 219q-14 -7 -28.5 -10t-31.5 -5l-111 4q-13 8 -19 31l2 80q4 20 3.5 39t-1.5 39q3 15 21 19q17 2 36 -0.5t37 -4.5q21 2 39 1.5t39 -1.5q8 0 12 -9t8 -26q3 -22 1.5 -43.5t-2.5 -43.5v-35t-5 -35z" />
    <glyph glyph-name="thorn" unicode="&#xfe;" 
d="M270 219q-14 -7 -28.5 -10t-31.5 -5l-111 4q-13 8 -19 31l2 80q4 20 3.5 39t-1.5 39q3 15 21 19q17 2 36 -0.5t37 -4.5q21 2 39 1.5t39 -1.5q8 0 12 -9t8 -26q3 -22 1.5 -43.5t-2.5 -43.5v-35t-5 -35z" />
    <glyph glyph-name="Zcaron" unicode="&#x17d;" 
d="M270 219q-14 -7 -28.5 -10t-31.5 -5l-111 4q-13 8 -19 31l2 80q4 20 3.5 39t-1.5 39q3 15 21 19q17 2 36 -0.5t37 -4.5q21 2 39 1.5t39 -1.5q8 0 12 -9t8 -26q3 -22 1.5 -43.5t-2.5 -43.5v-35t-5 -35z" />
    <glyph glyph-name="zcaron" unicode="&#x17e;" 
d="M270 219q-14 -7 -28.5 -10t-31.5 -5l-111 4q-13 8 -19 31l2 80q4 20 3.5 39t-1.5 39q3 15 21 19q17 2 36 -0.5t37 -4.5q21 2 39 1.5t39 -1.5q8 0 12 -9t8 -26q3 -22 1.5 -43.5t-2.5 -43.5v-35t-5 -35z" />
    </font>
</defs>
</svg>
