<?xml version="1.0" standalone="no"?>
<!DOCTYPE svg PUBLIC "-//W3C//DTD SVG 1.1//EN" "http://www.w3.org/Graphics/SVG/1.1/DTD/svg11.dtd" >
<svg xmlns="http://www.w3.org/2000/svg" xmlns:xlink="http://www.w3.org/1999/xlink" version="1.1">
<metadata>
Created by FontForge 20190801 at Sun May 13 10:12:19 2012
 By Jimmy Wärting
Copyright (c) 2012 COOP. All rights reserved.
</metadata>
<defs>
<font id="CoopNewTTCond" horiz-adv-x="373" >
  <font-face 
    font-family="CoopNewTTCond"
    font-weight="400"
    font-stretch="condensed"
    units-per-em="1000"
    panose-1="2 0 0 0 0 0 0 0 0 0"
    ascent="718"
    descent="-282"
    x-height="530"
    cap-height="730.5"
    bbox="-60 -206 984 924"
    underline-thickness="50"
    underline-position="-100"
    unicode-range="U+000D-FB02"
  />
<missing-glyph horiz-adv-x="500" 
d="M0 700h500v-700h-500v700zM420 650h-340l170 -255zM450 95v510l-170 -255zM420 50l-170 255l-170 -255h340zM50 95l170 255l-170 255v-510z" />
    <glyph glyph-name=".notdef" horiz-adv-x="500" 
d="M0 700h500v-700h-500v700zM420 650h-340l170 -255zM450 95v510l-170 -255zM420 50l-170 255l-170 -255h340zM50 95l170 255l-170 255v-510z" />
    <glyph glyph-name="NULL" horiz-adv-x="0" 
 />
    <glyph glyph-name="NULL" horiz-adv-x="0" 
 />
    <glyph glyph-name="nonmarkingreturn" unicode="&#xd;" horiz-adv-x="225" 
 />
    <glyph glyph-name="space" unicode=" " horiz-adv-x="175" 
 />
    <glyph glyph-name="percent" unicode="%" horiz-adv-x="603" 
d="M122 3q-11 2 -20.5 3.5t-16.5 4.5q13 29 27.5 59t30.5 62l38 88l42 84l34 80l40 84l37 94l31 69l23 57q3 8 7.5 15.5t9.5 14.5h29q8 1 14.5 2t14.5 0l31 -5q8 0 13 -2t10 -6l-29 -56l-17 -39l-44 -101l-33 -72l-55 -131l-52 -106l-46 -98q-12 -27 -22.5 -51.5
t-25.5 -50.5q-8 -2 -13.5 -1.5t-12.5 0.5q-23 -3 -45 2zM40 669q36 44 96 46q39 0 64.5 -17.5t39.5 -39.5q15 -29 20 -56.5t5 -56.5q-1 -35 -11 -59t-19 -44q-13 -26 -38.5 -38.5t-54.5 -13.5q-32 1 -55 12t-40 31q-17 23 -27.5 49.5t-8.5 61.5q-2 32 5 67t24 58zM95 554
q1 -11 4 -23t8 -22t13 -16t20 -6q10 0 18 7t12.5 17.5t7 22.5t2.5 22q0 28 -12 46q-5 7 -12 12.5t-18 5.5q-13 0 -21 -5.5t-13 -15.5t-7 -21.5t-2 -23.5zM368 275q36 44 96 46q39 0 64.5 -17.5t39.5 -39.5q15 -29 20 -56.5t5 -56.5q-1 -35 -11 -59t-19 -44
q-13 -26 -38.5 -38.5t-54.5 -13.5q-32 1 -55 12t-40 31q-17 23 -27.5 49.5t-8.5 61.5q-2 32 5 67t24 58zM425 160q1 -11 3.5 -22.5t7 -21t12.5 -15.5t20 -6q10 0 17.5 7t12 17t7 22t2.5 21q0 27 -12 45q-5 7 -12 12.5t-17 5.5q-12 0 -20 -5.5t-12.5 -15t-6.5 -21.5t-2 -23z
" />
    <glyph glyph-name="ampersand" unicode="&#x26;" horiz-adv-x="545" 
d="M204 276q-20 -9 -31 -27t-11 -38q0 -14 5 -28.5t14 -26t21.5 -19t27.5 -7.5q35 0 57 33l-44 60zM246 720q41 3 72 -9.5t63 -33.5q21 -19 36.5 -56t17.5 -73q2 -35 -8 -65t-26 -56q-16 -24 -34 -41.5t-37 -29.5l59 -77q9 10 19 24t18 24q8 -7 18.5 -18t19.5 -24
q12 -13 19 -20.5t17 -17.5q-2 -8 -7.5 -19t-13.5 -22l-23 -30l32 -44q4 -6 10.5 -14.5t13.5 -17.5t13.5 -17t9.5 -14q-8 -9 -17.5 -17t-19.5 -16q-11 -8 -21.5 -16t-22.5 -15q-7 -6 -13.5 -8t-14.5 -6q-9 9 -16 16.5t-14 17.5q-8 13 -14.5 20.5t-14.5 20.5
q-10 -18 -19.5 -27.5l-17.5 -17.5q-20 -17 -42.5 -22.5t-51.5 -4.5q-76 -1 -123 37q-11 7 -26 22t-24 30q-14 25 -24 53t-10 67q0 46 7.5 72t18.5 47q10 23 28 46.5t41 32.5q-7 8 -12 14.5t-9 12.5t-7.5 13t-7.5 17q-8 21 -13.5 45.5t-4.5 55.5q2 36 14 64t34 54
q23 18 53 30.5t75 12.5zM269 487q6 8 11 21.5t5 34.5q0 20 -12.5 31.5t-26.5 11.5q-16 -1 -24.5 -11t-10.5 -33q-1 -9 4.5 -23.5t12.5 -23.5l20 -29z" />
    <glyph glyph-name="quoteright" unicode="&#x2019;" horiz-adv-x="252" 
d="M54 659q2 16 2 31.5t-2 31.5q5 13 16 16q13 2 27.5 0t28.5 -4q16 2 29 1.5t30 -1.5q10 0 15 -28q2 -18 1 -29t-1 -29q0 -13 -0.5 -20.5t-2.5 -21.5v-6.5t-1 -6.5q-3 -8 -4.5 -17t-7.5 -21q-5 -8 -9 -17.5t-10 -17.5q-2 -7 -5 -12.5t-9 -13.5l-23 -38q-8 -2 -16 -3.5
t-17 0.5l-31 3q-4 -1 -6 5q5 10 11.5 19t9.5 19l14 37q3 11 9.5 24t6.5 24q-8 2 -20 1.5t-20 1.5q-6 4 -10.5 9t-6.5 15z" />
    <glyph glyph-name="parenleft" unicode="(" horiz-adv-x="426" 
d="M376 787q-23 -14 -38.5 -29t-26.5 -32t-19 -35t-17 -36q-15 -33 -24.5 -68t-15.5 -70q-7 -35 -9 -70.5t-3 -70.5q0 -93 20 -190q7 -48 27 -94.5t47 -91.5q13 -20 27.5 -35.5t36.5 -26.5q0 -7 -5.5 -10.5t-12.5 -6.5q-39 7 -75 21t-62 35q-29 16 -51 40.5t-43 56.5
q-29 61 -52.5 120.5t-25.5 118.5q-1 51 2.5 100t13.5 100q22 80 68 153q28 35 61 65t77 53q39 22 90 21q8 -8 10 -18z" />
    <glyph glyph-name="parenright" unicode=")" horiz-adv-x="385" 
d="M38 -60q23 13 38.5 28.5t26.5 32.5t19.5 35t17.5 36q14 33 23.5 68t14.5 70q7 35 8.5 70.5t3.5 70.5q0 48 -5.5 95t-13.5 95q-7 48 -27.5 94.5t-46.5 91.5q-14 20 -27.5 35.5t-35.5 26.5q1 7 6.5 10.5t12.5 6.5q38 -7 73.5 -21t61.5 -35q28 -16 50 -40.5t43 -56.5
q29 -61 51.5 -120.5t23.5 -118.5q2 -51 -1 -100t-14 -100q-12 -41 -28 -79t-39 -74q-28 -35 -61 -65t-76 -53q-37 -22 -87 -21q-6 5 -8 9t-4 9z" />
    <glyph glyph-name="asterisk" unicode="*" horiz-adv-x="342" 
d="M212 738q2 -10 1 -20.5t-3 -22.5q-1 -14 -4 -27t-8 -25q9 8 19.5 15t22.5 12q13 5 25 9t25 8q15 -18 17 -42q5 -11 8.5 -21.5t6.5 -21.5q-10 -4 -21.5 -6t-21.5 -4q-14 -4 -26.5 -5.5t-25.5 -3.5l42 -32q20 -9 28 -29q-13 -17 -31 -30q-16 -19 -34 -29l-12 10t-11 12
q-11 13 -20.5 26.5t-17.5 28.5l-34 -55q-5 -10 -11 -16.5t-14 -12.5q-9 5 -16.5 11.5t-15.5 14.5q-10 7 -19.5 15t-17.5 18q8 12 16.5 21.5t18.5 18.5q20 17 43 28q-29 4 -54 12q-14 2 -25 5.5t-22 8.5q3 10 6 19t10 20q3 12 6.5 22.5t11.5 20.5q13 -2 23.5 -6t21.5 -9
l32 -22q-5 13 -6.5 25t-3.5 24q-2 8 -1.5 16.5t2.5 17.5q11 3 22.5 2t22.5 -2q12 1 23 1h22z" />
    <glyph glyph-name="plus" unicode="+" horiz-adv-x="555" 
d="M216 89q-4 20 -3 42t2 46v90h-16t-21 0.5t-22.5 1t-20.5 1.5l-88 -2q-6 11 -4 25q-2 18 0 35q-3 12 -2.5 24t2.5 23q19 4 40.5 3t47.5 -2h84l1 114q0 16 0.5 32.5t4.5 30.5q10 10 21 8.5t22 -3.5l24 -2h17.5t16.5 -8q4 -7 4.5 -19.5t0.5 -22.5l-3 -130h8l113 -1
q16 0 32.5 -0.5t30.5 -4.5q8 -9 6.5 -20t-3.5 -22l-1 -23q0 -8 -0.5 -18t-8.5 -16q-7 -4 -18.5 -4.5t-22.5 -0.5l-130 2h-4v-17.5t-0.5 -22.5t-1 -24.5t-1.5 -22.5l1 -88q-11 -6 -25 -4q-18 -2 -35 0q-11 -4 -24 -3t-24 3z" />
    <glyph glyph-name="comma" unicode="," horiz-adv-x="251" 
d="M54 79q4 14 3 28t-1 28q2 11 18 14q14 1 24 -0.5t27 -3.5q17 2 28 1.5t28 -1.5q12 0 18 -25q2 -16 1 -31.5t-2 -31.5v-22.5t-3 -23.5q0 -4 -2 -12t-3 -15t-5 -14q-5 -8 -9 -18t-11 -18q-4 -7 -6 -12.5t-7 -13.5l-24 -39q-9 -2 -13 -3.5t-15 0.5l-35 3q-5 -1 -7 5
q13 19 21 39l15 38q5 11 8.5 22.5t5.5 22.5q-10 2 -21 1.5t-21 1.5q-5 4 -9.5 8.5t-4.5 13.5z" />
    <glyph glyph-name="hyphen" unicode="-" horiz-adv-x="338" 
d="M43 395q5 3 19.5 4t27.5 1l68 -4l50 1l51 -1q9 0 17.5 -1t16.5 -5q5 -11 4.5 -23t-1.5 -24l-3 -30q2 -8 0.5 -17.5t-4.5 -17.5q-3 -4 -10.5 -6.5t-13.5 -2.5l-59 2q-14 0 -29.5 0.5t-32.5 0.5q-11 -1 -23.5 -1t-29.5 2q-28 -1 -48 0q-1 7 -2 14.5t1 14.5q-3 20 0 41
q-2 13 -1.5 26t2.5 26z" />
    <glyph glyph-name="period" unicode="." horiz-adv-x="246" 
d="M192 9q-11 -5 -22.5 -7.5t-23.5 -4.5l-82 3q-11 6 -14 22l2 58q2 14 2 28t-2 28q6 11 16 14q13 1 27.5 -0.5t27.5 -3.5q16 2 28.5 1.5t29.5 -1.5q6 0 9 -6.5t5 -18.5q2 -15 1 -31l-2 -32v-25t-2 -24z" />
    <glyph glyph-name="slash" unicode="/" horiz-adv-x="434" 
d="M55 -1q-11 2 -21 3.5t-17 3.5q11 29 24.5 59.5t27.5 63.5l37 88l33 85l30 81l34 85l40 107l27 66l20 57q2 8 6.5 15.5t8.5 14.5l29 3q8 1 14.5 1h14.5l58 -5q13 0 23 -7l-24 -57l-15 -39l-38 -98l-34 -85l-48 -132l-42 -107l-41 -99q-11 -28 -19.5 -52.5t-22.5 -50.5
q-8 -2 -13.5 -2h-12.5q-6 -1 -17 -1h-23t-23 0.5t-16 1.5z" />
    <glyph glyph-name="zero" unicode="0" horiz-adv-x="462" 
d="M226 733q216 0 216 -359q0 -104 -13.5 -175.5t-40 -116.5t-66.5 -65t-93 -20q-50 0 -89 18.5t-65.5 60t-40.5 108.5t-14 164q0 194 48 291.5t158 93.5zM232 582q-21 0 -34 -18t-20.5 -49t-10 -73.5t-2.5 -91.5q4 -114 15.5 -169t51.5 -55q37 0 48.5 64.5t11.5 188.5
q0 26 -2 61t-8 66.5t-17.5 53.5t-32.5 22z" />
    <glyph glyph-name="one" unicode="1" horiz-adv-x="308" 
d="M134 708q15 2 34 4.5t36 2.5q30 0 54 -13q2 -9 2 -15.5v-17.5q5 -25 6.5 -49.5t1.5 -50.5l-2 -134l2 -116l-1 -122l1 -78l-3 -77q0 -14 -1 -24t-4 -15q-12 -2 -22 -1.5t-21 1.5q-15 -2 -34 -2t-33 2q-7 1 -13 2t-11 4q-3 7 -3 13.5t1 13.5l2 66l-3 65l1 70l2 73v89v45
q0 8 -3 11l-31 -40l-24 -31q-7 9 -17.5 24t-18.5 28l-22 29q-5 5 -6.5 12t-3.5 12q2 12 7 21t11 17l47 72l43 72z" />
    <glyph glyph-name="two" unicode="2" horiz-adv-x="401" 
d="M244 247q-4 -6 -10 -16t-12.5 -20.5t-12.5 -20.5t-9 -16q5 -5 13.5 -5.5t18.5 0.5l84 4h61q4 -11 4 -24.5t-2 -28.5l1 -77l1 -35q-2 -5 -6 -6t-11 -2l-57 2l-64 1l-86 -5l-44 5q-18 -3 -39 -2.5t-41 2.5q-10 12 -10 25q-1 11 -1.5 23t0.5 25l2 45l3 34q6 19 15 34.5
t20 30.5l50 82l47 77q7 11 14 23.5t13 28.5q6 13 9.5 31.5t3.5 36.5q0 24 -12.5 40t-26.5 16q-9 0 -16.5 -3t-16.5 -8q-14 -8 -21 -11.5t-18 -9.5q-9 -7 -16.5 -11.5t-18.5 -11.5q-5 -5 -9 -6.5t-11 0.5q-5 6 -6.5 12.5t-2.5 13.5q-2 16 -2 27.5t2 25.5l-2 46q0 9 -0.5 13
t-0.5 7.5t0.5 9.5t2.5 19q11 10 20.5 19t29.5 17t42.5 15.5t53.5 7.5q46 0 85 -16q23 -9 38.5 -22.5t26.5 -28.5q24 -30 31.5 -62.5t9.5 -66.5q-1 -29 -4 -54.5t-11 -49.5q-11 -30 -24 -57t-29 -53z" />
    <glyph glyph-name="three" unicode="3" horiz-adv-x="415" 
d="M33 722q39 12 92 7q17 1 33 -0.5t31 -6.5q29 -5 54.5 -17t49.5 -30q24 -21 40.5 -49.5t21.5 -63.5q4 -29 1 -55t-10 -52q-5 -18 -12 -31.5t-16 -24.5q5 -3 11 -9t11.5 -13.5t10 -15l7.5 -12.5q19 -23 26.5 -55t9.5 -73q2 -46 -13 -83t-29 -67q-15 -23 -32 -40t-38 -25
q-15 -5 -31.5 -6.5t-33.5 -2.5l-64 5l-87 -4l-44 8q-3 16 0 33l-1 72l1 62q11 3 19 2t19 -2q13 -5 26.5 -8.5t30.5 -4.5q14 -1 28.5 0t28.5 5q12 4 20 11.5t14 17.5q5 11 7 28.5t2 32.5q-2 13 -5.5 23t-11.5 17q-8 8 -15 11t-13 8l-39 8l-17 5q-2 13 -2 26v25q-2 11 -1 20.5
t1 20.5q-1 8 2.5 14.5t8.5 8.5q19 5 36 2q14 5 22.5 15.5t8.5 21.5q3 15 -3 33.5t-13 25.5q-5 7 -16 12.5t-23 5.5l-34 -3l-35 -4q-11 -1 -19.5 0.5t-13.5 8.5v19q-1 14 -1.5 27.5t1.5 27.5q-3 26 -2.5 45t0.5 43z" />
    <glyph glyph-name="four" unicode="4" horiz-adv-x="490" 
d="M292 667l59 39l16 6q5 3 13 1t10 -5q7 -31 6 -65t1 -65q-1 -46 0 -92v-61t2 -61l25 -5l43 -8q2 -32 0 -63q2 -16 2 -26t-2 -26l2 -29q1 -11 -5 -20.5t-16 -11.5q-11 0 -22 1t-22 5q-5 -14 -5.5 -28t-0.5 -28l1 -58l-2 -59q-4 -7 -10 -8.5t-13 -2.5l-55 5l-37 1
q-6 -2 -11 -3.5t-11 0.5q-2 7 -2.5 15.5t-0.5 15.5l-1 78v33v20.5t2 20.5q-9 2 -18.5 2t-18.5 -1l-85 -3l-67 -1l-44 6q-8 -2 -13.5 1.5t-11.5 10.5q0 20 2.5 40t5.5 37l23 126l26 122l23 114q2 20 5 41t8 41q8 5 21 6.5t24 -0.5q9 2 18 2t19 -2l42 -5q3 -1 5.5 -2t4.5 -6
q3 -11 2 -21.5t-2 -21.5l-16 -77l-16 -89l-9 -52l-15 -90q5 -2 15 -3t21 0q20 -1 44 5l3 68q1 14 0.5 27t-0.5 27v96q0 11 -1 23t1 26z" />
    <glyph glyph-name="five" unicode="5" horiz-adv-x="407" 
d="M31 720l86 4l106 -1l121 -1q6 -22 4 -48v-57v-51q-13 -7 -28.5 -8t-28.5 0l-70 3h-24t-24 -5q0 -5 -0.5 -15t-0.5 -20.5v-20v-14.5h21t20 -2l40 -8q15 -3 28 -9t25 -14q14 -12 24.5 -24t21.5 -26q9 -9 17.5 -28t13.5 -32q8 -23 11.5 -46t0.5 -46q0 -56 -13 -107
q-11 -30 -25 -53t-31 -43q-20 -14 -40.5 -24.5t-42.5 -12.5q-22 -5 -44.5 -9.5t-45.5 -3.5q-23 2 -44.5 3t-42.5 5q-28 9 -45 33q0 14 0.5 25t0.5 21.5v22t-1 25.5q-2 14 -0.5 28t3.5 28q3 12 18 9l34 -10q21 -8 41.5 -13t48.5 -10q17 0 27.5 5t18.5 13q19 19 19 60
q0 45 -23 71q-26 25 -65 22q-14 -1 -29 -2t-30 -6q-12 -2 -25 -4.5t-24 -9.5q-7 -4 -7 17q2 26 1.5 52t-2.5 52l-2 119l3 112z" />
    <glyph glyph-name="six" unicode="6" horiz-adv-x="438" 
d="M222 723q16 0 31 -0.5t31 -4.5q35 -2 65 -15q2 -11 4 -22.5t1 -25.5v-12.5v-8t-0.5 -7.5t-1.5 -11q1 -14 0.5 -28.5t-3.5 -28.5q-8 -2 -20 -1t-20 7q-11 4 -23 4.5t-24 0.5q-17 2 -27.5 -3t-20.5 -10q-15 -8 -25.5 -31t-15.5 -41q-5 -16 -7 -34t-4 -34q8 9 17 20t24 18
q15 11 31.5 15t33.5 2q42 -3 81 -32q28 -27 43 -62q30 -64 25 -129q1 -39 -6 -75.5t-18 -69.5q-8 -21 -19 -37t-25 -24q-21 -26 -49 -35.5t-61 -7.5q-70 2 -109 23q-20 17 -35.5 37.5t-27.5 43.5q-21 49 -31.5 102t-14.5 110q-2 50 1.5 98.5t14.5 96.5q8 34 18.5 64.5
t27.5 56.5q14 20 28 37.5t31 28.5q18 11 38 18.5t42 6.5zM223 336q-10 0 -20.5 -9.5t-19 -23t-14 -28.5t-5.5 -27q0 -15 4.5 -32t12 -31t17.5 -23t22 -9q10 0 19.5 9t17.5 23.5t13 32.5t5 37q0 33 -13 57t-39 24z" />
    <glyph glyph-name="seven" unicode="7" horiz-adv-x="385" 
d="M4 702q3 6 22 2t58 -1l90 2l90 1l74 1q11 2 21 3.5t20 -2.5q5 -10 5.5 -19.5t-0.5 -19.5v-59l-1 -67v-26q-4 -10 -6.5 -23.5t-7.5 -21.5l-35 -124l-44 -153l-30 -99l-22 -87q-3 -6 -9 -7.5t-14 -1.5l-74 2h-67q-8 0 -6 10l28 79q11 42 23.5 81.5t26.5 79.5l37 126l46 166
q-19 -3 -39.5 -3.5t-37.5 0.5l-95 -4q-13 -2 -26 -0.5t-26 4.5v14v7.5t-1 7.5t-2 14q1 39 0 78q-3 19 2 40z" />
    <glyph glyph-name="eight" unicode="8" horiz-adv-x="433" 
d="M212 730q80 -7 132 -47q28 -32 40 -68.5t13 -78.5q0 -23 -5 -45.5t-11 -45.5q-6 -17 -14 -29t-17 -21q19 -12 33 -30t26 -40q13 -28 18 -55.5t6 -55.5q-1 -50 -12.5 -87.5t-32.5 -69.5q-33 -35 -80 -50.5t-96 -15.5q-43 3 -80 17.5t-68 37.5q-57 64 -64 180
q1 36 8.5 69.5t27.5 63.5q12 18 27 33t33 25q-22 18 -36 51q-8 21 -11 42.5t-5 42.5q2 35 12.5 67t25.5 60q16 26 48 37t82 13zM214 596q-22 -1 -31.5 -21.5t-10.5 -55.5q2 -40 13.5 -55t28.5 -15q43 7 44 83q-2 29 -12.5 46t-31.5 18zM215 334q-32 0 -47.5 -28.5
t-17.5 -79.5q1 -43 18.5 -68.5t47.5 -24.5q64 3 65 100q1 45 -14 72.5t-52 28.5z" />
    <glyph glyph-name="nine" unicode="9" horiz-adv-x="432" 
d="M198 3q-17 0 -33.5 1.5t-33.5 5.5q-18 1 -39 11.5t-37 17.5q-2 11 -0.5 21.5t1.5 20.5q0 11 1.5 21t3.5 24q0 14 2.5 34t5.5 34q9 2 22 -3.5t21 -11.5q12 -4 23 -11.5t22 -7.5q19 -2 30 1t22 8q15 8 23.5 28.5t14.5 38.5q3 8 4 21.5t2 29.5q-8 -11 -19.5 -20.5
t-22.5 -14.5q-10 -7 -23.5 -9.5t-31.5 -2.5q-14 0 -30.5 12t-38.5 27q-15 14 -23 30t-16 34q-6 11 -10.5 29.5t-8.5 39.5t-6 42.5t-2 38.5q-1 39 6 65t19 59q10 21 19.5 37t24.5 24q21 20 50 29t58 9q35 -1 61 -12.5t47 -22.5q20 -17 34 -39.5t27 -45.5q11 -24 18.5 -46.5
t12.5 -45t7.5 -47t4.5 -52.5q2 -50 -1 -105.5t-14 -103.5q-8 -34 -19.5 -61t-28.5 -53q-14 -20 -30 -36t-34 -27q-19 -11 -40.5 -14t-44.5 -2zM202 401q13 0 23 7.5t16.5 19.5t10 26t3.5 26q0 31 -19 51.5t-39 20.5q-18 0 -33.5 -22.5t-15.5 -60.5q0 -12 5 -24t12.5 -21.5
t17 -16t19.5 -6.5z" />
    <glyph glyph-name="colon" unicode=":" horiz-adv-x="253" 
d="M197 9q-10 -5 -21 -7.5t-24 -4.5l-82 3q-11 6 -15 22l3 58q2 14 1.5 27.5t-1.5 27.5q5 11 17 14q12 2 26 0.5t27 -3.5q16 1 30 0.5t29 -0.5q9 0 14 -25q2 -16 1 -31.5t-1 -31.5q0 -12 -0.5 -24.5t-3.5 -24.5zM56 437q11 5 22.5 7t23.5 4l84 -2q11 -7 14 -23l-1 -57
q-3 -14 -3 -28t2 -28q-3 -12 -16 -13q-13 -2 -27.5 -0.5t-28.5 3.5q-15 -2 -29 -1.5t-29 1.5q-7 0 -10 6.5t-6 18.5q-2 15 -1 31t2 31v25.5t3 24.5z" />
    <glyph glyph-name="semicolon" unicode=";" horiz-adv-x="253" 
d="M53 438q6 8 20 8.5t26 2.5l83 -2q11 -7 14 -23l-1 -58q-3 -14 -3 -28t2 -28q-3 -11 -16 -14q-12 -2 -27 0t-28 4q-15 -2 -29 -1.5t-29 1.5q-7 0 -10 6.5t-6 18.5q-2 15 -1 31t3 32q0 12 -0.5 25t2.5 25zM56 90q1 8 1.5 13t0.5 8.5t-0.5 8.5t-0.5 13q3 13 18 16
q14 2 33.5 0t31.5 -4q13 2 24 1.5t24 -1.5q9 0 14 -29q1 -18 0.5 -25.5t-1.5 -25.5v-22t-2 -23v-6.5t-1 -6.5q-2 -8 -5.5 -19.5t-8.5 -17.5l-9 -18t-10 -18q-2 -7 -5 -12.5t-8 -13.5l-23 -39q-7 -2 -15.5 -3.5t-19.5 0.5l-29 3q-5 -1 -8 5q7 10 13.5 19.5t9.5 19.5l15 38
q5 11 8.5 22.5t5.5 22.5q-9 2 -20.5 1.5t-20.5 1.5q-10 6 -14 24z" />
    <glyph glyph-name="equal" unicode="=" horiz-adv-x="589" 
d="M43 255q19 4 41 3t47 -1l126 -2l94 1l94 -1q16 0 32.5 -0.5t30.5 -4.5q9 -9 8 -20t-1 -22l-1 -23v-18t-8 -17q-7 -3 -19 -3.5t-23 -0.5l-112 2q-30 0 -58.5 -0.5t-56.5 -0.5q-44 -1 -97 3l-89 -2q-7 13 -5 24q-1 10 -1.5 19t0.5 17q-7 22 -2 47zM46 486q19 4 41 3t47 -1
l126 -2l95 1l94 -1q16 0 32.5 -0.5t30.5 -4.5q9 -9 7.5 -20t-2.5 -22l-2 -24q0 -8 -0.5 -18t-8.5 -16q-7 -4 -19 -4.5t-23 -0.5l-112 2q-31 0 -59 -0.5t-57 0.5q-23 -2 -46.5 -1t-50.5 3l-89 -2q-7 14 -4 25q-3 19 0 36q-4 12 -3 24t3 23z" />
    <glyph glyph-name="question" unicode="?" horiz-adv-x="499" 
d="M254 9q-10 -5 -21.5 -7t-23.5 -4l-83 3q-11 5 -14 22l1 57q3 14 3 28t-2 28q3 11 16 14q12 2 26.5 0t28.5 -4q15 2 28.5 1.5t29.5 -1.5q6 0 9 -6.5t6 -17.5q2 -16 1 -31.5t-3 -31.5q0 -12 0.5 -24.5t-2.5 -25.5zM60 703q11 14 28.5 21t35.5 13q22 6 45.5 8t48.5 2
q23 1 45.5 -2t45.5 -8q23 -7 44.5 -18.5t44.5 -26.5q36 -35 48.5 -76t12.5 -89q0 -36 -9 -71t-23 -58q-17 -21 -35 -35.5t-39 -23.5q-17 -9 -32.5 -12t-34.5 -8q-11 -1 -21.5 -1t-18.5 4q1 -22 2 -48.5t-1 -49.5q-5 -6 -21 -7t-36 -1q-24 0 -42 2t-28 9q-8 17 -6 46l-1 91
q0 23 -0.5 46t2.5 44q6 6 15 5.5t17 -2.5q23 -8 62 -12q21 -4 37.5 0.5t29.5 15.5q11 11 15 26t5 34q0 17 -5 31.5t-14 22.5q-14 12 -27.5 18.5t-34.5 6.5q-38 0 -72 -13q-21 -6 -36.5 -10.5t-29.5 -4.5q-16 -2 -17 19l2 47z" />
    <glyph glyph-name="at" unicode="@" horiz-adv-x="760" 
d="M568 45l37 -45q-51 -40 -109.5 -61t-125.5 -17q-32 2 -62.5 10t-56.5 20q-42 18 -75 45t-59 65q-32 54 -49 109t-18 113q0 51 7 104t24 91q23 45 52.5 80t75.5 61q37 21 82 33t90 12q39 0 70.5 -5t57 -14t46 -21.5t37.5 -27.5q17 -16 29.5 -31t23 -30.5t20 -32.5
t18.5 -36q17 -39 23.5 -77t6.5 -78q2 -45 -3 -81.5t-25 -63.5q-21 -26 -54.5 -38.5t-71.5 -14.5q-46 0 -71 7.5t-44 29.5q-14 -15 -36 -23.5t-49 -7.5q-31 0 -52.5 10t-35.5 27q-20 28 -27.5 58t-7.5 63q-2 38 7 70.5t28 55.5q18 19 43 28.5t48 9.5q20 0 38.5 -7t31.5 -14
q0 6 2.5 10.5t5.5 9.5l29 1q23 4 51 -1q5 -20 5 -40q0 -19 -0.5 -38t1.5 -42l1 -73q1 -22 12 -30.5t27 -10.5q18 2 27.5 10t11.5 27q2 14 3 26t0 23q-4 57 -17 97t-30 66q-30 41 -74.5 69.5t-101.5 28.5q-57 2 -102 -19t-77 -60q-15 -19 -24.5 -42t-15.5 -48t-8.5 -50
t-2.5 -47q0 -57 20.5 -106.5t50.5 -80.5q29 -29 66.5 -47t80.5 -20q54 0 93.5 18t59.5 38zM423 310q-5 5 -18.5 8t-26.5 3q-23 0 -33.5 -14t-11.5 -34q1 -23 14 -35t35 -13q15 0 26.5 9.5t18.5 25.5q0 14 -0.5 25t-3.5 25z" />
    <glyph glyph-name="A" unicode="A" horiz-adv-x="516" 
d="M0 10q11 60 20.5 119.5t22.5 116.5q12 63 23 125.5t25 120.5q6 28 11.5 61.5t11 65.5t10.5 61t10 50q49 6 109 5t117 1q4 -21 10.5 -50t14 -60.5t15 -64t13.5 -62.5q14 -68 27.5 -132t29.5 -141q6 -28 12 -54t11 -53t11 -55.5t12 -61.5q-19 -1 -41 -1.5t-43 -0.5
t-38.5 1.5t-27.5 6.5q-10 30 -16 59t-14 62q-22 3 -41.5 3.5t-45.5 -0.5q-33 0 -53.5 -1t-28.5 -7q-5 -30 -11.5 -60t-13.5 -59q-34 -2 -71 -2t-71 7zM205 294q11 0 18.5 0.5t26.5 -0.5h27t22 2l-10.5 63t-12.5 63l-26 113h-5l-17 -105z" />
    <glyph glyph-name="B" unicode="B" horiz-adv-x="477" 
d="M35 240l-1 223l-4 262q20 4 38.5 4.5t37.5 -0.5l142 1q38 1 75 -10t64 -39q37 -38 47 -126q2 -59 -8 -94.5t-29 -58.5q37 -38 53 -88t17 -110q-4 -42 -13.5 -81t-34.5 -72q-40 -48 -99 -53q-26 -1 -52 -1.5t-53 0.5q-25 1 -51 1.5t-49.5 1t-43 2.5t-32.5 5zM191 453
q20 -1 29.5 -1t29.5 4q16 1 25.5 17t9.5 36q0 26 -14 42.5t-34 18.5l-48 1q-2 -24 -1 -58t3 -60zM191 161q9 -2 13 -3t7.5 -1.5t8 0t14.5 1.5l35 3q18 6 28.5 24t10.5 45q0 29 -12 45t-24 23q-10 3 -19 5t-31 1l-33 -3v-71z" />
    <glyph glyph-name="C" unicode="C" horiz-adv-x="440" 
d="M10 366q0 79 15 142t37 104q23 42 54.5 64t65.5 36q33 14 68.5 17.5t56.5 5.5q11 1 27 0l32 -2q18 -2 39 -3q1 -8 2 -24t1 -32.5v-29t-1 -12.5q1 -2 1 -11.5v-21.5v-23t-1 -17h-62q-24 0 -52 -6t-45 -17q-8 -5 -19 -17t-21 -31.5t-17 -46t-7 -59.5q0 -38 3.5 -63.5
t9.5 -43t13.5 -29t14.5 -21.5q14 -20 36 -32.5t43 -12.5q14 0 32.5 -0.5t32.5 0.5l49 -1q1 -12 1.5 -41t0.5 -53v-20.5v-27t-0.5 -23.5t-1.5 -11t-18.5 -2t-41.5 -1h-29.5h-35.5t-34.5 0.5t-26.5 2.5q-30 5 -66 18t-63 42q-30 32 -46.5 67.5t-23.5 68.5t-15 74t-8 93z" />
    <glyph glyph-name="D" unicode="D" horiz-adv-x="511" 
d="M38 5q-1 57 -1 102q0 19 -0.5 37.5t-0.5 33v23.5v9v9.5t-0.5 25t-0.5 35v39.5v108l-4 243q-1 14 -1 26v19.5t1 12.5q1 1 14 2.5t30.5 2.5t35.5 1h28l117 1q28 0 55 -8.5t49.5 -22.5t40 -31.5t28.5 -35.5q29 -47 45 -88.5t21 -86.5q3 -25 4.5 -57.5t1.5 -77.5
q0 -18 -2 -39.5t-5 -41.5t-6 -36t-4 -22q-3 -14 -10 -31.5t-17 -35.5t-21.5 -34.5t-24.5 -28.5q-26 -23 -62 -38.5t-74 -19.5q-14 -2 -38 -2.5t-47 -0.5h-57q-16 0 -40.5 1t-54.5 7zM198 183q12 -4 29.5 -4t31.5 4q8 2 15.5 3.5t15 4.5t15 9.5t16.5 18.5q8 11 13 31t7.5 44
t2.5 49t-1 45q-3 38 -15.5 76t-26.5 62q-13 22 -30 28t-34 6q-6 0 -17.5 -0.5t-24.5 -3.5v-206z" />
    <glyph glyph-name="E" unicode="E" horiz-adv-x="456" 
d="M33 731q75 1 151.5 -0.5t151.5 -2.5q25 0 48.5 2.5t49.5 1.5q0 -47 1 -84t-1 -79q-23 -6 -48 -5t-47 0q-17 0 -28 -0.5t-21.5 -1t-22 -0.5t-27.5 1q-8 1 -20.5 0t-17.5 -6q0 -23 0.5 -56t-0.5 -56q15 0 27.5 -0.5t27.5 0.5q30 2 49.5 2.5t49.5 0.5q1 -13 2 -36t1 -47.5
t-1.5 -45t-3.5 -28.5q-44 1 -76.5 0.5t-76.5 -1.5q-2 0 -2.5 -16.5t-0.5 -37.5t0.5 -41t0.5 -26h61t56 -0.5t56 -1.5t61 -2q5 -46 2.5 -92t-4.5 -75q-19 -2 -37.5 -1t-37.5 2q-20 1 -41 0t-41 1q-10 2 -18.5 0t-19.5 -1q-15 1 -30 1.5t-31 -0.5t-32.5 -1h-31h-26h-15.5h-6
t-10 1l-14 2q-3 36 -3 70t-1 70q0 16 -0.5 29.5t-0.5 26.5v26.5v30.5q-1 18 -1.5 42t-0.5 42q2 49 0 96.5t-2 95.5q-1 48 -1 100.5t3 99.5z" />
    <glyph glyph-name="F" unicode="F" horiz-adv-x="426" 
d="M36 2q0 7 1.5 13t1.5 13q0 27 -1 58.5t-1 56.5q0 26 -1.5 50.5t-1.5 50.5q2 37 0.5 71.5t-0.5 71.5q-1 25 -1.5 45t-0.5 39v39.5v45.5q2 27 1 51.5t-3 51.5q0 5 0.5 15t1 21t1.5 20.5t2 13.5q47 0 93.5 -2t94.5 -2q48 2 94.5 3t94.5 1q5 -5 4 -21t-1 -23v-23.5v-39.5
t-1 -39.5t-4 -22.5h-23h-18h-18.5h-22.5q-29 2 -52.5 3t-49.5 -1q-3 0 -16 -2t-18 -2q0 -15 0.5 -34t0.5 -38.5t0.5 -38t0.5 -33.5q1 -3 10 -4t22 -1t28.5 0.5t29.5 -0.5q5 0 6 -0.5l1 -0.5l1 0.5t5 0.5q11 1 27.5 0.5t28.5 -0.5q2 -44 2.5 -78t-1.5 -75q-14 -2 -23.5 -3
t-18 -1h-17.5h-22l-11 0.5t-24.5 0.5t-25.5 -0.5t-16 -3.5v-25v-31v-36.5v-36.5v-31v-19.5t-0.5 -28t-1.5 -26t-2 -13.5q-16 -1 -36.5 -1.5t-41.5 -0.5h-41.5t-36.5 2z" />
    <glyph glyph-name="G" unicode="G" horiz-adv-x="518" 
d="M483 12q-20 -4 -46.5 -2.5t-45.5 1.5q-5 0 -12.5 -2t-16 -4.5t-15 -5t-7.5 -2.5q-16 -5 -26.5 -8t-20.5 -5t-20.5 -2.5t-26.5 -0.5q-32 0 -60.5 11t-52.5 28q-8 6 -20 19t-23.5 28t-21.5 30t-14 26q-12 25 -20 49.5t-12.5 53t-7 63.5t-4.5 81q0 42 8 89.5t23 90.5
t35.5 77t46.5 51q18 14 41 27.5t48 18.5q2 0 8.5 1.5t15.5 3t18.5 3t17.5 2.5q17 1 39 2t45 0t46.5 -4t43.5 -8q3 -10 3 -29.5v-30.5q-2 -19 -2 -31v-22t-0.5 -20.5t-2.5 -26.5q-47 -5 -85 -3.5t-70 -6.5q-26 -6 -42 -15.5t-25 -23.5q-20 -31 -30.5 -69.5t-9.5 -101.5
q0 -8 1 -20.5t2.5 -25.5t3 -24.5t3.5 -17.5q3 -15 8.5 -33.5t14.5 -35t22.5 -28t33.5 -11.5q16 -1 28 8t19.5 24t11.5 35t5 43q-9 2 -14.5 0t-16.5 -2q-3 0 -10 0.5t-14.5 0.5t-15 0.5t-10.5 0.5q0 8 -1.5 17t-2.5 17q-3 17 -2 30.5t0 31.5q0 19 0.5 28t0.5 28q15 0 37 1.5
t37 -0.5q42 -4 80.5 -1.5t77.5 0.5q2 -11 3.5 -43.5t2 -75.5t0.5 -90.5t-0.5 -88t-1.5 -68.5t-2 -32z" />
    <glyph glyph-name="H" unicode="H" horiz-adv-x="541" 
d="M30 724q18 5 38 6t41 1q7 0 18 -0.5t22 -0.5t22 -0.5t18 -0.5q2 -5 1.5 -17.5t-0.5 -17.5q3 -52 4 -109.5t1 -112.5q24 -5 48.5 -6t50.5 -1q9 0 26 -2t24 1q5 2 6 37q1 14 0.5 26.5t-0.5 26.5q-1 48 -1 87v87q16 2 36.5 3.5t42 2t42 -0.5t37.5 -4q1 -45 1 -91t1 -91
q-1 -45 -0.5 -88.5t0.5 -88.5v-87t2 -86q0 -37 -1 -74t-1 -74v-27t-2 -26q-34 -1 -75 1t-75 2q-5 26 -5 59v64q0 38 -0.5 77t-0.5 77q-40 2 -78.5 3t-78.5 1q-1 -9 -1.5 -22.5t-0.5 -27t0.5 -26t1.5 -20.5q0 -49 0.5 -90.5t-0.5 -85.5q-6 -5 -25 -6t-42 -1t-46.5 1t-39.5 2
q-3 6 -4 16.5t-1 13.5q-1 66 -1 128.5v127.5q1 27 0.5 60t-1.5 59q0 26 -0.5 43.5t-0.5 43.5q-2 24 -1 50.5t2 50.5q1 32 -1.5 63.5t-2.5 63.5z" />
    <glyph glyph-name="I" unicode="I" horiz-adv-x="247" 
d="M40 728q1 2 22.5 2.5t47.5 -0.5h29h30h24h10v-16t-0.5 -37l-1 -42t-0.5 -33v-38v-54.5v-53.5t1 -34q0 -6 0.5 -23t1 -39t0.5 -46.5v-46v-37.5v-20q0 -7 0.5 -25t1 -38.5t0.5 -38v-23.5t0.5 -18.5t0.5 -25.5v-23.5t-1 -12.5t-6.5 -3.5t-12.5 -2.5t-14 -1.5t-10 -0.5h-14.5
t-25 -0.5t-25.5 -1t-16 -0.5q-9 0 -22 1t-15 7q-1 3 -1.5 24.5t-0.5 48v50.5v33v35.5v58v61.5v45v48.5v68.5t-0.5 62.5t-0.5 31.5t-0.5 28.5t-0.5 53t-0.5 52t-0.5 24.5z" />
    <glyph glyph-name="J" unicode="J" horiz-adv-x="361" 
d="M165 721q2 8 6 11t6 3q13 0 32.5 0.5t39.5 1t38 0t28 -1.5q5 -57 5 -108.5t-1 -108.5q0 -54 0.5 -106t0.5 -106q0 -22 0.5 -42.5t0.5 -42.5q0 -41 -4 -74t-9 -55q-37 -86 -118 -93q-20 -2 -30 -1.5t-30 0.5q-24 2 -55.5 5.5l-58.5 6.5q-2 25 -3 41t-2 41v13t1 9.5t1.5 10
t0.5 13.5q0 2 1 12t3 12q2 3 14 3t26.5 -0.5t28 -1.5t17.5 -1q5 0 19 1.5t20 6.5q13 8 16.5 33t5.5 73q0 41 -0.5 91t-0.5 91q1 39 -0.5 69t-1.5 70v24t0.5 18t0.5 17v21v20.5t2 23.5z" />
    <glyph glyph-name="K" unicode="K" horiz-adv-x="546" 
d="M36 725q5 0 13 1t13 1q4 0 20.5 0.5t36 0.5t36 -0.5t19.5 -2.5q3 -1 4.5 -20.5t2.5 -47.5t1 -61.5v-64v-53.5v-31q6 7 11 15t10 15q8 11 18.5 26t20 31t18.5 30t14 22q15 19 31.5 47.5t33.5 46.5q2 2 7 9t10.5 15t10 14.5t6.5 7.5q12 3 20.5 3.5t16.5 0.5t16.5 -1
t19.5 -2q13 -1 31.5 -1.5t30.5 -1.5q1 0 6.5 -1t12 -2.5t12 -2.5t7.5 -2q-5 -12 -15.5 -31t-22.5 -39t-23.5 -38t-17.5 -29q-4 -8 -15 -25.5t-23.5 -36.5t-23.5 -34.5t-15 -20.5q8 -29 20.5 -60.5t20.5 -63.5q7 -26 16 -45t17 -42q8 -22 13 -43.5t13 -42.5q7 -20 13.5 -39.5
t11.5 -39.5q4 -14 10 -27t10 -26q1 -5 2.5 -14t1.5 -14q-15 -3 -36 -4t-43 -0.5t-43 1t-37 0.5q-6 11 -11 20t-10 23q-9 28 -16 48.5t-16 48.5q-3 7 -8 23t-10 26q-5 23 -16.5 54t-22.5 59q-20 -26 -41 -54.5t-46 -51.5q0 -38 1 -80t-1 -80q-1 -8 -2.5 -17t-4.5 -17
q-14 -3 -32 -3.5t-36.5 -0.5t-37.5 1t-35 2q-1 7 -1.5 33t-1 57t-0.5 60v42q-1 22 -1 49t0.5 55.5l1 57t0.5 54.5q-1 44 -1 86.5v86.5q0 1 -0.5 14t-0.5 30.5v36t1 30.5q1 9 1.5 14t2.5 16z" />
    <glyph glyph-name="L" unicode="L" horiz-adv-x="425" 
d="M95 733h21.5t26 -0.5t26 -2t20.5 -3.5q3 -48 2.5 -92.5t-0.5 -89.5q2 -34 1.5 -67t-1.5 -67l4 -130q0 -12 0.5 -28t1 -33.5t1 -33.5t2.5 -26q17 -5 34 0q36 0 72.5 -0.5t72.5 -0.5q8 0 17 -0.5t17 -2.5q1 -11 1 -19.5v-16t-0.5 -16t-0.5 -19.5q1 -24 1.5 -42t-0.5 -40
q-30 -3 -58.5 -3.5t-57.5 -1.5l-133 3q-32 -2 -64 -2.5t-62 3.5q-8 10 -5 22l-1 128l1 148l-2 141q1 30 1.5 60.5t-1.5 60.5l-2 129q1 19 6 36q16 4 30 4.5t29 1.5z" />
    <glyph glyph-name="M" unicode="M" horiz-adv-x="634" 
d="M44 741h45.5t45.5 -2l107 -1l21 -66q3 -17 10 -41t15 -48.5t15.5 -46t12.5 -33.5q7 23 14.5 53t15.5 61.5t15.5 61.5t15.5 53q26 3 52 2.5t52 -1.5q28 1 60.5 2.5t60.5 -2.5q2 -52 2 -103.5t-1 -103.5l-1 -193l1 -234q0 -24 -1 -48.5t1 -48.5q-10 -5 -20.5 -4.5
t-20.5 0.5q-14 -1 -35.5 -1.5t-35.5 1.5q-8 0 -16.5 0.5t-19.5 3.5q-1 22 -1 40v35.5t0.5 35.5t0.5 40l-2 188q0 26 -0.5 52t-2.5 52q-11 -30 -18 -60.5t-15 -60.5l-38 -140q-7 -23 -14.5 -46.5t-14.5 -43.5q-9 -4 -30 -2.5t-33 3.5q-11 32 -20 67.5t-17 67.5l-39 125
l-29 92q-5 -38 -4 -74.5t1 -77.5q0 -42 0.5 -82.5t-0.5 -82.5q0 -34 1 -67t-4 -64l-59 -1q-19 -2 -42 -1.5t-40 5.5l-3 189l1 166l-3 191l2 179l3 12z" />
    <glyph glyph-name="N" unicode="N" horiz-adv-x="515" 
d="M31 730q14 4 30 4.5t34 -0.5q22 2 48 2.5t46 -1.5q18 -26 32 -54t27 -57q14 -29 26.5 -58.5t27.5 -58.5q8 -20 15.5 -37.5t15.5 -35.5q1 2 1.5 15t0.5 30.5v37v35.5q-1 55 0 113v31t2 31q14 4 27.5 5t30.5 -1l49 1q8 0 19.5 -0.5t17.5 -4.5q3 -29 2.5 -59t-0.5 -59
q1 -75 0 -152q1 -60 0 -119l1 -159q2 -58 0 -115q1 -14 0.5 -30t-1.5 -30q-9 -2 -22 -3.5t-21 0.5l-42 -2l-47 3l-44 119q-11 29 -22 55.5t-22 54.5q-12 28 -23.5 55.5t-21.5 52.5q-9 23 -18 44t-18 41q-3 -13 -3.5 -41.5t-0.5 -57.5l1 -118q1 -59 0 -117q1 -21 0.5 -42.5
t-1.5 -41.5q-2 -3 -8.5 -4.5t-8.5 -0.5l-66 -2q-16 -1 -31 -0.5t-28 4.5q-3 38 -3 74.5v74.5q-2 94 0 184q-1 38 -1 77v77v100t-2 100z" />
    <glyph glyph-name="O" unicode="O" horiz-adv-x="533" 
d="M263 562q-25 0 -44.5 -16.5t-33 -43.5t-20.5 -61t-7 -70q0 -25 6 -57.5t18.5 -61t31 -48.5t42.5 -20q26 0 46 16.5t33.5 43.5t20 60.5t6.5 68.5q0 31 -4.5 63.5t-15.5 59.5t-30 45t-49 21zM522 371q-1 -36 -5 -74.5t-12.5 -75t-21 -69.5t-29.5 -58q-38 -53 -78.5 -75.5
t-92.5 -26.5q-32 0 -58.5 4.5t-51 17t-47.5 35t-48 58.5q-36 66 -52 132t-16 129q2 82 16 150.5t55 125.5q30 44 77.5 70.5t101.5 28.5q24 0 49.5 -5t48 -14.5t41 -23t29.5 -29.5q45 -55 70.5 -131t23.5 -169z" />
    <glyph glyph-name="P" unicode="P" horiz-adv-x="512" 
d="M35 725q3 1 16.5 3t32 3t40 1.5t39.5 0.5l147 2q39 -1 68.5 -13.5t52.5 -35.5q23 -28 38.5 -60t24.5 -68q5 -18 5.5 -36t0.5 -36q4 -48 -4 -75.5t-20 -51.5q-11 -27 -27.5 -44.5t-39.5 -28.5q-20 -13 -40.5 -17t-40.5 -5q-26 -2 -52 -3t-50 3q-18 -2 -36 0l-4 -147v-57.5
t-1 -56.5q-15 -3 -36 -4.5t-37 0.5h-39.5t-37.5 2l-4 154q3 117 0 236q-1 112 0 224q2 28 1.5 55.5t2.5 54.5zM241 420q13 1 25.5 1.5t27.5 -1.5q24 0 36 17q7 11 11 24.5t4 29.5q0 8 -3 23t-8 23q-14 23 -34 20q-11 1 -22 1.5t-22 -1.5q-15 1 -33.5 1.5t-34.5 -0.5v-40
q-2 -23 -1.5 -51t2.5 -45z" />
    <glyph glyph-name="Q" unicode="Q" horiz-adv-x="533" 
d="M522 367q-2 -71 -14.5 -136t-43.5 -118l22 -44q10 -18 18.5 -35.5t16.5 -37.5q-10 -11 -24 -22.5t-26 -20.5q-17 -13 -31 -23t-27 -15q-6 12 -9.5 19.5t-7.5 14t-8 14t-10 20.5q-9 13 -15 29q-18 -10 -40.5 -14.5t-42.5 -6.5q-63 0 -115 27t-87 89q-36 66 -52 132
t-16 129q1 41 3.5 76t10 67.5t21.5 65t38 67.5q15 22 36 40t45.5 31.5t51 21t53.5 8.5q49 0 93.5 -23.5t67.5 -56.5q45 -55 69.5 -130t22.5 -168zM262 560q-25 0 -44 -16.5t-32 -42.5t-20 -60t-7 -70t6 -69.5t18 -60t30 -42.5t42 -16q52 0 78 53t26 137q0 31 -4 63
t-14.5 58.5t-29.5 44.5t-49 21z" />
    <glyph glyph-name="R" unicode="R" horiz-adv-x="534" 
d="M322 734q21 -2 44 -4.5t37 -9.5q26 -13 50 -38t35 -57q13 -34 18.5 -67t8.5 -67q1 -48 -6 -85t-19 -62q-21 -33 -32 -48t-22 -26l37 -102l47 -119q5 -12 8.5 -24.5t5.5 -24.5l-51 -4q-32 -1 -62 0q-5 1 -19.5 3t-21.5 5q-15 35 -26 65.5t-22 62.5l-37 101q-2 5 -3.5 9.5
t-6.5 6.5q-14 -2 -33 -2.5t-33 0.5q-9 1 -18 1.5t-18 -1.5q-2 -32 -2 -54.5v-42.5q2 -52 0 -103q0 -26 -3 -47q-14 -4 -31.5 -5.5t-31.5 -0.5q-15 -2 -29.5 -2t-29.5 2q-18 -1 -21 10q-6 34 -3 72l-2 225l2 176v126q0 18 -1 36.5t-1 36.5t1 33.5t4 26.5q33 5 71 4.5t71 1.5z
M181 413q19 -4 42 -4.5t42 0.5q13 -2 21.5 -1t21.5 1q11 2 20.5 5t13.5 11q8 8 10.5 26.5t1.5 32.5q0 20 -6.5 41.5t-16.5 29.5q-6 2 -13.5 4t-16.5 3q-12 2 -23.5 2h-23.5q-15 1 -35 1.5t-35 -1.5q-2 -17 -2.5 -40.5t-0.5 -40.5v-70z" />
    <glyph glyph-name="S" unicode="S" horiz-adv-x="473" 
d="M402 635q2 -20 1 -36t-3 -36q-26 -1 -43 0t-43 2q-26 -1 -42 -1t-36 2q-18 1 -29 -8.5t-11 -25.5q0 -37 33 -44l54 -19q23 -6 38.5 -13t36.5 -17q40 -23 67 -60q18 -27 25.5 -55t9.5 -61q2 -23 2.5 -44.5t-1.5 -42.5q-3 -32 -10.5 -56.5t-16.5 -45.5q-11 -23 -31 -38.5
t-42 -29.5q-18 -5 -36.5 -9.5t-38.5 -3.5l-130 1l-87 1q-12 1 -24 2.5t-23 4.5q-2 26 -2 48t1 46l2 54q0 8 0.5 14.5t2.5 14.5q23 -6 40 -6t43 -2q17 -2 31.5 -1.5t34.5 0.5l62 4q14 0 25 3t16 9q6 7 11.5 16.5t5.5 25.5q0 13 -7 26t-15 20q-6 5 -22 10.5t-28 9.5
q-15 5 -30.5 10t-30.5 13l-46 23q-16 10 -29.5 22.5t-26.5 28.5q-8 11 -16 30t-12 39q-8 43 -8 82q-1 20 1 36.5t6 39.5q8 23 21.5 48.5t28.5 38.5q14 13 26.5 20t26.5 12q9 5 30.5 6.5t38.5 -0.5q18 2 35.5 1.5t35.5 -1.5q31 -1 61.5 -2t62.5 -6z" />
    <glyph glyph-name="T" unicode="T" horiz-adv-x="449" 
d="M4 730q19 4 37 4t38 -2l92 -3l119 3l82 -1l73 3q4 -39 3 -74v-61l-2 -29q-11 -5 -21.5 -6t-21.5 -1q-37 -1 -74 0l-29 -2v-65l3 -192l2 -181q1 -29 1.5 -47.5t0.5 -31.5t-1 -23.5t-1 -22.5q-29 -5 -60 -6l-78 1q-11 -3 -11 7q-3 34 -3.5 68t-0.5 68v176l-3 149
q-1 24 -1 47.5t-2 49.5l-54 1q-25 0 -47.5 2t-42.5 4l-1 55l-1 43q0 17 0.5 34.5t3.5 32.5z" />
    <glyph glyph-name="U" unicode="U" horiz-adv-x="503" 
d="M33 728l30 4t31 0q13 2 35 2.5t35 -0.5q6 0 11.5 -1t11.5 -3q2 -24 1.5 -48t-0.5 -48q2 -45 3 -88t-1 -88v-155q-1 -22 1 -41.5t5 -41.5q2 -18 6.5 -31.5t15.5 -19.5q6 -5 15 -8.5t20 -3.5q12 -1 20 3t16 11q8 8 15 26.5t8 37.5q1 15 1.5 26.5t0.5 23v24t-1 27.5v156
l-2 107l-2 123l2 11q12 5 26 5.5t28 0.5l66 -3l38 -2l3 -81l-1 -134l1 -142v-133q1 -38 -2 -73.5t-11 -69.5q-9 -35 -27.5 -58t-44 -36.5t-57 -18.5t-65.5 -5q-38 1 -73.5 4.5t-65.5 15t-52 34t-31 63.5q-1 10 -2.5 19t-3 19.5t-2 24t-0.5 33.5v123q-2 47 -2 90.5v90.5
l-2 136v45t2 47z" />
    <glyph glyph-name="V" unicode="V" horiz-adv-x="520" 
d="M2 731q15 4 28 2t27 -4l47 2q10 2 25.5 1t26.5 -3q6 -23 11.5 -46.5t9.5 -48.5l30 -152l21 -98q6 -27 12.5 -53.5t13.5 -52.5q9 28 15.5 55t12.5 55q8 29 13.5 58t14.5 58l14 72t15 72q4 20 9.5 41t12.5 41q15 3 29.5 5t30.5 -1l64 2q16 1 35 -5q-14 -56 -27.5 -113
t-28.5 -114q-14 -64 -27.5 -127.5t-29.5 -125.5q-8 -40 -16.5 -79.5t-19.5 -79.5q-3 -25 -8.5 -48.5t-11.5 -43.5q-18 -2 -38 -2t-34 2q-17 -2 -33 -2.5t-33 0.5q-11 1 -27.5 0t-27.5 5l-31 128l-46 221l-42 188q-9 42 -16 83.5t-21 83.5q-3 10 0 24z" />
    <glyph glyph-name="W" unicode="W" horiz-adv-x="722" 
d="M0 725l26 4t27 0l59 5l40 -2q8 -27 13 -54l10 -54l20 -122q5 -32 9.5 -63.5t12.5 -61.5l26 96l25 94l21 86q2 17 5.5 34t11.5 37l54 8q14 0 27 -0.5t25 -4.5l18 -84l21 -126l22 -130l41 140l30 123q6 20 12 39.5t14 39.5q31 7 61 3l85 -2q8 -2 5 -11q-2 -22 -9.5 -45
t-15.5 -47l-33 -134l-38 -132l-45 -172l-44 -168q-2 -13 -8 -19q-9 -5 -23 -5.5t-22 0.5l-57 1l-18 2t-18 3q-5 20 -7 38l-4 36l-18 102q-4 27 -7.5 54t-11.5 54q-5 -14 -10.5 -29.5t-8.5 -29.5l-27 -103l-17 -61q-5 -17 -10 -33.5t-10 -30.5q-18 -5 -36 -2h-59l-36 2
q-9 23 -14 49.5t-9 53.5l-21 142l-28 159l-25 151l-19 101q-5 17 -8 34.5t-4 34.5z" />
    <glyph glyph-name="X" unicode="X" horiz-adv-x="550" 
d="M0 726q16 7 36 7.5t41 0.5q14 0 28.5 -1t28.5 -3q9 1 17.5 2t17.5 -3q11 -13 17.5 -28.5t14.5 -30.5l37 -74l34 -67l35 70l34 72q10 34 27 59q20 3 38.5 4t37.5 0q17 2 33.5 3.5t33.5 1.5q11 2 21 -1t18 -8q-8 -24 -23.5 -52t-25.5 -51q-12 -23 -22 -43.5t-24 -46.5
q-9 -22 -19 -42.5t-22 -38.5l-45 -97q6 -21 16 -40l20 -38l52 -99l47 -93q11 -20 22.5 -41t18.5 -41q-7 -7 -19 -8.5t-25 -3.5q-13 1 -25.5 1.5t-24.5 -1.5h-43q-9 0 -15.5 0.5t-12.5 4.5l-39 77l-53 94q-3 7 -7 6q-9 -6 -13.5 -13.5t-9.5 -15.5l-37 -79l-28 -59
q-12 -5 -25.5 -8t-27.5 -1q-31 1 -64 0q-17 0 -33 1.5t-27 7.5q-4 7 0 11q10 28 26 58.5t31 61.5l43 87l41 76l26 55q-5 20 -16 40.5t-20 40.5l-60 107q-14 28 -28.5 55t-29.5 53q-23 39 -29 71z" />
    <glyph glyph-name="Y" unicode="Y" horiz-adv-x="576" 
d="M0 729q17 4 28.5 5t28.5 1l67 1q10 1 22 0.5t21 -2.5q14 -20 23.5 -40.5t20.5 -43.5l57 -122l33 -68q8 18 16 36.5t16 35.5l30 87l28 71l19 40q16 2 34.5 2t33.5 -2l51 2q14 0 26.5 0.5t20.5 -3.5q-3 -20 -12 -41l-35 -79l-45 -107l-39 -102l-33 -95l-20 -60l-2 -122
q-3 -59 0 -118q-8 -6 -18.5 -5.5t-21.5 2.5q-5 -2 -13 -3t-17.5 -1t-18 0.5t-13.5 1.5q-20 -4 -38 0q-6 1 -10.5 1.5t-8.5 3.5q-2 12 -2 30.5t2 33.5l1 107l-1 75q-11 28 -21 46.5t-22 43.5l-54 112l-38 79l-45 92q-14 26 -27.5 52t-23.5 53z" />
    <glyph glyph-name="Z" unicode="Z" horiz-adv-x="505" 
d="M30 725q26 6 53 6.5t55 0.5l126 -1l112 -3q23 1 48.5 0.5t46.5 -5.5l3 -64l-1 -52l-3 -36l-69 -111l-65 -104l-63 -98l-54 -89q20 -4 45.5 -3t43.5 2q49 -1 98 0l50 3q7 0 13.5 -0.5t13.5 -2.5l2 -77l-2 -83q-6 -4 -14.5 -5t-19.5 -1l-94 -4l-99 2h-104l-94 -3l-21 3
q-12 0 -15 10q-3 25 2 53q-2 20 -2 41.5v41.5l28 52l55 94l61 100l49 76l34 56q2 3 5.5 9t7.5 13t7 13t4 9l-72 1l-81 2q-16 -2 -31.5 -3t-31.5 1q-8 0 -16 2t-11 8v18.5v14t0.5 14t1.5 18.5q-2 32 -2.5 51t0.5 30z" />
    <glyph glyph-name="bracketleft" unicode="[" horiz-adv-x="289" 
d="M41 866q19 4 39.5 3.5t42.5 -3.5h67h47q9 1 16.5 0t21.5 -8q2 -17 1.5 -34.5t-1.5 -34.5l1 -47q-18 -3 -36 -3l-44 -1q-11 -2 -13 -1.5t-13 2.5l2 -121l-2 -144l-1 -193l3 -140l-2 -140l42 -2l31 1q15 2 28 -4q6 -16 4 -34l-3 -48v-38q-17 -4 -35 -4h-42l-51 -3l-51 1
l-50 -1q-7 1 -7 11l-1 46l-3 84l4 144l2 118l-2 212l1 133l1 101l-2 112z" />
    <glyph glyph-name="bracketright" unicode="]" horiz-adv-x="289" 
d="M249 -136q-16 -4 -34.5 -3.5t-36.5 3.5l-57 -1l-55 1q-18 -2 -32 6q-2 17 -3 35.5t1 35.5v57q15 3 30 3l16 1q20 3 38 -1l-1 87l1 168l1 193l-2 140l1 144l-30 2l-26 -1q-13 -2 -24 4q-2 8 -3 17t1 17l2 48v38q13 4 30 4l51 1l44 2l43 -1l41 1q7 -2 7 -11l1 -46l1 -84
l-2 -148l-2 -118l1 -212l-1 -133l-1 -101l2 -112z" />
    <glyph glyph-name="underscore" unicode="_" horiz-adv-x="595" 
d="M45 130q18 5 38 4t41 -2l115 -2l83 1l121 -1q14 0 29 -0.5t27 -5.5q9 -11 8 -24l-2 -26l-3 -29q0 -10 0.5 -21.5t-7.5 -19.5q-6 -5 -17.5 -5.5t-19.5 -0.5l-139 3q-26 0 -51 -1t-51 0q-40 -3 -89 3l-79 -2q-3 7 -3.5 14.5t-0.5 15.5v43q-3 14 -2.5 28t2.5 28z" />
    <glyph glyph-name="quoteleft" unicode="&#x2018;" horiz-adv-x="252" 
d="M198 536q-2 -16 -2 -31.5t2 -31.5q-5 -13 -16 -16q-13 -2 -27.5 0t-28.5 4q-16 -2 -29 -1.5t-30 1.5q-10 0 -15 28q-2 18 -1 29t1 29q0 13 0.5 20.5t2.5 21.5v6.5t1 6.5q3 8 4.5 17t7.5 21q5 8 9 17.5t10 17.5q2 7 5 12.5t9 13.5l23 38q8 2 16 3.5t17 -0.5l31 -3
q4 1 6 -5q-5 -10 -11.5 -19t-9.5 -19l-14 -37q-3 -11 -9.5 -24t-6.5 -24q8 -2 20 -1.5t20 -1.5q6 -4 10.5 -9t6.5 -15z" />
    <glyph glyph-name="a" unicode="a" horiz-adv-x="411" 
d="M61 398q-6 16 -7 29l-4 46t0 49q28 7 65.5 12.5t86.5 5.5q29 0 52.5 -3.5t40.5 -12.5q18 -11 33 -24t25.5 -31.5t16.5 -43.5t7 -60q3 -47 3 -87v-88q2 -48 1 -93t-5 -93q-23 -3 -48.5 -3t-47.5 -2q-2 0 -11 -1.5t-9 0.5q-2 2 -6 12t-4 13q-8 -6 -23 -11.5t-26 -7.5
q-6 -2 -20 -4t-31 -2q-34 0 -55 8q-23 9 -36.5 24t-20.5 32q-4 7 -7.5 20.5t-5.5 28t-3.5 28.5t-1.5 23q0 33 5.5 64.5t19.5 56.5q11 17 30.5 31.5t36.5 19.5t41 8t43 3q14 0 24.5 -1t24.5 -4q1 25 -6 41.5t-18 23.5q-11 6 -27 8t-30 2q-16 0 -28.5 -1t-30.5 -5
q-15 -4 -24 -6.5t-20 -4.5zM246 222q-13 2 -25.5 2.5t-23.5 0.5q-24 0 -39.5 -11t-15.5 -37q0 -27 18.5 -38.5t41.5 -11.5t45 11q2 16 1.5 42t-2.5 42z" />
    <glyph glyph-name="b" unicode="b" horiz-adv-x="442" 
d="M33 735l55 4l52 -2h24q2 -14 1.5 -26.5t-1.5 -26.5q2 -32 1.5 -62t-1.5 -59q1 -16 0.5 -33.5t1.5 -28.5q7 6 14 10t15 8q21 12 46 12q23 2 38.5 -3.5t35.5 -13.5q22 -14 41.5 -34t36.5 -52q25 -44 34 -97q2 -20 3.5 -39.5t1.5 -39.5q0 -21 -2 -42.5t-5 -42.5
q-5 -29 -13 -55t-17 -37q-13 -26 -31.5 -42t-40.5 -27q-17 -4 -33.5 -6.5t-33.5 -2.5q-16 -2 -29 1.5t-24 9.5q-14 6 -24.5 14t-19.5 16q-6 -3 -6 -10q-1 -7 -1.5 -14t-2.5 -14q-11 -3 -23 -3.5t-24 1.5q-14 -1 -32 -1t-32 3q-5 18 -6.5 35.5t-1.5 34.5q2 27 2 53.5v53.5
q1 44 1.5 87t-1.5 87v177v133zM275 327q-2 5 -5 11.5t-8 13.5q-9 11 -21 16.5t-24 5.5q-13 0 -26.5 -8.5t-19.5 -22.5q-8 -16 -10.5 -41t-2.5 -51q0 -32 7 -58t21 -41q7 -5 16.5 -9.5t19.5 -2.5q22 -1 43 16q11 10 18 36t7 64q0 25 -4 38t-11 33z" />
    <glyph glyph-name="c" unicode="c" horiz-adv-x="345" 
d="M315 405q0 -6 -0.5 -12.5t-2.5 -12.5q-2 -4 -18 1q-12 4 -21.5 5t-20.5 2l-16 -2t-16 -4q-21 -7 -36 -22q-19 -20 -26 -39.5t-7 -51.5t6 -50.5t14 -29.5q5 -9 14.5 -16.5t20.5 -13t23.5 -8t24.5 -0.5q16 -2 33 4q5 2 10.5 4t13.5 2q8 1 10 -6q2 -11 2 -27.5v-37.5
q1 -19 1.5 -37.5t-0.5 -37.5q-11 -8 -21.5 -12t-22.5 -8q-13 -4 -27 -4.5t-28 0.5q-49 0 -90.5 20t-69.5 57q-26 39 -40.5 84t-14.5 99q0 34 1.5 59t5 46t9.5 39.5t15 38.5q16 38 46 60.5t67 36.5q14 3 27 5.5t28 3.5q24 2 49 0q15 -2 27.5 -4.5t25.5 -10.5q2 -17 2.5 -33.5
t-0.5 -33.5q0 -9 0.5 -15.5t1 -11.5t0.5 -11v-15z" />
    <glyph glyph-name="d" unicode="d" horiz-adv-x="447" 
d="M413 652v-124v-177q-2 -44 -1.5 -87t1.5 -87q-1 -27 -0.5 -53.5t1.5 -53.5q1 -17 3 -34.5t-3 -35.5q-14 -3 -30.5 -1.5t-30.5 2.5q-12 -2 -24 -3t-23 2q-5 6 -6.5 12t-3.5 13q-11 -6 -16 -8.5t-19 -8.5q-11 -6 -31 -8t-31 -2q-18 0 -29 1.5t-29 5.5q-23 11 -43.5 27
t-34.5 42q-10 11 -22 37t-18 56q-2 21 -7.5 44t-5.5 44q0 20 0.5 44.5t2.5 44.5q5 26 13.5 52t22.5 49q9 16 16.5 26t15 17.5t16.5 13.5t21 13q21 8 38 12t40 2q14 0 31 -6t28 -12l14 -8t15 -10q1 11 0.5 32.5t0.5 37.5q-1 29 -1 54.5t1 57.5q-1 26 0 53h30l52 2l45 -4z
M148 336q-6 -19 -8.5 -33t-2.5 -40q0 -29 11.5 -54.5t21.5 -36.5t23 -17t24 -5q11 -2 20 1.5t16 8.5q7 3 11.5 7.5t10.5 15.5q2 4 3.5 13.5t3 20.5t2 22t0.5 19q0 26 -2 51t-5 36q-11 16 -29.5 25.5t-32.5 9.5q-12 0 -28 -4.5t-24 -15.5q-5 -7 -9 -13t-6 -11z" />
    <glyph glyph-name="e" unicode="e" horiz-adv-x="419" 
d="M197 534q45 0 84.5 -17.5t70.5 -51.5q30 -45 41 -89q8 -20 10.5 -41t4.5 -41q2 -17 0.5 -38t-3.5 -38q-27 -8 -62 -10l-104 -3l-100 2q0 -6 0.5 -16t4.5 -21q9 -31 29 -44.5t45 -13.5q17 1 31.5 4t26.5 10q8 5 18 11.5t15 13.5q3 5 7 11.5t6 8.5q11 -7 17.5 -15t15.5 -16
q10 -8 19 -16.5t20 -24.5q-4 -11 -10.5 -21t-11.5 -18q-13 -14 -26.5 -23.5t-32.5 -20.5q-26 -14 -51 -20t-57 -3q-41 1 -71.5 20t-59.5 44q-18 20 -29.5 38.5t-19.5 46.5q-7 26 -10 58t-5 60q1 51 8 99.5t33 91.5q23 38 61.5 61.5t84.5 21.5zM136 315q20 1 42.5 1.5
t42.5 1.5l68 -2q-5 19 -9.5 37.5t-21.5 35.5q-9 8 -21 13.5t-26 5.5q-28 0 -45.5 -13.5t-22.5 -30.5q-3 -10 -5 -23t-2 -26z" />
    <glyph glyph-name="f" unicode="f" horiz-adv-x="274" 
d="M273 715v-52q0 -16 0.5 -29t-1.5 -29q-15 -2 -23.5 -2h-18.5q-23 2 -31.5 -10t-10.5 -34q-1 -10 -2 -19.5t1 -17.5l40 -2l24 -1q1 -15 0 -30q1 -18 1 -26v-26l-1 -34l-15 -3t-15 -1q-8 -1 -17 -1.5t-17 0.5l-2 -88l1 -116l-1 -110v-86q-6 -2 -15 -2.5t-19 -1t-18.5 0
t-14.5 2.5l-52 -2q-13 0 -15 5l-2 110l1 104l-1 91l-1 95l-21 1q-7 1 -11 1t-11 3q-5 17 -5 30v67q0 5 1 9t2 9q11 3 22 4t22 1l2 74q2 19 8 38.5t13 38.5q10 19 26.5 33.5t36.5 19.5q14 2 27 3.5t27 1.5q21 1 42.5 2t42.5 -3z" />
    <glyph glyph-name="g" unicode="g" horiz-adv-x="437" 
d="M401 518q6 -16 5.5 -32t0.5 -32l-2 -171v-187l-2 -114q-2 -26 -7 -51t-10 -45q-6 -18 -18.5 -34t-29.5 -28t-37 -19t-40 -6q-21 -5 -41 -5t-40 1l-69 6l-47 10l-4 67v19t0.5 15.5t2 15.5t3.5 19l34 -2l48 -9q17 -2 34 -1.5t33 5.5q17 -1 24 5t16 20q6 12 8 24.5t2 24.5
l5 62q-11 -8 -17 -13t-17 -10q-11 -8 -24.5 -8.5t-27.5 -1.5q-44 0 -76.5 22.5t-56.5 54.5q-14 23 -23.5 48.5t-12.5 54.5q-4 27 -5 53.5t1 53.5q3 22 7.5 45t12.5 44.5t20.5 40.5t30.5 34q14 15 30.5 24.5t36.5 14.5q13 3 25 2.5t24 -2.5q16 -3 27 -7t24 -15q8 -5 15 -9.5
t12 -11.5q2 3 3 7t2 11q1 5 1 7t2 7q30 5 58 0zM157 347q-9 -33 -9 -68q-1 -14 0.5 -26.5t6.5 -25.5q5 -21 19 -31q14 -23 34 -18q8 1 15.5 2t14.5 6q19 13 28 41q6 27 5 55q-1 17 -2.5 32.5t-6.5 32.5q-9 26 -27 39q-14 5 -29 6q-5 2 -10.5 0t-10.5 -4q-19 -14 -28 -41z
" />
    <glyph glyph-name="h" unicode="h" horiz-adv-x="420" 
d="M34 728q11 2 32.5 3.5t34.5 -0.5l42 1q6 1 12 0t11 -3q1 -22 1.5 -44t1.5 -44q2 -44 0 -83v-56q9 8 17.5 12t19.5 8t23.5 8t26.5 4q29 -1 55 -12q15 -7 27.5 -18.5t22.5 -24.5q23 -30 26 -79q2 -21 2 -42v-42v-88v-107v-55q1 -15 1 -30.5t-2 -30.5q-8 -3 -16 -4.5
t-16 -3.5h-15.5h-20t-19.5 0.5t-13 2.5q-14 -2 -25 5q-2 14 -2.5 28.5t-0.5 28.5v119v91q0 16 -0.5 30.5t-2.5 28.5q-1 20 -8 35q-12 16 -33 16q-24 0 -37 -14q-6 -5 -9 -13t-5 -16q-1 -14 -0.5 -27t1.5 -27v-164l-3 -106q-11 -5 -22.5 -6t-23.5 0q-7 0 -17 0.5t-20.5 1.5
t-20 1.5t-15.5 2.5l-14 6l1 125v143v152l1 121v127z" />
    <glyph glyph-name="i" unicode="i" horiz-adv-x="223" 
d="M112 728q13 -1 22 -4.5t17 -8.5q17 -13 23 -28.5t6 -32.5q2 -14 -2.5 -26.5t-11.5 -22.5q-22 -22 -58 -22q-14 0 -25.5 4.5t-20.5 12.5q-12 8 -17 23t-5 31q0 19 4 28.5t11 19.5q10 14 25 19t32 7zM92 519q5 1 14 1.5t18.5 0.5t17.5 -0.5t13 -1.5q12 1 24 -4
q2 -9 3 -17.5t1 -17.5v-118l-2 -128v-149v-41t-2 -41q-6 -3 -16 -3.5t-21 -0.5t-21.5 1t-16.5 2q-12 -2 -23.5 -2h-23.5q-4 1 -7.5 2.5t-5.5 6.5q0 14 -1 29t1 29l-2 131v119l-2 117l2 64q3 14 14 17z" />
    <glyph glyph-name="j" unicode="j" horiz-adv-x="218" 
d="M106 587q-31 0 -44 10q-16 13 -19.5 29t-4.5 33q-1 14 3.5 28t11.5 24q24 23 57 20q14 -2 24.5 -4t19.5 -10q12 -8 17.5 -22.5t6.5 -29.5q-1 -14 -2.5 -26.5t-8.5 -22.5q-11 -16 -26.5 -22.5t-34.5 -6.5zM82 521l54 2l31 -2q4 -7 4.5 -14t0.5 -14l4 -126q-2 -28 -2 -55
t2 -55q-1 -28 -1.5 -57t-2.5 -58q1 -34 1 -71.5t-3 -71.5l-6 -61q-4 -23 -12 -41t-13 -35q-7 -19 -22.5 -29.5t-28.5 -18.5q-12 -6 -24.5 -9t-25.5 -5l-43 -6q-17 0 -35 5q-12 3 -18 14l-2 70l2 55q4 2 7.5 2h8.5q9 -2 17.5 -1t17.5 1q9 1 17 4t13 10q7 9 9.5 23.5t3.5 33.5
q0 15 0.5 39.5t-0.5 39.5q2 28 1 55t-2 55l1 97v75l-1 90v28t4 28z" />
    <glyph glyph-name="k" unicode="k" horiz-adv-x="450" 
d="M135 733h30q2 -15 2 -30.5v-30.5v-114v-118q1 -23 1.5 -46t-1.5 -46q13 12 23 28.5t21 32.5t21 32t19 33l30 48l42 2l68 3l45 1q0 -4 -0.5 -7t-3.5 -7q-12 -32 -30 -54l-31 -47l-46 -61q-13 -17 -24.5 -37.5t-19.5 -35.5q3 -11 15 -32.5t25 -38.5l51 -79l42 -64l35 -49
q3 -6 -2 -10.5t-11 -3.5l-39 -4q-11 0 -22.5 1t-23.5 3q-8 -1 -15 -1.5t-15 1.5q-8 0 -15 0.5t-14 2.5q-9 8 -14.5 16.5t-11.5 18.5l-31 58l-22 44l-17 30l-19 -19l-17 -15v-51v-38t-3 -38q-7 -4 -13.5 -5t-13.5 -1l-33 4q-9 -1 -21.5 -1t-20.5 1q-7 -1 -11.5 -1.5
t-11.5 3.5q-1 14 -1.5 28.5t1.5 28.5v104l1 127l1 150v136l-1 87v29t2 29q14 2 31.5 3t32.5 0h36z" />
    <glyph glyph-name="l" unicode="l" horiz-adv-x="218" 
d="M46 725q9 7 19.5 7t22.5 1l59 -7q8 0 13.5 -2.5t14.5 -4.5q2 -6 3 -13t-1 -15v-126v-110l-2 -167v-131v-75v-78q-8 -6 -14 -3l-55 -1l-34 -2q-9 0 -16.5 1t-13.5 3q-1 8 -1.5 16t-0.5 16v108l2 119v166v92v114l2 70z" />
    <glyph glyph-name="m" unicode="m" horiz-adv-x="639" 
d="M34 513q6 9 20 9.5t28 1.5l44 -2l21 2q6 0 8 -9.5t2 -17.5l26 18q14 9 28 11.5t28 5.5q15 -2 30 -4.5t27 -10.5q16 -4 27.5 -11t21.5 -17q6 9 17 18.5t30 18.5q11 3 22 4l22 2q26 2 47 -5t38 -17q23 -10 36 -24t23 -36q14 -29 19 -61t7 -64v-164v-83l3 -68
q-4 -8 -7.5 -9.5t-8.5 -1.5l-48 -3l-47 3q-9 -6 -20 0l1 62l-2 126v48t2 48l-2 45q-1 11 -5.5 20t-10.5 14q-8 14 -34 17q-10 -1 -18.5 -3t-16.5 -9q-7 -9 -8.5 -20t-1.5 -22v-100l2 -89v-98q-1 -11 -2 -20.5t-4 -18.5q-22 -8 -41 -4h-39q-14 0 -24 1t-15 7q-3 8 -3.5 16
t0.5 16l3 86l-1 111v79q0 8 -2 19t-4 17q-5 14 -14.5 23t-22.5 9q-12 -2 -20.5 -6.5t-14.5 -9.5q-21 -15 -21 -34q-2 -14 -1 -23t1 -23l1 -73v-97l-1 -72q1 -9 -1 -16.5t-4 -14.5q-2 -6 -6 -9l-51 -2q-42 0 -58 8q-7 4 -8 11q2 48 2 94t-1 94v130l-1 109q1 17 -0.5 34
t3.5 34z" />
    <glyph glyph-name="n" unicode="n" horiz-adv-x="429" 
d="M32 516q9 7 24 8t31 0q25 1 50 0q3 -4 5.5 -11t2.5 -12q9 2 15.5 7.5t13.5 11.5q12 8 26.5 10t34.5 2q21 -1 40.5 -5t38.5 -9q21 -8 36.5 -25t26.5 -41q9 -23 12.5 -42.5t4.5 -45.5l2 -152v-87l1 -75q1 -12 2 -23.5t-1 -23.5q-2 -8 -14 -6.5t-24 3.5l-37 -2l-39 3
q-7 0 -11.5 1t-6.5 7v80l-1 71l-1 92q-2 17 -2.5 34.5t-4.5 32.5q0 10 -2.5 19t-6.5 19q-5 14 -14 20t-21 8q-17 0 -36 -17q-9 -8 -12 -22.5t-3 -24.5l-3 -62l1 -115l2 -86l2 -40q0 -13 -7 -13l-33 -5q-10 -2 -19.5 -2h-18.5l-44 -1q-9 4 -9 8l-1 28q-2 54 0 109l1 73
l-2 107l1 91q-1 28 -1.5 53t1.5 50z" />
    <glyph glyph-name="o" unicode="o" horiz-adv-x="416" 
d="M51 455q29 38 64.5 60.5t89.5 22.5q59 -4 99 -31t62 -66q24 -47 30.5 -90.5t9.5 -90.5q-3 -60 -14 -100.5t-26 -73.5q-29 -52 -67 -74t-85 -24q-100 2 -147 77q-26 40 -42 87t-14 105q-1 27 1 55.5t7 55t13 49t19 38.5zM144 264q0 -19 4.5 -39.5t12.5 -38t20.5 -29
t29.5 -11.5q29 0 45 34t20 86q0 54 -18.5 87t-45.5 33q-20 0 -32 -6.5t-20 -26.5q-9 -20 -12 -43t-4 -46z" />
    <glyph glyph-name="p" unicode="p" horiz-adv-x="423" 
d="M35 -184q-2 19 -1.5 37t0.5 37l-1 110l1 177q2 44 1 87t-2 87q1 27 1 53.5t-2 53.5q-1 9 -1 20.5t0.5 22t2.5 18t5 9.5q7 1 17 2t20.5 1t20 -0.5t16.5 -0.5q24 3 45 -3q2 -7 2.5 -14t1.5 -14v-9q10 5 19 13t22 15q11 5 30 8.5t33 1.5q10 -1 23 -6t22 -11q19 -11 35 -29.5
t22 -29.5q8 -11 19.5 -36t16.5 -55q4 -20 6.5 -42t2.5 -43q0 -40 -6 -79q-4 -26 -7.5 -50.5t-15.5 -47.5q-14 -32 -28.5 -52t-33.5 -34q-17 -8 -33 -15t-38 -5q-13 0 -27 5t-24 11q-7 4 -16.5 12t-15.5 15q-2 -11 -2 -33v-38v-26v-21.5t-0.5 -22t-0.5 -27.5q1 -14 3 -25.5
t1 -25.5q-8 -6 -14 -5t-13 2l-62 -2q-26 -3 -45 4zM267 181q6 20 7 38t1 44q0 39 -7 65.5t-17 36.5q-10 8 -17.5 12.5t-18.5 2.5q-10 2 -19.5 -2t-16.5 -10q-14 -15 -20.5 -41t-6.5 -58q0 -27 3 -46t9 -36q7 -20 21 -32.5t29 -12.5q19 0 33 9.5t20 29.5z" />
    <glyph glyph-name="q" unicode="q" horiz-adv-x="404" 
d="M369 -173q-8 -3 -18 -4.5t-24 0.5h-42q-7 -1 -18 -2t-19 5q-2 14 -2 26.5v26.5v25.5v18t0.5 17.5t0.5 24q1 16 0 37t-4 32q-7 -7 -17 -12t-17 -8q-8 -4 -19.5 -6.5t-23.5 -2.5q-15 -1 -34.5 8t-38.5 22q-11 8 -24 25.5t-28 49.5q-11 23 -17 47t-10 50q-3 20 -3.5 39.5
t-0.5 39.5q0 21 1.5 43t5.5 42q5 35 14.5 61.5t17.5 37.5q6 11 16.5 23t30.5 23q4 3 12.5 5.5t18 4t18.5 2.5t14 1q29 3 48 -6l21 -7l18 -6q5 5 6 10.5t4 7.5q11 3 28 1.5t29 -3.5q14 1 27.5 1t27.5 -3q3 -6 4.5 -29t0.5 -42q-2 -27 -1 -51t2 -51q-2 -44 -3 -87t1 -87v-177
l-2 -98q0 -19 0.5 -37t-1.5 -37zM145 187q3 -5 8 -14t10 -14t15 -8.5t21 -3.5q14 0 29.5 12.5t19.5 27.5q6 19 7 40.5t1 47.5q0 32 -3 53.5t-12 32.5q-6 11 -17.5 18.5t-28.5 7.5q-11 1 -19.5 -4.5t-17.5 -13.5q-11 -10 -18.5 -37t-7.5 -54q0 -26 3.5 -48.5t9.5 -42.5z" />
    <glyph glyph-name="r" unicode="r" horiz-adv-x="304" 
d="M35 519q10 4 21.5 5.5t25.5 -0.5q11 1 26.5 1.5t26.5 -1.5l14 -4q4 -6 4 -13q3 -9 1 -21q6 11 13.5 17t16.5 11q17 13 45 14q19 2 34 -1q6 -1 12.5 -1t12.5 -5q5 -12 5 -24t1 -24l-1 -37q0 -19 0.5 -27.5t-2.5 -27.5q-11 -4 -20 1q-11 3 -21 4.5t-22 0.5q-18 0 -36 -8
q-12 -6 -18.5 -18t-8.5 -23q-2 -17 -3 -43.5t1 -43.5v-121q0 -24 -0.5 -48.5t0.5 -48.5q1 -7 1.5 -13t-1.5 -13q-9 -2 -29 -2h-29q-16 -5 -30.5 -4.5t-26.5 2.5q-3 -1 -7 1.5t-6 4.5q-6 39 -3 83q-2 68 0 136l-2 128l1 100v33t4 30z" />
    <glyph glyph-name="s" unicode="s" horiz-adv-x="382" 
d="M325 526q5 -26 3 -49l-1 -34q0 -10 -0.5 -18t-3.5 -16l-42 -2l-32 2l-43 2l-28 -3q-10 0 -17 -7t-7 -21q0 -12 3 -18t10 -11q10 -5 19.5 -9.5t20.5 -5.5l57 -14q27 -9 49 -25q11 -10 19.5 -23.5t14.5 -27.5q6 -18 9 -36t5 -38q2 -32 -6 -64q-3 -13 -9.5 -24.5
t-12.5 -22.5q-5 -11 -16 -20t-20 -16q-9 -8 -20.5 -13t-21.5 -7q-17 -3 -32 -2.5t-31 -2.5l-60 -1h-56q-12 0 -24 0.5t-23 5.5q-2 11 -2 22.5t1 22.5l-2 22l-2 45q0 6 0.5 11.5t4.5 7.5l44 -3l58 -1q14 -2 28.5 -2.5t28.5 -1.5q7 -1 14 2t13 6q14 5 14 30q0 11 -5.5 19.5
t-13.5 11.5q-9 3 -20 5t-25 6q-11 2 -27.5 7.5t-28.5 10.5q-20 8 -37 23.5t-29 40.5q-14 26 -18 49.5t-5 52.5q0 19 6 36.5t11 34.5q17 30 43 50t66 21l60 -1l42 1l38 -4q17 0 23 -1t16 -3z" />
    <glyph glyph-name="t" unicode="t" horiz-adv-x="266" 
d="M125 661q11 5 27 9t30 5q2 -4 2 -7v-7v-54v-43l2 -37q7 -4 12 -4.5t11 0.5q8 2 14.5 0.5t14.5 -2.5q10 -4 10 -9q4 -15 2.5 -28t-1.5 -26l-1 -29q-1 -8 -1.5 -14t-2.5 -12q-10 -9 -24 -7q-9 0 -17 0.5t-16 3.5q-1 -5 -2 -13t-1 -19v-97l2 -100q1 -12 3 -19.5t6 -13.5
q4 -7 10.5 -13t16.5 -4q8 1 15 1t15 -3q4 -20 4 -45q-1 -20 -1 -37.5t-2 -28.5q-5 -6 -15 -6l-48 -2q-13 -2 -32.5 -0.5t-30.5 6.5q-20 3 -38 22q-17 14 -23 42q-9 36 -12 72v56t1 56l-2 107v37q-5 2 -10 3.5t-12 1.5q-6 0 -12 -1t-12 1q-3 13 -4 23.5t-2 21.5l1 32
q-1 11 -1.5 22t1.5 20q5 1 11 2t12 -1l25 -3q4 11 3.5 21t0.5 21l-2 50v13t1 13q7 5 15.5 7.5t18.5 4.5z" />
    <glyph glyph-name="u" unicode="u" horiz-adv-x="416" 
d="M32 519q6 5 13 8.5t18 2.5q9 0 22 -0.5t22 -2.5l46 2q4 0 7 -16v-23l2 -28t0 -28v-78l-1 -153q0 -16 2.5 -24.5t4.5 -16.5q5 -23 21 -28q22 -5 40 2q12 5 15 15t7 23q4 16 4 34.5v35.5v112v76v55l-2 34q4 4 11 5.5t15 2t15 0t12 -0.5l47 -3q6 0 12 -0.5t12 -2.5
q6 -8 7.5 -20t1.5 -25v-75l-1 -149l1 -106v-70l-4 -65q-11 -5 -20.5 -5h-20.5q-14 2 -30.5 0t-24.5 -2q-6 0 -7.5 5t-4.5 7t-7 2.5t-9 0.5q-12 -3 -24.5 -7t-23.5 -11q-14 -7 -29 -8t-29 0q-11 2 -18 3.5t-17 4.5q-17 2 -35.5 9.5t-26.5 15.5q-19 28 -22 64l-2 107
q-2 57 0 115l1 96l-2 57v26.5t2 26.5z" />
    <glyph glyph-name="v" unicode="v" horiz-adv-x="456" 
d="M0 522q8 8 18.5 10t24.5 1l50 -3q8 1 16.5 1t18.5 -3q4 -8 6 -17t4 -17l27 -101l17 -64l18 -67q4 -17 8 -32.5t9 -20.5q5 5 7.5 15.5t5.5 21.5l14 42l27 81l20 71l20 63q2 8 4.5 12t7.5 9q11 2 22.5 3.5t22.5 0.5l46 3q18 3 36 -5q6 -5 5 -13q-5 -17 -10 -32.5t-12 -32.5
l-34 -106l-26 -80l-36 -110l-25 -84l-19 -58q-5 -13 -12 -13l-52 1q-10 -2 -20 -2.5t-18 1.5q-9 -1 -24 -2.5t-23 0.5l-15 44l-27 90l-27 105l-25 88l-26 91l-14 58z" />
    <glyph glyph-name="w" unicode="w" horiz-adv-x="623" 
d="M102 527q8 1 15.5 1t15.5 -3l16 -63l25 -78q3 -15 6.5 -30t6.5 -27.5t6 -21.5t6 -12q8 10 13 30t12 37l30 88l19 57q8 10 16 10.5t16 -1.5q10 2 19.5 0.5t19.5 -5.5q6 -15 11.5 -30t8.5 -35l19 -77q6 -25 11.5 -44t10.5 -21q8 5 14.5 24.5t11.5 35.5l21 72q8 23 14 44.5
t12 40.5q5 3 9.5 5.5t14.5 0.5l64 5l49 -3q8 0 8 -13l-21 -68l-45 -132l-31 -85l-22 -74l-19 -56l-23 -73l-10 -20q-10 -4 -24 -3.5t-23 2.5q-11 -2 -22 -1.5t-22 2.5q-5 14 -11 28t-8 28l-18 73q-2 11 -4.5 24.5t-5.5 26t-5.5 22t-4.5 12.5q-8 -14 -12 -32t-9 -35l-27 -82
l-21 -68q-11 -5 -21 0q-9 -3 -18 -2.5t-18 -0.5h-22t-19 5q-5 12 -8 24.5t-5 24.5l-27 109l-26 93l-27 108l-26 84q-3 8 -4.5 18.5t-4.5 16.5q-8 19 -9 39q11 5 24.5 5.5t26.5 -0.5h51z" />
    <glyph glyph-name="x" unicode="x" horiz-adv-x="444" 
d="M94 530l61 -3q8 -7 14.5 -19.5t13.5 -27.5l23 -42q3 -10 9.5 -18t9.5 -8q8 2 15 13t13 23l27 49q5 8 10.5 15.5t15.5 12.5l47 2q26 2 47 -4q20 7 44 -3q-1 -18 -13 -32l-52 -86l-38 -64l-35 -62q0 -16 8 -29t16 -27l45 -90l49 -85q7 -11 9 -20t3 -20q-7 -5 -13 -6t-13 -1
l-52 5q-9 -4 -18.5 -4.5t-19.5 -0.5q-7 -8 -14 -4q-13 14 -21 34l-24 42q-9 16 -18 31.5t-19 25.5l-27 -46l-27 -42q-8 -21 -17 -33q-23 -6 -45 -3l-63 -2q-17 -2 -29.5 -2t-15.5 7l4 16t5 14l25 49l28 48l40 59q10 18 21.5 38.5t23.5 37.5q-7 17 -15 32.5t-17 30.5l-37 59
l-27 52l-31 49q-5 3 -7 7.5t-4 12.5q2 5 4.5 10t10.5 7z" />
    <glyph glyph-name="y" unicode="y" horiz-adv-x="423" 
d="M212 241q8 16 12 39.5t10 45.5l21 95l23 97q5 4 24.5 5t34.5 2l37 -1l27 1q8 -2 14 -4t8 -6q-2 -14 -5 -29t-8 -29l-32 -115l-44 -162l-36 -126l-33 -121q-14 -43 -31 -76q-9 -23 -31 -40.5t-48 -17.5q-17 -1 -41.5 -1t-41.5 1q-14 -2 -23.5 -1.5t-20.5 5.5
q-1 13 -1.5 25.5t-0.5 25.5l-1 44q-3 25 0 50q6 2 13.5 2.5t16.5 0.5l37 1q17 -2 31.5 8.5t13.5 27.5q0 10 -4.5 26.5t-7.5 22.5l-33 111l-24 82l-31 117l-19 78l-16 70q-1 6 -1.5 11.5t1.5 11.5q19 9 37 9h37q13 2 31 3t31 0q13 -38 20.5 -75.5t17.5 -75.5q15 -69 36 -138z
" />
    <glyph glyph-name="z" unicode="z" horiz-adv-x="398" 
d="M27 520q21 7 47.5 8.5t57.5 -0.5l85 2h82q16 -1 32 -1t33 -4q4 -19 1 -40q2 -12 2.5 -23.5t-2.5 -23.5l-5 -25q-8 -20 -16 -38.5t-18 -32.5l-32 -55l-36 -56q-12 -18 -26 -45t-25 -42q12 -3 26 -2l55 2l38 2q23 3 48 -2q2 -5 2.5 -11t0.5 -13l1 -45l-4 -66q-5 -8 -17 -7
q-18 -1 -36 -1.5t-36 1.5l-80 -5l-61 5l-75 -3q-11 0 -22.5 1t-22.5 3l-2 26q-1 16 -1.5 28t0.5 28l2 24q4 8 13.5 23t20.5 32l33 51l40 65l30 51q9 14 16.5 30t12.5 30q-18 3 -40 3q-16 -2 -30 -1.5t-28 1.5q-13 -3 -24 -2.5t-25 1.5q-8 2 -13 14l-2 38v36q-1 10 -1.5 19.5
t1.5 19.5z" />
    <glyph glyph-name="quotesingle" unicode="'" horiz-adv-x="220" 
d="M45 697q16 3 33.5 3t37.5 -1q16 1 33.5 2t34.5 -1q8 -8 8 -17q0 -27 -1.5 -53t-6.5 -52l-14 -99q-3 -20 -7 -40.5t-12 -40.5q-14 -1 -27.5 -1.5t-25.5 3.5q-7 13 -11.5 26t-8.5 26q-11 26 -16 46.5t-10 40.5q-5 33 -10.5 66t-5.5 66q-3 17 9 26z" />
    <glyph glyph-name="quotedblleft" unicode="&#x201c;" horiz-adv-x="452" 
d="M398 536q-3 -16 -2.5 -31.5t1.5 -31.5q-2 -13 -16 -16q-12 -2 -27 0t-28 4q-16 -2 -29.5 -1.5t-28.5 1.5q-10 0 -17 28q-2 18 -1 36t3 36q0 6 -0.5 8.5t-0.5 4.5t0.5 4.5t2.5 9.5v13q4 8 6 18t7 21q4 8 7.5 17.5t10.5 17.5q3 7 5.5 12.5t7.5 13.5l24 38q8 2 16 3.5
t19 -0.5l29 -3q6 2 6 -5q-5 -10 -11 -19t-9 -19l-15 -37q-4 -11 -8.5 -25t-6.5 -25q8 -2 22.5 -1.5t22.5 -1.5q8 -7 12 -24zM198 536q-2 -16 -2 -31.5t2 -31.5q-5 -13 -16 -16q-13 -2 -27.5 0t-28.5 4q-16 -2 -29 -1.5t-30 1.5q-10 0 -15 28q-2 18 -1 29t1 29q0 13 0.5 20.5
t2.5 21.5v6.5t1 6.5q3 8 4.5 17t7.5 21q5 8 9 17.5t10 17.5q2 7 5 12.5t9 13.5l23 38q8 2 16 3.5t17 -0.5l31 -3q4 1 6 -5q-5 -10 -11.5 -19t-9.5 -19l-14 -37q-3 -11 -9.5 -24t-6.5 -24q8 -2 20 -1.5t20 -1.5q6 -4 10.5 -9t6.5 -15z" />
    <glyph glyph-name="endash" unicode="&#x2013;" horiz-adv-x="555" 
d="M43 376q19 4 41 3t47 -1l125 -2l94 1l94 -1q16 0 32.5 -0.5t30.5 -4.5q9 -8 7.5 -19.5t-3.5 -22.5l-1 -24q0 -8 -0.5 -18t-8.5 -16q-7 -4 -19 -4.5t-23 -0.5l-112 2q-30 0 -58 -0.5t-57 0.5q-23 -2 -46.5 -1t-49.5 3l-89 -2q-6 12 -4 25q-2 18 0 36q-3 12 -2.5 24t2.5 23
z" />
    <glyph glyph-name="paragraph" unicode="&#xb6;" horiz-adv-x="476" 
d="M175 738q3 0 10.5 0.5t17 0.5t18.5 -0.5t15 -1.5l85 -3l52 -1l28 1q12 2 20 -1t11 -14q3 -14 2 -28l-2 -126l-2 -110l-2 -167l-3 -131l-1 -75v-78q-5 -5 -11 -3l-26 -1l-25 -2q-7 0 -12.5 1t-8.5 2q-2 8 -2 16v16l2 108l1 119l3 166l1 92l2 54t-1 54l-15 1
q-14 1 -26.5 1.5t-24.5 -0.5q-1 -16 -1 -31.5v-31.5l-2 -110l-2 -167l-3 -131l-1 -75v-78q-5 -5 -11 -3l-26 -1l-25 -2q-7 0 -12.5 1t-8.5 2q-2 8 -2 16v16l2 108l1 119l2 121q-12 0 -23.5 1t-19.5 3q-20 4 -47.5 10.5t-49.5 30.5q-10 11 -16.5 29t-9.5 40t-3 45t3 43
q1 10 5 26.5t10.5 34.5t15 34.5t19.5 27.5t27.5 16.5t32.5 9.5q18 4 39 6z" />
    <glyph glyph-name="bullet" unicode="&#x2022;" horiz-adv-x="364" 
d="M87 399q14 8 27.5 11.5t30.5 5.5l106 -4q12 -8 18 -32l-1 -74q-5 -20 -4.5 -40.5t1.5 -41.5q-2 -14 -19 -19q-17 -2 -35.5 0t-35.5 4q-20 -1 -37 -0.5t-37 0.5q-8 0 -11.5 10t-7.5 28q-3 22 -1.5 39.5t1.5 40.5q0 18 0.5 36.5t4.5 35.5z" />
    <glyph glyph-name="quotedblright" unicode="&#x201d;" horiz-adv-x="452" 
d="M54 659q3 16 2.5 31.5t-1.5 31.5q2 13 16 16q12 2 27 0t28 -4q16 2 29.5 1.5t28.5 -1.5q10 0 17 -28q2 -18 1 -36t-3 -36v-8.5v-4.5t-0.5 -4.5t-1.5 -9.5v-13q-4 -8 -6 -18t-7 -21q-4 -8 -7.5 -17.5t-10.5 -17.5q-3 -7 -5.5 -12.5t-7.5 -13.5l-24 -38q-8 -2 -16 -3.5
t-19 0.5l-29 3q-6 -2 -6 5q5 10 11 19t9 19l15 37q4 11 8.5 25t6.5 25q-8 2 -22.5 1.5t-22.5 1.5q-8 7 -12 24zM254 659q2 16 2 31.5t-2 31.5q5 13 16 16q13 2 27.5 0t28.5 -4q16 2 29 1.5t30 -1.5q10 0 15 -28q2 -18 1 -29t-1 -29q0 -13 -0.5 -20.5t-2.5 -21.5v-6.5
t-1 -6.5q-3 -8 -4.5 -17t-7.5 -21q-5 -8 -9 -17.5t-10 -17.5q-2 -7 -5 -12.5t-9 -13.5l-23 -38q-8 -2 -16 -3.5t-17 0.5l-31 3q-4 -1 -6 5q5 10 11.5 19t9.5 19l14 37q3 11 9.5 24t6.5 24q-8 2 -20 1.5t-20 1.5q-6 4 -10.5 9t-6.5 15z" />
    <glyph glyph-name="ellipsis" unicode="&#x2026;" horiz-adv-x="689" 
d="M202 9q-11 -5 -22.5 -7.5t-22.5 -3.5l-84 2q-10 5 -13 22l1 58q2 14 1.5 27.5t-0.5 27.5q3 11 15 14q13 2 26.5 0.5t27.5 -3.5q30 1 59 0q7 0 10 -7t5 -18q2 -16 1 -31.5t-1 -31.5q0 -12 -0.5 -24.5t-2.5 -24.5zM276 140q2 8 14 9t31 0h68q10 -1 20.5 -6.5t9.5 -15.5
l-2 -58q-4 -26 -1 -55q-3 -11 -17 -14q-25 -3 -54 0q-16 -1 -29 0.5t-29 2.5q-10 0 -15 25q-2 16 -1 31.5t1 31.5q0 12 0.5 24.5t3.5 24.5zM487 9q-3 12 -3.5 24.5t-0.5 24.5q0 16 -1 31.5t1 31.5q4 22 15 25q14 4 27.5 3t30.5 -3q14 2 28 3.5t26 -0.5q11 -2 16 -14
q-1 -14 -1.5 -27.5t1.5 -27.5l3 -58q-5 -17 -14 -22l-83 -2q-12 -1 -24 -0.5t-21 11.5z" />
    <glyph glyph-name="perthousand" unicode="&#x2030;" horiz-adv-x="892" 
d="M40 669q36 44 96 46q39 0 64.5 -17.5t39.5 -39.5q15 -29 20 -56.5t5 -56.5q-1 -35 -11 -59t-19 -44q-13 -26 -38.5 -38.5t-54.5 -13.5q-32 1 -55 12t-40 31q-17 23 -27.5 49.5t-8.5 61.5q-2 32 5 67t24 58zM95 554q1 -11 4 -23t8 -22t13 -16t20 -6q10 0 18 7t12.5 17.5
t7 22.5t2.5 22q0 28 -12 46q-5 7 -12 12.5t-18 5.5q-13 0 -21 -5.5t-13 -15.5t-7 -21.5t-2 -23.5zM368 275q36 44 96 46q39 0 64.5 -17.5t39.5 -39.5q15 -29 20 -56.5t5 -56.5q-1 -35 -11 -59t-19 -44q-13 -26 -38.5 -38.5t-54.5 -13.5q-32 1 -55 12t-40 31
q-17 23 -27.5 49.5t-8.5 61.5q-2 32 5 67t24 58zM425 160q1 -11 3.5 -22.5t7 -21t12.5 -15.5t20 -6q10 0 17.5 7t12 17t7 22t2.5 21q0 27 -12 45q-5 7 -12 12.5t-17 5.5q-12 0 -20 -5.5t-12.5 -15t-6.5 -21.5t-2 -23zM852 42q-36 -44 -96 -46q-39 0 -64.5 17.5t-39.5 39.5
q-15 29 -20 56.5t-5 56.5q1 35 11 59t19 44q13 26 38.5 38.5t54.5 13.5q32 -1 55 -12t40 -31q17 -23 27.5 -49.5t8.5 -61.5q2 -32 -5 -67t-24 -58zM795 157q-1 11 -3.5 22.5t-7 21t-12.5 15.5t-20 6q-10 0 -17.5 -7t-12 -17t-7 -22t-2.5 -21q0 -27 12 -45q5 -7 12 -12.5
t17 -5.5q12 0 20 5.5t12.5 15t6.5 21.5t2 23zM122 3q-11 2 -20.5 3.5t-16.5 4.5q13 29 27.5 59t30.5 62l38 88l42 84l34 80l40 84l37 94l31 69l23 57q3 8 7.5 15.5t9.5 14.5h29q8 1 14.5 2t14.5 0l31 -5q8 0 13 -2t10 -6l-29 -56l-17 -39l-44 -101l-33 -72l-55 -131
l-52 -106l-46 -98q-12 -27 -22.5 -51.5t-25.5 -50.5q-8 -2 -13.5 -1.5t-12.5 0.5q-23 -3 -45 2z" />
    <glyph glyph-name="emdash" unicode="&#x2014;" horiz-adv-x="996" 
d="M60 374q39 5 82 4.5t91 -2.5q60 -2 120.5 -3t127.5 1q48 2 93.5 3t89.5 -2q45 1 91.5 1t94.5 -2q31 0 67 -0.5t62 -3.5q5 -8 5 -20t-3 -23l-2 -25q0 -8 0.5 -18t-7.5 -17q-6 -2 -17.5 -3t-25 -1h-26.5h-22l-222 2q-60 -2 -115.5 -2.5t-109.5 1.5q-45 -1 -92 -0.5
t-100 3.5q-47 -3 -88.5 -3.5t-76.5 1.5q-8 1 -14 8t-3 17q-2 18 0 37q-5 11 -3 23.5t3 23.5z" />
    <glyph glyph-name="AE" unicode="&#xc6;" horiz-adv-x="718" 
d="M27 10q14 60 27 119.5t29 116.5q15 63 30 125.5t32 120.5q7 28 14.5 61.5t15 65.5t14 61t12.5 50q17 2 30.5 2.5t26 0.5t26.5 -1t32 -1h4h9q72 0 145 -1t145 -2q25 0 48.5 2.5t49.5 1.5q0 -47 1 -84t-1 -79q-23 -6 -48 -5t-47 0q-17 0 -28 -0.5t-21.5 -1t-22 -0.5
t-27.5 1q-8 1 -20.5 0t-17.5 -6q0 -23 0.5 -56t-0.5 -56q15 0 27.5 -0.5t27.5 0.5q30 2 49.5 2.5t49.5 0.5q1 -13 2 -36t1 -47.5t-1.5 -45t-3.5 -28.5q-44 1 -76.5 0.5t-76.5 -1.5q-2 0 -2.5 -16.5t-0.5 -37.5t0.5 -41t0.5 -26h61t56 -0.5t56 -1.5t61 -2q5 -46 2.5 -92
t-4.5 -75q-19 -2 -37.5 -1t-37.5 2q-20 1 -41 0t-41 1q-10 2 -18.5 0t-19.5 -1q-15 1 -30 1.5t-31 -0.5t-32.5 -1h-31h-26h-15.5h-4h-5.5t-9.5 1q-6 1 -15 2q-2 35 -2.5 65t-0.5 65l-33 1q-33 -1 -51.5 -2t-26.5 -7q-7 -30 -15 -57.5t-16 -56.5q-33 -8 -73.5 -7.5t-73.5 7.5
zM245 294q11 0 20.5 1t27.5 0l20 -1q-1 11 -1 24v21q3 49 1 91.5t-3 90.5v34l-7 1l-27 -126z" />
    <glyph glyph-name="Oslash" unicode="&#xd8;" horiz-adv-x="549" 
d="M522 371q-1 -36 -5 -74.5t-12.5 -75t-21 -69.5t-29.5 -58q-38 -53 -78.5 -75.5t-92.5 -26.5q-26 0 -48.5 2.5t-42.5 10.5l-1 -5q-6 -20 -13 -38q-6 -16 -13 -33.5t-12 -31.5q-10 -3 -16.5 -1t-15.5 5q-14 2 -20.5 6.5t-10.5 5.5q-5 1 -12.5 8t-9.5 12q5 19 12.5 40
t13.5 40q7 21 14 43l2 7v1q-8 9 -16 19.5t-16 23.5q-36 66 -52 132t-16 129q2 82 16 150.5t55 125.5q30 44 77.5 70.5t101.5 28.5q14 0 29.5 -1.5t30.5 -5.5l3 9l17 57q2 11 9.5 27.5t13.5 25.5l28 -4q7 0 14.5 -4.5t14.5 -5.5q16 -7 26 -19l-20 -58l-23 -68q15 -12 25 -25
q45 -55 70.5 -131t23.5 -169zM362 373q-1 31 -5 63t-15 59l-95 -310q3 -1 9 -1q26 0 46 16.5t33.5 43.5t20 60.5t6.5 68.5zM263 562q-25 0 -44.5 -16.5t-33 -43.5t-20.5 -61t-7 -70q0 -21 4.5 -47t12.5 -52l91 289q-1 0 -1.5 0.5t-1.5 0.5z" />
    <glyph glyph-name="ae" unicode="&#xe6;" horiz-adv-x="669" 
d="M447 534q45 0 84.5 -17.5t70.5 -51.5q30 -45 41 -89q8 -20 10.5 -41t4.5 -41q2 -17 0.5 -38t-3.5 -38q-27 -8 -62 -10l-104 -3l-100 2q0 -6 0.5 -16t4.5 -21q9 -31 29 -44.5t45 -13.5q17 1 31.5 4t26.5 10q8 5 18 11.5t15 13.5q3 5 7 11.5t6 8.5q11 -7 17.5 -15t15.5 -16
q10 -8 19 -16.5t20 -24.5q-4 -11 -10.5 -21t-11.5 -18q-13 -14 -26.5 -23.5t-32.5 -20.5q-26 -14 -51 -20t-57 -3q-41 1 -72 20.5t-55 49.5q-29 -29 -57 -41.5t-60 -17.5q-6 -2 -25 -4t-36 -2q-34 0 -55 8q-23 9 -35 24t-22 32q-5 6 -8 19t-5.5 28t-3.5 29.5t-1 23.5
q0 33 5.5 64.5t19.5 56.5q5 9 14 17.5t18.5 15.5t19 12t15.5 6q20 4 42.5 7.5t41.5 3.5q14 2 24.5 0t24.5 -5q1 25 -6 42.5t-18 22.5q-17 6 -40.5 8.5t-38.5 -0.5q-5 -2 -15 -3.5t-21.5 -4t-23 -4.5t-17.5 -3q-10 16 -11 29l-4 46t0 49q28 7 60.5 11.5t65.5 6.5
q13 0 21.5 -0.5t16.5 -1.5t16.5 -1.5t21.5 -0.5q2 0 18.5 -3.5t24.5 -8.5q11 -7 21.5 -14.5t18.5 -16.5q23 20 51.5 31t60.5 10zM471 318l68 -2q-5 19 -9.5 37.5t-21.5 35.5q-9 8 -21 13.5t-26 5.5q-28 0 -45.5 -13.5t-22.5 -30.5q-3 -10 -5 -23t-2 -26zM246 222
q-13 2 -25.5 2.5t-23.5 0.5q-24 0 -39.5 -12.5t-15.5 -35.5q0 -30 18 -40t42 -10q22 0 45 15q2 16 1.5 40t-2.5 40z" />
    <glyph glyph-name="dotlessi" unicode="&#x131;" horiz-adv-x="223" 
d="M92 519q5 1 14 1.5t18.5 0.5t17.5 -0.5t13 -1.5q12 1 24 -4q2 -9 3 -17.5t1 -17.5v-118l-2 -128v-149v-41t-2 -41q-6 -3 -16 -3.5t-21 -0.5t-21.5 1t-16.5 2q-12 -2 -23.5 -2h-23.5q-4 1 -7.5 2.5t-5.5 6.5q0 14 -1 29t1 29l-2 131v119l-2 117l2 64q3 14 14 17z" />
    <glyph glyph-name="oslash" unicode="&#xf8;" horiz-adv-x="462" 
d="M51 455q29 38 64.5 60.5t89.5 22.5q12 -1 22.5 -3t21.5 -4l1 2l16 49q2 11 9.5 27.5t13.5 25.5l27 -4q8 0 12 -4.5t11 -5.5q16 -7 26 -19l-20 -58l-19 -54q12 -11 22 -23t18 -26q24 -47 30.5 -90.5t9.5 -90.5q-3 -60 -14 -100.5t-26 -73.5q-29 -52 -67 -74t-85 -24
q-26 1 -49 6l-1 -3q-7 -20 -13 -38q-6 -16 -12.5 -33.5t-11.5 -31.5q-11 -3 -17.5 -1t-15.5 5q-14 2 -16.5 6.5t-7.5 5.5t-8 4.5t-6 8.5q5 16 9 30t8 27t7.5 26.5t8.5 29.5l1 5q-13 13 -23 30q-26 40 -42 87t-14 105q-1 27 1 55.5t7 55t13 49t19 38.5zM276 266q0 28 -6 52
l-56 -172q28 2 43 35.5t19 84.5zM144 264q0 -19 5 -44l53 166q-16 -2 -25.5 -9t-16.5 -24q-9 -20 -12 -43t-4 -46z" />
    <glyph glyph-name="trademark" unicode="&#x2122;" horiz-adv-x="624" 
d="M38 730q17 3 39 1l48 -1l55 1l43 -1l39 2q2 -8 2 -15.5v-15.5v-21l-2 -13q-5 -2 -10.5 -2h-11.5h-39l-16 -1v-27l3 -81l1 -74q1 -23 0.5 -32t-0.5 -19q-8 -1 -16 -1.5t-16 -0.5h-34q-6 -2 -6 3q-2 14 -2 28v28v72l-1 53q-1 10 -1 24.5t-1 25.5l-28 1q-13 0 -25 1.5
t-23 2.5v20l-1 14q0 8 0.5 15t2.5 13zM296 737h21.5t20.5 -1h57l11 -27q3 -14 9.5 -28.5t11.5 -23.5q8 18 14.5 37.5t13.5 38.5q14 2 27 1.5t27 -1.5q15 1 29.5 1.5t29.5 -1.5q2 -42 0 -83v-79v-96q0 -10 -0.5 -20t0.5 -20q-5 -1 -10.5 -1h-10.5h-32h-9.5t-9.5 1
q-1 19 -0.5 31.5t0.5 31.5v86q-1 11 -1 21t-2 21q-5 -12 -9 -24.5t-8 -24.5l-20 -67q-3 -9 -7 -18t-8 -17q-8 -3 -22 1q-7 13 -11 26t-9 27l-21 61l-15 41q-3 -15 -2.5 -37t0.5 -39q1 -33 0 -67q1 -14 1 -27.5t-2 -25.5l-31 -1h-19t-18 1l-3 78l1 68l-2 77l1 74l2 4z" />
    <glyph glyph-name="degree" unicode="&#xb0;" horiz-adv-x="402" 
d="M78 699q20 22 49.5 31.5t67.5 11.5q45 0 76.5 -15t55.5 -41q19 -26 26 -52.5t9 -54.5q-2 -33 -12.5 -58t-27.5 -42q-23 -26 -52 -37t-67 -13q-41 2 -69.5 11.5t-48.5 28.5q-21 23 -32.5 48.5t-11.5 61.5q-2 30 7.5 64t29.5 56zM145 586q1 -13 4 -25.5t10 -20.5
q8 -9 20 -13.5t24 -4.5q11 0 21 6.5t17 15.5q10 10 13 20.5t3 21.5q0 13 -3 24.5t-12 20.5q-5 8 -14.5 13.5t-23.5 5.5q-31 0 -46 -19q-8 -9 -10 -20.5t-3 -24.5z" />
    <glyph glyph-name="registered" unicode="&#xae;" horiz-adv-x="550" 
d="M297 638q10 0 19.5 -1t15.5 -3q22 -8 32 -33q10 -24 12 -45q0 -34 -11 -51q-9 -11 -15 -15.5t-11 -8.5l14 -36l17 -41q4 -9 6 -17l-23 -1h-26q-2 0 -8 0.5t-9 1.5q-7 13 -10.5 23t-8.5 21l-14 34q-2 4 -4 7l-10.5 -1.5t-8.5 0.5q-4 0 -5.5 0.5t-5.5 -0.5q-2 -11 -1.5 -19
t0.5 -14v-36q0 -5 -0.5 -8.5t-0.5 -7.5q-6 -1 -14 -1.5t-14 -0.5q-13 -2 -25 0q-8 0 -9 3q-3 11 -1 25l-1 77l1 60v44q-1 12 -1 24.5t2 20.5q14 2 28.5 2h28.5zM242 533q8 -1 13.5 -1h13.5q6 -1 9.5 -0.5t8.5 0.5q5 1 9 2t6 3q5 5 4 16q1 12 -9 19q-6 2 -13 2q-5 1 -10 1
h-10h-21q-1 -6 -1 -11.5v-11.5v-19zM271 689q-28 0 -55 -11t-53 -30q-28 -32 -44 -63.5t-16 -66.5q0 -37 13.5 -72.5t36.5 -68.5q27 -25 57.5 -39t65.5 -16q38 2 70.5 17t60.5 48q19 27 29.5 61t9.5 70q0 26 -11 58.5t-35 61.5q-55 54 -129 51zM281 770q41 1 78 -14.5
t75 -41.5q47 -41 71.5 -96t22.5 -106q0 -52 -21.5 -96.5t-55.5 -92.5q-38 -34 -82 -54.5t-95 -22.5q-111 6 -192 97q-28 39 -44.5 82t-15.5 95q5 48 22.5 92.5t52.5 85.5q39 38 84 56t100 16z" />
    <glyph glyph-name="copyright" unicode="&#xa9;" horiz-adv-x="816" 
d="M398 654q-45 1 -86 -17t-82 -47q-45 -53 -71 -101.5t-24 -105.5q0 -115 75 -221q35 -42 84 -68t111 -26q121 0 211 105q31 44 47.5 98t15.5 112q0 40 -18 92t-56 98q-87 87 -207 81zM414 751q60 2 115.5 -21t111.5 -61q34 -30 60.5 -66t44.5 -75t26.5 -79t7.5 -77
q0 -38 -8.5 -73.5t-23.5 -69t-35.5 -67t-45.5 -68.5q-58 -50 -123 -80t-141 -30q-85 2 -154.5 37t-129.5 103q-41 57 -63 120.5t-20 139.5q7 69 30 135.5t75 126.5q58 56 125 82.5t148 22.5zM250 363q0 48 8.5 86t22.5 62q14 25 33 38.5t39 21.5t41 10.5t34 2.5q14 2 36 0
q11 -1 23 -2q1 -5 1.5 -15t0.5 -19.5v-17t-1 -7.5q1 -1 1 -7v-13v-14t-1 -10h-37q-14 0 -31 -4t-27 -10t-24 -29.5t-14 -62.5q0 -23 2 -38.5t5.5 -26t7.5 -17.5t9 -13q8 -12 21.5 -19.5t26.5 -7.5h39h29q1 -7 1 -24.5v-31.5v-12v-16.5t-0.5 -14.5t-0.5 -7q-1 0 -11.5 -1
t-24.5 -1h-17.5h-21.5t-21 0.5t-16 1.5q-18 2 -39.5 10.5t-37.5 25.5q-18 20 -28 41t-15 41q-4 20 -8.5 44.5t-4.5 55.5z" />
    <glyph glyph-name="Adieresis" unicode="&#xc4;" horiz-adv-x="516" 
d="M166 890q12 0 24.5 -5.5t22.5 -15t17 -22t7 -26.5q0 -36 -22.5 -54t-50.5 -18q-13 0 -25 6t-21 15t-14 20.5t-5 23.5q0 19 6 33.5t16 24t21.5 14t23.5 4.5zM337 748q-33 2 -54.5 19.5t-21.5 50.5q0 32 22.5 52t49.5 20q13 0 25.5 -6.5t22.5 -16.5t16 -22t6 -24
q0 -33 -20 -53t-46 -20zM0 10q11 60 20.5 119.5t22.5 116.5q12 63 23 125.5t25 120.5q6 28 11.5 61.5t11 65.5t10.5 61t10 50q49 6 109 5t117 1q4 -21 10.5 -50t14 -60.5t15 -64t13.5 -62.5q14 -68 27.5 -132t29.5 -141q6 -28 12 -54t11 -53t11 -55.5t12 -61.5
q-19 -1 -41 -1.5t-43 -0.5t-38.5 1.5t-27.5 6.5q-10 30 -16 59t-14 62q-22 3 -41.5 3.5t-45.5 -0.5q-33 0 -53.5 -1t-28.5 -7q-5 -30 -11.5 -60t-13.5 -59q-34 -2 -71 -2t-71 7zM205 294q11 0 18.5 0.5t26.5 -0.5h27t22 2l-10.5 63t-12.5 63l-26 113h-5l-17 -105z" />
    <glyph glyph-name="Agrave" unicode="&#xc0;" horiz-adv-x="516" 
d="M0 10q11 60 20.5 119.5t22.5 116.5q12 63 23 125.5t25 120.5q6 28 11.5 61.5t11 65.5t10.5 61t10 50q49 6 109 5t117 1q4 -21 10.5 -50t14 -60.5t15 -64t13.5 -62.5q14 -68 27.5 -132t29.5 -141q6 -28 12 -54t11 -53t11 -55.5t12 -61.5q-19 -1 -41 -1.5t-43 -0.5
t-38.5 1.5t-27.5 6.5q-10 30 -16 59t-14 62q-22 3 -41.5 3.5t-45.5 -0.5q-33 0 -53.5 -1t-28.5 -7q-5 -30 -11.5 -60t-13.5 -59q-34 -2 -71 -2t-71 7zM205 294q11 0 18.5 0.5t26.5 -0.5h27t22 2l-10.5 63t-12.5 63l-26 113h-5l-17 -105zM299 752q-7 -2 -13 -2h-14t-21.5 0.5
t-21.5 -0.5l-31 25q-14 13 -27.5 28t-23.5 26q-3 3 -8 9t-10.5 12.5t-9.5 13t-5 10.5q11 5 24.5 4.5t26.5 1.5q10 2 20 1.5t19 -0.5q22 4 45 0l21 -48q5 -14 13 -35t16 -46z" />
    <glyph glyph-name="Aring" unicode="&#xc5;" horiz-adv-x="516" 
d="M0 10q11 60 20.5 119.5t22.5 116.5q12 63 23 125.5t25 120.5q9 48 18.5 105t17.5 102q-8 12 -13.5 31.5t-5.5 40.5q0 36 12.5 64.5t33 48t46 30t51.5 10.5q28 0 53 -11.5t44 -32.5t30 -49.5t11 -62.5q0 -24 -5 -39.5t-16 -29.5l45 -200l57 -273q6 -28 12 -54t11 -53
t11 -55.5t12 -61.5q-19 -1 -41 -1.5t-43 -0.5t-38.5 1.5t-27.5 6.5q-10 30 -16 59t-14 62q-22 3 -41.5 3.5t-45.5 -0.5q-33 0 -53.5 -1t-28.5 -7q-5 -30 -11.5 -60t-13.5 -59q-34 -2 -71 -2t-71 7zM205 294q11 0 18.5 0.5t26.5 -0.5h27t22 2l-10.5 63t-12.5 63l-26 113h-5
l-17 -105zM246 829q-19 0 -35 -14.5t-16 -44.5q0 -19 12 -37.5t38 -18.5q22 0 36.5 17t14.5 41q0 27 -15 42t-35 15z" />
    <glyph glyph-name="Eacute" unicode="&#xc9;" horiz-adv-x="456" 
d="M164 752q8 25 16 46t13 35l21 48q22 4 45 0q9 0 19 0.5t20 -1.5q13 -2 26.5 -1.5t24.5 -4.5q-1 -4 -5 -10.5t-9.5 -13t-10.5 -12.5t-8 -9q-10 -11 -23.5 -26t-27.5 -28l-31 -25q-8 1 -21.5 0.5t-21.5 -0.5h-14t-13 2zM33 731q75 1 151.5 -0.5t151.5 -2.5q25 0 48.5 2.5
t49.5 1.5q0 -47 1 -84t-1 -79q-23 -6 -48 -5t-47 0q-17 0 -28 -0.5t-21.5 -1t-22 -0.5t-27.5 1q-8 1 -20.5 0t-17.5 -6q0 -23 0.5 -56t-0.5 -56q15 0 27.5 -0.5t27.5 0.5q30 2 49.5 2.5t49.5 0.5q1 -13 2 -36t1 -47.5t-1.5 -45t-3.5 -28.5q-44 1 -76.5 0.5t-76.5 -1.5
q-2 0 -2.5 -16.5t-0.5 -37.5t0.5 -41t0.5 -26h61t56 -0.5t56 -1.5t61 -2q5 -46 2.5 -92t-4.5 -75q-19 -2 -37.5 -1t-37.5 2q-20 1 -41 0t-41 1q-10 2 -18.5 0t-19.5 -1q-15 1 -30 1.5t-31 -0.5t-32.5 -1h-31h-26h-15.5h-6t-10 1l-14 2q-3 36 -3 70t-1 70q0 16 -0.5 29.5
t-0.5 26.5v26.5v30.5q-1 18 -1.5 42t-0.5 42q2 49 0 96.5t-2 95.5q-1 48 -1 100.5t3 99.5z" />
    <glyph glyph-name="Odieresis" unicode="&#xd6;" horiz-adv-x="533" 
d="M178 890q12 0 24.5 -5.5t22.5 -15t17 -22t7 -26.5q0 -36 -22.5 -54t-50.5 -18q-13 0 -25 6t-21 15t-14 20.5t-5 23.5q0 19 6 33.5t16 24t21.5 14t23.5 4.5zM357 748q-33 2 -54.5 19.5t-21.5 50.5q0 32 22.5 52t49.5 20q13 0 25.5 -6.5t22.5 -16.5t16 -22t6 -24
q0 -33 -20 -53t-46 -20zM263 562q-25 0 -44.5 -16.5t-33 -43.5t-20.5 -61t-7 -70q0 -25 6 -57.5t18.5 -61t31 -48.5t42.5 -20q26 0 46 16.5t33.5 43.5t20 60.5t6.5 68.5q0 31 -4.5 63.5t-15.5 59.5t-30 45t-49 21zM522 371q-1 -36 -5 -74.5t-12.5 -75t-21 -69.5t-29.5 -58
q-38 -53 -78.5 -75.5t-92.5 -26.5q-32 0 -58.5 4.5t-51 17t-47.5 35t-48 58.5q-36 66 -52 132t-16 129q2 82 16 150.5t55 125.5q30 44 77.5 70.5t101.5 28.5q24 0 49.5 -5t48 -14.5t41 -23t29.5 -29.5q45 -55 70.5 -131t23.5 -169z" />
    <glyph glyph-name="adieresis" unicode="&#xe4;" horiz-adv-x="411" 
d="M122 706q12 0 24.5 -5.5t22.5 -15t17 -22t7 -26.5q0 -36 -22.5 -54t-50.5 -18q-13 0 -25 6t-21 15t-14 20.5t-5 23.5q0 19 6 33.5t16 24t21.5 14t23.5 4.5zM293 564q-33 2 -54.5 19.5t-21.5 50.5q0 32 22.5 52t49.5 20q13 0 25.5 -6.5t22.5 -16.5t16 -22t6 -24
q0 -33 -20 -53t-46 -20zM61 398q-6 16 -7 29l-4 46t0 49q28 7 65.5 12.5t86.5 5.5q29 0 52.5 -3.5t40.5 -12.5q18 -11 33 -24t25.5 -31.5t16.5 -43.5t7 -60q3 -47 3 -87v-88q2 -48 1 -93t-5 -93q-23 -3 -48.5 -3t-47.5 -2q-2 0 -11 -1.5t-9 0.5q-2 2 -6 12t-4 13
q-8 -6 -23 -11.5t-26 -7.5q-6 -2 -20 -4t-31 -2q-34 0 -55 8q-23 9 -36.5 24t-20.5 32q-4 7 -7.5 20.5t-5.5 28t-3.5 28.5t-1.5 23q0 33 5.5 64.5t19.5 56.5q11 17 30.5 31.5t36.5 19.5t41 8t43 3q14 0 24.5 -1t24.5 -4q1 25 -6 41.5t-18 23.5q-11 6 -27 8t-30 2
q-16 0 -28.5 -1t-30.5 -5q-15 -4 -24 -6.5t-20 -4.5zM246 222q-13 2 -25.5 2.5t-23.5 0.5q-24 0 -39.5 -11t-15.5 -37q0 -27 18.5 -38.5t41.5 -11.5t45 11q2 16 1.5 42t-2.5 42z" />
    <glyph glyph-name="agrave" unicode="&#xe0;" horiz-adv-x="411" 
d="M61 398q-6 16 -7 29l-4 46t0 49q28 7 65.5 12.5t86.5 5.5q29 0 52.5 -3.5t40.5 -12.5q18 -11 33 -24t25.5 -31.5t16.5 -43.5t7 -60q3 -47 3 -87v-88q2 -48 1 -93t-5 -93q-23 -3 -48.5 -3t-47.5 -2q-2 0 -11 -1.5t-9 0.5q-2 2 -6 12t-4 13q-8 -6 -23 -11.5t-26 -7.5
q-6 -2 -20 -4t-31 -2q-34 0 -55 8q-23 9 -36.5 24t-20.5 32q-4 7 -7.5 20.5t-5.5 28t-3.5 28.5t-1.5 23q0 33 5.5 64.5t19.5 56.5q11 17 30.5 31.5t36.5 19.5t41 8t43 3q14 0 24.5 -1t24.5 -4q1 25 -6 41.5t-18 23.5q-11 6 -27 8t-30 2q-16 0 -28.5 -1t-30.5 -5
q-15 -4 -24 -6.5t-20 -4.5zM246 222q-13 2 -25.5 2.5t-23.5 0.5q-24 0 -39.5 -11t-15.5 -37q0 -27 18.5 -38.5t41.5 -11.5t45 11q2 16 1.5 42t-2.5 42zM269 572q-7 -2 -13 -2h-14t-21.5 0.5t-21.5 -0.5l-31 25q-14 13 -27.5 28t-23.5 26q-3 3 -8 9t-10.5 12.5t-9.5 13
t-5 10.5q11 5 24.5 4.5t26.5 1.5q10 2 20 1.5t19 -0.5q22 4 45 0l21 -48q5 -14 13 -35t16 -46z" />
    <glyph glyph-name="aring" unicode="&#xe5;" horiz-adv-x="411" 
d="M128 730q24 25 73 27q28 0 47.5 -9t34.5 -26q12 -17 16.5 -33.5t5.5 -33.5q-3 -41 -25 -63q-14 -16 -32.5 -23t-41.5 -8q-49 1 -74 25q-13 14 -20 30t-7 39q-2 19 4 40t19 35zM175 658q1 -7 2.5 -13t5.5 -11t10 -7t12 -2q11 0 20 11q5 5 6.5 10.5t1.5 11.5q0 16 -7 23
q-7 10 -20 10q-17 0 -24 -10q-4 -5 -5 -10.5t-2 -12.5zM61 398q-6 16 -7 29l-4 46t0 49q28 7 65.5 12.5t86.5 5.5q29 0 52.5 -3.5t40.5 -12.5q18 -11 33 -24t25.5 -31.5t16.5 -43.5t7 -60q3 -47 3 -87v-88q2 -48 1 -93t-5 -93q-23 -3 -48.5 -3t-47.5 -2q-2 0 -11 -1.5
t-9 0.5q-2 2 -6 12t-4 13q-8 -6 -23 -11.5t-26 -7.5q-6 -2 -20 -4t-31 -2q-34 0 -55 8q-23 9 -36.5 24t-20.5 32q-4 7 -7.5 20.5t-5.5 28t-3.5 28.5t-1.5 23q0 33 5.5 64.5t19.5 56.5q11 17 30.5 31.5t36.5 19.5t41 8t43 3q14 0 24.5 -1t24.5 -4q1 25 -6 41.5t-18 23.5
q-11 6 -27 8t-30 2q-16 0 -28.5 -1t-30.5 -5q-15 -4 -24 -6.5t-20 -4.5zM246 222q-13 2 -25.5 2.5t-23.5 0.5q-24 0 -39.5 -11t-15.5 -37q0 -27 18.5 -38.5t41.5 -11.5t45 11q2 16 1.5 42t-2.5 42z" />
    <glyph glyph-name="eacute" unicode="&#xe9;" horiz-adv-x="419" 
d="M197 534q45 0 84.5 -17.5t70.5 -51.5q30 -45 41 -89q8 -20 10.5 -41t4.5 -41q2 -17 0.5 -38t-3.5 -38q-27 -8 -62 -10l-104 -3l-100 2q0 -6 0.5 -16t4.5 -21q9 -31 29 -44.5t45 -13.5q17 1 31.5 4t26.5 10q8 5 18 11.5t15 13.5q3 5 7 11.5t6 8.5q11 -7 17.5 -15t15.5 -16
q10 -8 19 -16.5t20 -24.5q-4 -11 -10.5 -21t-11.5 -18q-13 -14 -26.5 -23.5t-32.5 -20.5q-26 -14 -51 -20t-57 -3q-41 1 -71.5 20t-59.5 44q-18 20 -29.5 38.5t-19.5 46.5q-7 26 -10 58t-5 60q1 51 8 99.5t33 91.5q23 38 61.5 61.5t84.5 21.5zM136 315q20 1 42.5 1.5
t42.5 1.5l68 -2q-5 19 -9.5 37.5t-21.5 35.5q-9 8 -21 13.5t-26 5.5q-28 0 -45.5 -13.5t-22.5 -30.5q-3 -10 -5 -23t-2 -26zM154 572q8 25 16 46t13 35l21 48q22 4 45 0q9 0 19 0.5t20 -1.5q13 -2 26.5 -1.5t24.5 -4.5q-1 -4 -5 -10.5t-9.5 -13t-10.5 -12.5t-8 -9
q-10 -11 -23.5 -26t-27.5 -28l-31 -25q-8 1 -21.5 0.5t-21.5 -0.5h-14t-13 2z" />
    <glyph glyph-name="odieresis" unicode="&#xf6;" horiz-adv-x="416" 
d="M122 706q12 0 24.5 -5.5t22.5 -15t17 -22t7 -26.5q0 -36 -22.5 -54t-50.5 -18q-13 0 -25 6t-21 15t-14 20.5t-5 23.5q0 19 6 33.5t16 24t21.5 14t23.5 4.5zM293 564q-33 2 -54.5 19.5t-21.5 50.5q0 32 22.5 52t49.5 20q13 0 25.5 -6.5t22.5 -16.5t16 -22t6 -24
q0 -33 -20 -53t-46 -20zM51 455q29 38 64.5 60.5t89.5 22.5q59 -4 99 -31t62 -66q24 -47 30.5 -90.5t9.5 -90.5q-3 -60 -14 -100.5t-26 -73.5q-29 -52 -67 -74t-85 -24q-100 2 -147 77q-26 40 -42 87t-14 105q-1 27 1 55.5t7 55t13 49t19 38.5zM144 264q0 -19 4.5 -39.5
t12.5 -38t20.5 -29t29.5 -11.5q29 0 45 34t20 86q0 54 -18.5 87t-45.5 33q-20 0 -32 -6.5t-20 -26.5q-9 -20 -12 -43t-4 -46z" />
    <glyph glyph-name="Euro" unicode="&#x20ac;" horiz-adv-x="477" 
d="M5 330q6 6 16 7t23 1v28v17h-39l-2 24v45l2 20q3 6 15 5t22 0h8q6 45 21 82t29 63q12 21 28.5 37t35.5 28t39 20.5t37 14.5q19 6 46.5 8.5t48.5 4.5q11 1 27.5 0t33.5 -2q19 -2 41 -3q1 -8 2 -24t1.5 -32.5t0.5 -29t-1 -12.5q1 -2 1 -11.5v-21.5v-23.5t-1 -17.5
q-4 -1 -9 -1h-11.5t-16.5 1t-27 0.5t-36 -2t-35.5 -5t-24.5 -7.5q-11 -5 -29.5 -23.5t-25.5 -45.5l17 -1h39l29 1h55q19 1 28 -6q5 -9 5.5 -17.5t0.5 -17.5q0 -12 -1 -24t-5 -24q-3 -3 -6.5 -5.5t-10.5 -1.5l-36 -1l-47 1h-28l-29 -1l-20 2q0 -14 1 -25l2 -22h49l21 2l53 -2
q12 2 21 -5q4 -9 4.5 -17.5t0.5 -17.5q0 -10 -0.5 -19t-4.5 -17q-1 -10 -8 -20q-8 -1 -15 -1.5t-16 1.5q-8 -1 -10.5 -1t-4 0.5t-3.5 1t-9 0.5l-32 2h-19q3 -6 6 -14t7 -13q14 -20 31.5 -26.5t45.5 -8.5q14 -1 32.5 -1t32.5 1l49 -1q2 -12 2 -40v-52v-20.5v-27t-0.5 -23.5
t-1.5 -11q0 -1 -18 -2t-42 -1h-28.5h-33t-32.5 0.5t-26 2.5q-19 3 -36 6t-32 8t-29.5 13.5t-27.5 22.5q-30 32 -51.5 72.5t-28.5 73.5q-2 9 -5.5 19t-5.5 21l-8 -1q-11 -1 -20.5 -0.5t-20.5 4.5l-3 35q-1 16 0 28.5t3 24.5z" />
    <glyph glyph-name="uni00A0" unicode="&#xa0;" horiz-adv-x="500" 
 />
    <glyph glyph-name="fi" unicode="&#xfb01;" horiz-adv-x="503" 
d="M273 715v-52q0 -16 0.5 -29t-1.5 -29q-15 -2 -23.5 -2h-18.5q-23 2 -31.5 -10t-10.5 -34q-1 -10 -2 -19.5t1 -17.5l40 -2l24 -1q1 -15 0 -30q1 -18 1 -26v-26l-1 -34l-15 -3t-15 -1q-8 -1 -17 -1.5t-17 0.5l-2 -88l1 -116l-1 -110v-86q-6 -2 -15 -2.5t-19 -1t-18.5 0
t-14.5 2.5l-52 -2q-13 0 -15 5l-2 110l1 104l-1 91l-1 95l-21 1q-7 1 -11 1t-11 3q-5 17 -5 30v67q0 5 1 9t2 9q11 3 22 4t22 1l2 74q2 19 8 38.5t13 38.5q10 19 26.5 33.5t36.5 19.5q14 2 27 3.5t27 1.5q21 1 42.5 2t42.5 -3zM392 728q13 -1 22 -4.5t17 -8.5
q17 -13 23 -28.5t6 -32.5q2 -14 -2.5 -26.5t-11.5 -22.5q-22 -22 -58 -22q-14 0 -25.5 4.5t-20.5 12.5q-12 8 -17 23t-5 31q0 19 4 28.5t11 19.5q10 14 25 19t32 7zM372 519q5 1 14 1.5t18.5 0.5t17.5 -0.5t13 -1.5q12 1 24 -4q2 -9 3 -17.5t1 -17.5v-118l-2 -128v-149v-41
t-2 -41q-6 -3 -16 -3.5t-21 -0.5t-21.5 1t-16.5 2q-12 -2 -23.5 -2h-23.5q-4 1 -7.5 2.5t-5.5 6.5q0 14 -1 29t1 29l-2 131v119l-2 117l2 64q3 14 14 17z" />
    <glyph glyph-name="fl" unicode="&#xfb02;" horiz-adv-x="498" 
d="M273 715v-52q0 -16 0.5 -29t-1.5 -29q-15 -2 -23.5 -2h-18.5q-23 2 -31.5 -10t-10.5 -34q-1 -10 -2 -19.5t1 -17.5l40 -2l24 -1q1 -15 0 -30q1 -18 1 -26v-26l-1 -34l-15 -3t-15 -1q-8 -1 -17 -1.5t-17 0.5l-2 -88l1 -116l-1 -110v-86q-6 -2 -15 -2.5t-19 -1t-18.5 0
t-14.5 2.5l-52 -2q-13 0 -15 5l-2 110l1 104l-1 91l-1 95l-21 1q-7 1 -11 1t-11 3q-5 17 -5 30v67q0 5 1 9t2 9q11 3 22 4t22 1l2 74q2 19 8 38.5t13 38.5q10 19 26.5 33.5t36.5 19.5q14 2 27 3.5t27 1.5q21 1 42.5 2t42.5 -3zM326 725q9 7 19.5 7t22.5 1l59 -7
q8 0 13.5 -2.5t14.5 -4.5q2 -6 3 -13t-1 -15v-126v-110l-2 -167v-131v-75v-78q-8 -6 -14 -3l-55 -1l-34 -2q-9 0 -16.5 1t-13.5 3q-1 8 -1.5 16t-0.5 16v108l2 119v166v92v114l2 70z" />
    <glyph glyph-name="quotedbl" unicode="&#x22;" horiz-adv-x="433" 
d="M45 697q16 3 33.5 3t37.5 -1q16 1 33.5 2t34.5 -1q8 -8 8 -17q0 -27 -1.5 -53t-6.5 -52l-14 -99q-3 -20 -7 -40.5t-12 -40.5q-14 -1 -27.5 -1.5t-25.5 3.5q-7 13 -11.5 26t-8.5 26q-11 26 -16 46.5t-10 40.5q-5 33 -10.5 66t-5.5 66q-3 17 9 26zM381 694q12 -8 10 -26
q3 -33 -2 -66t-8 -66q-5 -20 -7.5 -40.5t-11.5 -46.5l-6 -26t-10 -26q-12 -4 -24.5 -3.5t-26.5 2.5q-18 40 -27 81l-21 99q-8 26 -8 52t-1 53q0 11 7 17q17 2 32.5 0.5t31.5 -2.5q20 1 37.5 1t34.5 -3z" />
    <glyph glyph-name="exclam" unicode="!" horiz-adv-x="276" 
d="M207 7q-10 -5 -21.5 -7t-23.5 -4l-81 3q-11 6 -15 22l3 58q2 14 1.5 28t-1.5 28q3 11 16 14q11 2 25.5 0.5t27.5 -3.5q16 1 29 0.5t29 -0.5q6 0 9 -7t6 -18q2 -16 1 -32t-3 -32q0 -12 0.5 -24.5t-2.5 -25.5zM213 593l2 -119l1 -82v-127q0 -9 -7 -14.5t-15 -7.5l-60 -1
q-17 -2 -32.5 -4t-32.5 2q-6 8 -7 16.5t-2 16.5v96l4 189l-2 129q-3 26 7 51q17 4 34.5 3t34.5 -3q12 2 25 2.5t27 -0.5q23 -5 23 -20v-127z" />
    <glyph glyph-name="numbersign" unicode="#" horiz-adv-x="661" 
d="M55 453q-4 10 -4 20.5t-1 22.5l4 35q0 6 1.5 12t2.5 14q8 5 17 3l90 -2l3 74l2 70l1 22q3 3 12.5 4.5t20 2.5t20.5 1t14 1l23 -7q5 0 8.5 -2.5t8.5 -4.5q3 -14 2 -28l-3 -124l-1 -12l102 -3h4l3 80l2 70l1 22q7 7 13 7t14 2l64 -7q4 0 7.5 -2.5t8.5 -4.5q2 -6 2.5 -13
t0.5 -15l-4 -124l-1 -18l44 -1l71 -1q4 -8 2 -14l1 -33v-33v-16t-1 -11q-3 -1 -9 -1h-13.5t-13.5 0.5t-9 0.5l-62 2h-12l-1 -150v-8h3l44 -1l71 -1q4 -8 2 -14l1 -33v-33v-16t-1 -11q-3 -1 -9 -1h-13.5t-13.5 0.5t-9 0.5l-62 2h-15v-16l-3 -79v-78q-5 -5 -9 -3l-62 -1
l-21 -2q-5 0 -10 1t-7 2q-2 8 -2 16v16l4 108v38l-90 3h-17v-21l-3 -79l-1 -78q-4 -5 -8 -3l-23 -1l-60 -2q-6 0 -10.5 1t-7.5 2q-1 8 -1 16v16l3 108v43l-51 1l-41 1l-13 2q-4 10 -4 20.5t-1 22.5l4 35q0 6 1.5 12t2.5 14q8 5 17 3l87 -2l2 133v23l-55 1l-41 1zM273 290
l105 -3h1l2 139v18l-93 3h-13l-2 -155v-2z" />
    <glyph glyph-name="dollar" unicode="$" horiz-adv-x="485" 
d="M210 858q5 10 16 10t16 1l21 -10q3 0 11.5 -3t12.5 -7q2 -8 2 -18.5v-21.5v-66q30 -1 53.5 -2t55.5 -6l3 -100q2 -20 1.5 -35t-3.5 -35q-25 -4 -50 -3t-50 5q-8 -1 -7.5 -1t-5.5 0v-76v-21q21 -6 34.5 -12.5t32.5 -14.5q20 -12 38 -28.5t32 -34.5q35 -52 39 -116
q2 -23 2.5 -44.5t-1.5 -42.5q-4 -32 -13 -56.5t-18 -45.5q-11 -23 -30 -39.5t-41 -30.5q-19 -5 -31 -8.5t-32 -2.5h-13v-130q-3 -9 -6 -5l-28 -1l-30 -3q-7 0 -15 6v46v88h-50l-88 1q-11 1 -23 2.5t-24 4.5q-1 51 0 98l2 50q0 8 0.5 14.5t2.5 14.5q23 -6 48 -5t51 -1
q16 -2 27 -2.5t32 -0.5l24 2v126l-43 19l-50 23q-32 21 -55 51q-8 11 -16.5 30t-11.5 39q-7 40 -9 82q0 20 2 36.5t6 39.5q8 23 21 48.5t29 38.5q14 13 26.5 20t25.5 12q9 5 24.5 6.5t32.5 -0.5q5 0 9 0.5t9 0.5v2l2 80v32zM184 527q0 -14 4 -18.5t13 -7.5l6 -3v57
q-2 0 -2.5 0.5t-2.5 0.5q-10 0 -14 -11.5t-4 -17.5zM287 262v-79q5 2 9 3.5t6 6.5q3 5 6 10.5t2 15.5q0 11 -5 20t-10 15z" />
    <glyph glyph-name="f_i" horiz-adv-x="503" 
d="M273 715v-52q0 -16 0.5 -29t-1.5 -29q-15 -2 -23.5 -2h-18.5q-23 2 -31.5 -10t-10.5 -34q-1 -10 -2 -19.5t1 -17.5l40 -2l24 -1q1 -15 0 -30q1 -18 1 -26v-26l-1 -34l-15 -3t-15 -1q-8 -1 -17 -1.5t-17 0.5l-2 -88l1 -116l-1 -110v-86q-6 -2 -15 -2.5t-19 -1t-18.5 0
t-14.5 2.5l-52 -2q-13 0 -15 5l-2 110l1 104l-1 91l-1 95l-21 1q-7 1 -11 1t-11 3q-5 17 -5 30v67q0 5 1 9t2 9q11 3 22 4t22 1l2 74q2 19 8 38.5t13 38.5q10 19 26.5 33.5t36.5 19.5q14 2 27 3.5t27 1.5q21 1 42.5 2t42.5 -3zM392 728q13 -1 22 -4.5t17 -8.5
q17 -13 23 -28.5t6 -32.5q2 -14 -2.5 -26.5t-11.5 -22.5q-22 -22 -58 -22q-14 0 -25.5 4.5t-20.5 12.5q-12 8 -17 23t-5 31q0 19 4 28.5t11 19.5q10 14 25 19t32 7zM372 519q5 1 14 1.5t18.5 0.5t17.5 -0.5t13 -1.5q12 1 24 -4q2 -9 3 -17.5t1 -17.5v-118l-2 -128v-149v-41
t-2 -41q-6 -3 -16 -3.5t-21 -0.5t-21.5 1t-16.5 2q-12 -2 -23.5 -2h-23.5q-4 1 -7.5 2.5t-5.5 6.5q0 14 -1 29t1 29l-2 131v119l-2 117l2 64q3 14 14 17z" />
    <glyph glyph-name="f_l" horiz-adv-x="498" 
d="M273 715v-52q0 -16 0.5 -29t-1.5 -29q-15 -2 -23.5 -2h-18.5q-23 2 -31.5 -10t-10.5 -34q-1 -10 -2 -19.5t1 -17.5l40 -2l24 -1q1 -15 0 -30q1 -18 1 -26v-26l-1 -34l-15 -3t-15 -1q-8 -1 -17 -1.5t-17 0.5l-2 -88l1 -116l-1 -110v-86q-6 -2 -15 -2.5t-19 -1t-18.5 0
t-14.5 2.5l-52 -2q-13 0 -15 5l-2 110l1 104l-1 91l-1 95l-21 1q-7 1 -11 1t-11 3q-5 17 -5 30v67q0 5 1 9t2 9q11 3 22 4t22 1l2 74q2 19 8 38.5t13 38.5q10 19 26.5 33.5t36.5 19.5q14 2 27 3.5t27 1.5q21 1 42.5 2t42.5 -3zM326 725q9 7 19.5 7t22.5 1l59 -7
q8 0 13.5 -2.5t14.5 -4.5q2 -6 3 -13t-1 -15v-126v-110l-2 -167v-131v-75v-78q-8 -6 -14 -3l-55 -1l-34 -2q-9 0 -16.5 1t-13.5 3q-1 8 -1.5 16t-0.5 16v108l2 119v166v92v114l2 70z" />
    <glyph glyph-name="less" unicode="&#x3c;" 
d="M270 219q-14 -7 -28.5 -10t-31.5 -5l-111 4q-13 8 -19 31l2 80q4 20 3.5 39t-1.5 39q3 15 21 19q17 2 36 -0.5t37 -4.5q21 2 39 1.5t39 -1.5q8 0 12 -9t8 -26q3 -22 1.5 -43.5t-2.5 -43.5v-35t-5 -35z" />
    <glyph glyph-name="greater" unicode="&#x3e;" 
d="M270 219q-14 -7 -28.5 -10t-31.5 -5l-111 4q-13 8 -19 31l2 80q4 20 3.5 39t-1.5 39q3 15 21 19q17 2 36 -0.5t37 -4.5q21 2 39 1.5t39 -1.5q8 0 12 -9t8 -26q3 -22 1.5 -43.5t-2.5 -43.5v-35t-5 -35z" />
    <glyph glyph-name="backslash" unicode="\" 
d="M270 219q-14 -7 -28.5 -10t-31.5 -5l-111 4q-13 8 -19 31l2 80q4 20 3.5 39t-1.5 39q3 15 21 19q17 2 36 -0.5t37 -4.5q21 2 39 1.5t39 -1.5q8 0 12 -9t8 -26q3 -22 1.5 -43.5t-2.5 -43.5v-35t-5 -35z" />
    <glyph glyph-name="asciicircum" unicode="^" 
d="M270 219q-14 -7 -28.5 -10t-31.5 -5l-111 4q-13 8 -19 31l2 80q4 20 3.5 39t-1.5 39q3 15 21 19q17 2 36 -0.5t37 -4.5q21 2 39 1.5t39 -1.5q8 0 12 -9t8 -26q3 -22 1.5 -43.5t-2.5 -43.5v-35t-5 -35z" />
    <glyph glyph-name="braceleft" unicode="{" 
d="M270 219q-14 -7 -28.5 -10t-31.5 -5l-111 4q-13 8 -19 31l2 80q4 20 3.5 39t-1.5 39q3 15 21 19q17 2 36 -0.5t37 -4.5q21 2 39 1.5t39 -1.5q8 0 12 -9t8 -26q3 -22 1.5 -43.5t-2.5 -43.5v-35t-5 -35z" />
    <glyph glyph-name="bar" unicode="|" 
d="M270 219q-14 -7 -28.5 -10t-31.5 -5l-111 4q-13 8 -19 31l2 80q4 20 3.5 39t-1.5 39q3 15 21 19q17 2 36 -0.5t37 -4.5q21 2 39 1.5t39 -1.5q8 0 12 -9t8 -26q3 -22 1.5 -43.5t-2.5 -43.5v-35t-5 -35z" />
    <glyph glyph-name="braceright" unicode="}" 
d="M270 219q-14 -7 -28.5 -10t-31.5 -5l-111 4q-13 8 -19 31l2 80q4 20 3.5 39t-1.5 39q3 15 21 19q17 2 36 -0.5t37 -4.5q21 2 39 1.5t39 -1.5q8 0 12 -9t8 -26q3 -22 1.5 -43.5t-2.5 -43.5v-35t-5 -35z" />
    <glyph glyph-name="asciitilde" unicode="~" 
d="M270 219q-14 -7 -28.5 -10t-31.5 -5l-111 4q-13 8 -19 31l2 80q4 20 3.5 39t-1.5 39q3 15 21 19q17 2 36 -0.5t37 -4.5q21 2 39 1.5t39 -1.5q8 0 12 -9t8 -26q3 -22 1.5 -43.5t-2.5 -43.5v-35t-5 -35z" />
    <glyph glyph-name="Ccedilla" unicode="&#xc7;" 
d="M270 219q-14 -7 -28.5 -10t-31.5 -5l-111 4q-13 8 -19 31l2 80q4 20 3.5 39t-1.5 39q3 15 21 19q17 2 36 -0.5t37 -4.5q21 2 39 1.5t39 -1.5q8 0 12 -9t8 -26q3 -22 1.5 -43.5t-2.5 -43.5v-35t-5 -35z" />
    <glyph glyph-name="Ntilde" unicode="&#xd1;" 
d="M270 219q-14 -7 -28.5 -10t-31.5 -5l-111 4q-13 8 -19 31l2 80q4 20 3.5 39t-1.5 39q3 15 21 19q17 2 36 -0.5t37 -4.5q21 2 39 1.5t39 -1.5q8 0 12 -9t8 -26q3 -22 1.5 -43.5t-2.5 -43.5v-35t-5 -35z" />
    <glyph glyph-name="Udieresis" unicode="&#xdc;" 
d="M270 219q-14 -7 -28.5 -10t-31.5 -5l-111 4q-13 8 -19 31l2 80q4 20 3.5 39t-1.5 39q3 15 21 19q17 2 36 -0.5t37 -4.5q21 2 39 1.5t39 -1.5q8 0 12 -9t8 -26q3 -22 1.5 -43.5t-2.5 -43.5v-35t-5 -35z" />
    <glyph glyph-name="aacute" unicode="&#xe1;" 
d="M270 219q-14 -7 -28.5 -10t-31.5 -5l-111 4q-13 8 -19 31l2 80q4 20 3.5 39t-1.5 39q3 15 21 19q17 2 36 -0.5t37 -4.5q21 2 39 1.5t39 -1.5q8 0 12 -9t8 -26q3 -22 1.5 -43.5t-2.5 -43.5v-35t-5 -35z" />
    <glyph glyph-name="acircumflex" unicode="&#xe2;" 
d="M270 219q-14 -7 -28.5 -10t-31.5 -5l-111 4q-13 8 -19 31l2 80q4 20 3.5 39t-1.5 39q3 15 21 19q17 2 36 -0.5t37 -4.5q21 2 39 1.5t39 -1.5q8 0 12 -9t8 -26q3 -22 1.5 -43.5t-2.5 -43.5v-35t-5 -35z" />
    <glyph glyph-name="atilde" unicode="&#xe3;" 
d="M270 219q-14 -7 -28.5 -10t-31.5 -5l-111 4q-13 8 -19 31l2 80q4 20 3.5 39t-1.5 39q3 15 21 19q17 2 36 -0.5t37 -4.5q21 2 39 1.5t39 -1.5q8 0 12 -9t8 -26q3 -22 1.5 -43.5t-2.5 -43.5v-35t-5 -35z" />
    <glyph glyph-name="ccedilla" unicode="&#xe7;" 
d="M270 219q-14 -7 -28.5 -10t-31.5 -5l-111 4q-13 8 -19 31l2 80q4 20 3.5 39t-1.5 39q3 15 21 19q17 2 36 -0.5t37 -4.5q21 2 39 1.5t39 -1.5q8 0 12 -9t8 -26q3 -22 1.5 -43.5t-2.5 -43.5v-35t-5 -35z" />
    <glyph glyph-name="egrave" unicode="&#xe8;" 
d="M270 219q-14 -7 -28.5 -10t-31.5 -5l-111 4q-13 8 -19 31l2 80q4 20 3.5 39t-1.5 39q3 15 21 19q17 2 36 -0.5t37 -4.5q21 2 39 1.5t39 -1.5q8 0 12 -9t8 -26q3 -22 1.5 -43.5t-2.5 -43.5v-35t-5 -35z" />
    <glyph glyph-name="ecircumflex" unicode="&#xea;" 
d="M270 219q-14 -7 -28.5 -10t-31.5 -5l-111 4q-13 8 -19 31l2 80q4 20 3.5 39t-1.5 39q3 15 21 19q17 2 36 -0.5t37 -4.5q21 2 39 1.5t39 -1.5q8 0 12 -9t8 -26q3 -22 1.5 -43.5t-2.5 -43.5v-35t-5 -35z" />
    <glyph glyph-name="edieresis" unicode="&#xeb;" 
d="M270 219q-14 -7 -28.5 -10t-31.5 -5l-111 4q-13 8 -19 31l2 80q4 20 3.5 39t-1.5 39q3 15 21 19q17 2 36 -0.5t37 -4.5q21 2 39 1.5t39 -1.5q8 0 12 -9t8 -26q3 -22 1.5 -43.5t-2.5 -43.5v-35t-5 -35z" />
    <glyph glyph-name="iacute" unicode="&#xed;" 
d="M270 219q-14 -7 -28.5 -10t-31.5 -5l-111 4q-13 8 -19 31l2 80q4 20 3.5 39t-1.5 39q3 15 21 19q17 2 36 -0.5t37 -4.5q21 2 39 1.5t39 -1.5q8 0 12 -9t8 -26q3 -22 1.5 -43.5t-2.5 -43.5v-35t-5 -35z" />
    <glyph glyph-name="igrave" unicode="&#xec;" 
d="M270 219q-14 -7 -28.5 -10t-31.5 -5l-111 4q-13 8 -19 31l2 80q4 20 3.5 39t-1.5 39q3 15 21 19q17 2 36 -0.5t37 -4.5q21 2 39 1.5t39 -1.5q8 0 12 -9t8 -26q3 -22 1.5 -43.5t-2.5 -43.5v-35t-5 -35z" />
    <glyph glyph-name="icircumflex" unicode="&#xee;" 
d="M270 219q-14 -7 -28.5 -10t-31.5 -5l-111 4q-13 8 -19 31l2 80q4 20 3.5 39t-1.5 39q3 15 21 19q17 2 36 -0.5t37 -4.5q21 2 39 1.5t39 -1.5q8 0 12 -9t8 -26q3 -22 1.5 -43.5t-2.5 -43.5v-35t-5 -35z" />
    <glyph glyph-name="idieresis" unicode="&#xef;" 
d="M270 219q-14 -7 -28.5 -10t-31.5 -5l-111 4q-13 8 -19 31l2 80q4 20 3.5 39t-1.5 39q3 15 21 19q17 2 36 -0.5t37 -4.5q21 2 39 1.5t39 -1.5q8 0 12 -9t8 -26q3 -22 1.5 -43.5t-2.5 -43.5v-35t-5 -35z" />
    <glyph glyph-name="ntilde" unicode="&#xf1;" 
d="M270 219q-14 -7 -28.5 -10t-31.5 -5l-111 4q-13 8 -19 31l2 80q4 20 3.5 39t-1.5 39q3 15 21 19q17 2 36 -0.5t37 -4.5q21 2 39 1.5t39 -1.5q8 0 12 -9t8 -26q3 -22 1.5 -43.5t-2.5 -43.5v-35t-5 -35z" />
    <glyph glyph-name="oacute" unicode="&#xf3;" 
d="M270 219q-14 -7 -28.5 -10t-31.5 -5l-111 4q-13 8 -19 31l2 80q4 20 3.5 39t-1.5 39q3 15 21 19q17 2 36 -0.5t37 -4.5q21 2 39 1.5t39 -1.5q8 0 12 -9t8 -26q3 -22 1.5 -43.5t-2.5 -43.5v-35t-5 -35z" />
    <glyph glyph-name="ograve" unicode="&#xf2;" 
d="M270 219q-14 -7 -28.5 -10t-31.5 -5l-111 4q-13 8 -19 31l2 80q4 20 3.5 39t-1.5 39q3 15 21 19q17 2 36 -0.5t37 -4.5q21 2 39 1.5t39 -1.5q8 0 12 -9t8 -26q3 -22 1.5 -43.5t-2.5 -43.5v-35t-5 -35z" />
    <glyph glyph-name="ocircumflex" unicode="&#xf4;" 
d="M270 219q-14 -7 -28.5 -10t-31.5 -5l-111 4q-13 8 -19 31l2 80q4 20 3.5 39t-1.5 39q3 15 21 19q17 2 36 -0.5t37 -4.5q21 2 39 1.5t39 -1.5q8 0 12 -9t8 -26q3 -22 1.5 -43.5t-2.5 -43.5v-35t-5 -35z" />
    <glyph glyph-name="otilde" unicode="&#xf5;" 
d="M270 219q-14 -7 -28.5 -10t-31.5 -5l-111 4q-13 8 -19 31l2 80q4 20 3.5 39t-1.5 39q3 15 21 19q17 2 36 -0.5t37 -4.5q21 2 39 1.5t39 -1.5q8 0 12 -9t8 -26q3 -22 1.5 -43.5t-2.5 -43.5v-35t-5 -35z" />
    <glyph glyph-name="uacute" unicode="&#xfa;" 
d="M270 219q-14 -7 -28.5 -10t-31.5 -5l-111 4q-13 8 -19 31l2 80q4 20 3.5 39t-1.5 39q3 15 21 19q17 2 36 -0.5t37 -4.5q21 2 39 1.5t39 -1.5q8 0 12 -9t8 -26q3 -22 1.5 -43.5t-2.5 -43.5v-35t-5 -35z" />
    <glyph glyph-name="ugrave" unicode="&#xf9;" 
d="M270 219q-14 -7 -28.5 -10t-31.5 -5l-111 4q-13 8 -19 31l2 80q4 20 3.5 39t-1.5 39q3 15 21 19q17 2 36 -0.5t37 -4.5q21 2 39 1.5t39 -1.5q8 0 12 -9t8 -26q3 -22 1.5 -43.5t-2.5 -43.5v-35t-5 -35z" />
    <glyph glyph-name="ucircumflex" unicode="&#xfb;" 
d="M270 219q-14 -7 -28.5 -10t-31.5 -5l-111 4q-13 8 -19 31l2 80q4 20 3.5 39t-1.5 39q3 15 21 19q17 2 36 -0.5t37 -4.5q21 2 39 1.5t39 -1.5q8 0 12 -9t8 -26q3 -22 1.5 -43.5t-2.5 -43.5v-35t-5 -35z" />
    <glyph glyph-name="udieresis" unicode="&#xfc;" 
d="M270 219q-14 -7 -28.5 -10t-31.5 -5l-111 4q-13 8 -19 31l2 80q4 20 3.5 39t-1.5 39q3 15 21 19q17 2 36 -0.5t37 -4.5q21 2 39 1.5t39 -1.5q8 0 12 -9t8 -26q3 -22 1.5 -43.5t-2.5 -43.5v-35t-5 -35z" />
    <glyph glyph-name="germandbls" unicode="&#xdf;" 
d="M270 219q-14 -7 -28.5 -10t-31.5 -5l-111 4q-13 8 -19 31l2 80q4 20 3.5 39t-1.5 39q3 15 21 19q17 2 36 -0.5t37 -4.5q21 2 39 1.5t39 -1.5q8 0 12 -9t8 -26q3 -22 1.5 -43.5t-2.5 -43.5v-35t-5 -35z" />
    <glyph glyph-name="Atilde" unicode="&#xc3;" 
d="M270 219q-14 -7 -28.5 -10t-31.5 -5l-111 4q-13 8 -19 31l2 80q4 20 3.5 39t-1.5 39q3 15 21 19q17 2 36 -0.5t37 -4.5q21 2 39 1.5t39 -1.5q8 0 12 -9t8 -26q3 -22 1.5 -43.5t-2.5 -43.5v-35t-5 -35z" />
    <glyph glyph-name="Otilde" unicode="&#xd5;" 
d="M270 219q-14 -7 -28.5 -10t-31.5 -5l-111 4q-13 8 -19 31l2 80q4 20 3.5 39t-1.5 39q3 15 21 19q17 2 36 -0.5t37 -4.5q21 2 39 1.5t39 -1.5q8 0 12 -9t8 -26q3 -22 1.5 -43.5t-2.5 -43.5v-35t-5 -35z" />
    <glyph glyph-name="OE" unicode="&#x152;" 
d="M270 219q-14 -7 -28.5 -10t-31.5 -5l-111 4q-13 8 -19 31l2 80q4 20 3.5 39t-1.5 39q3 15 21 19q17 2 36 -0.5t37 -4.5q21 2 39 1.5t39 -1.5q8 0 12 -9t8 -26q3 -22 1.5 -43.5t-2.5 -43.5v-35t-5 -35z" />
    <glyph glyph-name="oe" unicode="&#x153;" 
d="M270 219q-14 -7 -28.5 -10t-31.5 -5l-111 4q-13 8 -19 31l2 80q4 20 3.5 39t-1.5 39q3 15 21 19q17 2 36 -0.5t37 -4.5q21 2 39 1.5t39 -1.5q8 0 12 -9t8 -26q3 -22 1.5 -43.5t-2.5 -43.5v-35t-5 -35z" />
    <glyph glyph-name="ydieresis" unicode="&#xff;" 
d="M270 219q-14 -7 -28.5 -10t-31.5 -5l-111 4q-13 8 -19 31l2 80q4 20 3.5 39t-1.5 39q3 15 21 19q17 2 36 -0.5t37 -4.5q21 2 39 1.5t39 -1.5q8 0 12 -9t8 -26q3 -22 1.5 -43.5t-2.5 -43.5v-35t-5 -35z" />
    <glyph glyph-name="Ydieresis" unicode="&#x178;" 
d="M270 219q-14 -7 -28.5 -10t-31.5 -5l-111 4q-13 8 -19 31l2 80q4 20 3.5 39t-1.5 39q3 15 21 19q17 2 36 -0.5t37 -4.5q21 2 39 1.5t39 -1.5q8 0 12 -9t8 -26q3 -22 1.5 -43.5t-2.5 -43.5v-35t-5 -35z" />
    <glyph glyph-name="Acircumflex" unicode="&#xc2;" 
d="M270 219q-14 -7 -28.5 -10t-31.5 -5l-111 4q-13 8 -19 31l2 80q4 20 3.5 39t-1.5 39q3 15 21 19q17 2 36 -0.5t37 -4.5q21 2 39 1.5t39 -1.5q8 0 12 -9t8 -26q3 -22 1.5 -43.5t-2.5 -43.5v-35t-5 -35z" />
    <glyph glyph-name="Ecircumflex" unicode="&#xca;" 
d="M270 219q-14 -7 -28.5 -10t-31.5 -5l-111 4q-13 8 -19 31l2 80q4 20 3.5 39t-1.5 39q3 15 21 19q17 2 36 -0.5t37 -4.5q21 2 39 1.5t39 -1.5q8 0 12 -9t8 -26q3 -22 1.5 -43.5t-2.5 -43.5v-35t-5 -35z" />
    <glyph glyph-name="Aacute" unicode="&#xc1;" 
d="M270 219q-14 -7 -28.5 -10t-31.5 -5l-111 4q-13 8 -19 31l2 80q4 20 3.5 39t-1.5 39q3 15 21 19q17 2 36 -0.5t37 -4.5q21 2 39 1.5t39 -1.5q8 0 12 -9t8 -26q3 -22 1.5 -43.5t-2.5 -43.5v-35t-5 -35z" />
    <glyph glyph-name="Edieresis" unicode="&#xcb;" 
d="M270 219q-14 -7 -28.5 -10t-31.5 -5l-111 4q-13 8 -19 31l2 80q4 20 3.5 39t-1.5 39q3 15 21 19q17 2 36 -0.5t37 -4.5q21 2 39 1.5t39 -1.5q8 0 12 -9t8 -26q3 -22 1.5 -43.5t-2.5 -43.5v-35t-5 -35z" />
    <glyph glyph-name="Egrave" unicode="&#xc8;" 
d="M270 219q-14 -7 -28.5 -10t-31.5 -5l-111 4q-13 8 -19 31l2 80q4 20 3.5 39t-1.5 39q3 15 21 19q17 2 36 -0.5t37 -4.5q21 2 39 1.5t39 -1.5q8 0 12 -9t8 -26q3 -22 1.5 -43.5t-2.5 -43.5v-35t-5 -35z" />
    <glyph glyph-name="Iacute" unicode="&#xcd;" 
d="M270 219q-14 -7 -28.5 -10t-31.5 -5l-111 4q-13 8 -19 31l2 80q4 20 3.5 39t-1.5 39q3 15 21 19q17 2 36 -0.5t37 -4.5q21 2 39 1.5t39 -1.5q8 0 12 -9t8 -26q3 -22 1.5 -43.5t-2.5 -43.5v-35t-5 -35z" />
    <glyph glyph-name="Icircumflex" unicode="&#xce;" 
d="M270 219q-14 -7 -28.5 -10t-31.5 -5l-111 4q-13 8 -19 31l2 80q4 20 3.5 39t-1.5 39q3 15 21 19q17 2 36 -0.5t37 -4.5q21 2 39 1.5t39 -1.5q8 0 12 -9t8 -26q3 -22 1.5 -43.5t-2.5 -43.5v-35t-5 -35z" />
    <glyph glyph-name="Idieresis" unicode="&#xcf;" 
d="M270 219q-14 -7 -28.5 -10t-31.5 -5l-111 4q-13 8 -19 31l2 80q4 20 3.5 39t-1.5 39q3 15 21 19q17 2 36 -0.5t37 -4.5q21 2 39 1.5t39 -1.5q8 0 12 -9t8 -26q3 -22 1.5 -43.5t-2.5 -43.5v-35t-5 -35z" />
    <glyph glyph-name="Igrave" unicode="&#xcc;" 
d="M270 219q-14 -7 -28.5 -10t-31.5 -5l-111 4q-13 8 -19 31l2 80q4 20 3.5 39t-1.5 39q3 15 21 19q17 2 36 -0.5t37 -4.5q21 2 39 1.5t39 -1.5q8 0 12 -9t8 -26q3 -22 1.5 -43.5t-2.5 -43.5v-35t-5 -35z" />
    <glyph glyph-name="Oacute" unicode="&#xd3;" 
d="M270 219q-14 -7 -28.5 -10t-31.5 -5l-111 4q-13 8 -19 31l2 80q4 20 3.5 39t-1.5 39q3 15 21 19q17 2 36 -0.5t37 -4.5q21 2 39 1.5t39 -1.5q8 0 12 -9t8 -26q3 -22 1.5 -43.5t-2.5 -43.5v-35t-5 -35z" />
    <glyph glyph-name="Ocircumflex" unicode="&#xd4;" 
d="M270 219q-14 -7 -28.5 -10t-31.5 -5l-111 4q-13 8 -19 31l2 80q4 20 3.5 39t-1.5 39q3 15 21 19q17 2 36 -0.5t37 -4.5q21 2 39 1.5t39 -1.5q8 0 12 -9t8 -26q3 -22 1.5 -43.5t-2.5 -43.5v-35t-5 -35z" />
    <glyph glyph-name="Ograve" unicode="&#xd2;" 
d="M270 219q-14 -7 -28.5 -10t-31.5 -5l-111 4q-13 8 -19 31l2 80q4 20 3.5 39t-1.5 39q3 15 21 19q17 2 36 -0.5t37 -4.5q21 2 39 1.5t39 -1.5q8 0 12 -9t8 -26q3 -22 1.5 -43.5t-2.5 -43.5v-35t-5 -35z" />
    <glyph glyph-name="Uacute" unicode="&#xda;" 
d="M270 219q-14 -7 -28.5 -10t-31.5 -5l-111 4q-13 8 -19 31l2 80q4 20 3.5 39t-1.5 39q3 15 21 19q17 2 36 -0.5t37 -4.5q21 2 39 1.5t39 -1.5q8 0 12 -9t8 -26q3 -22 1.5 -43.5t-2.5 -43.5v-35t-5 -35z" />
    <glyph glyph-name="Ucircumflex" unicode="&#xdb;" 
d="M270 219q-14 -7 -28.5 -10t-31.5 -5l-111 4q-13 8 -19 31l2 80q4 20 3.5 39t-1.5 39q3 15 21 19q17 2 36 -0.5t37 -4.5q21 2 39 1.5t39 -1.5q8 0 12 -9t8 -26q3 -22 1.5 -43.5t-2.5 -43.5v-35t-5 -35z" />
    <glyph glyph-name="Ugrave" unicode="&#xd9;" 
d="M270 219q-14 -7 -28.5 -10t-31.5 -5l-111 4q-13 8 -19 31l2 80q4 20 3.5 39t-1.5 39q3 15 21 19q17 2 36 -0.5t37 -4.5q21 2 39 1.5t39 -1.5q8 0 12 -9t8 -26q3 -22 1.5 -43.5t-2.5 -43.5v-35t-5 -35z" />
    <glyph glyph-name="Eth" unicode="&#xd0;" 
d="M270 219q-14 -7 -28.5 -10t-31.5 -5l-111 4q-13 8 -19 31l2 80q4 20 3.5 39t-1.5 39q3 15 21 19q17 2 36 -0.5t37 -4.5q21 2 39 1.5t39 -1.5q8 0 12 -9t8 -26q3 -22 1.5 -43.5t-2.5 -43.5v-35t-5 -35z" />
    <glyph glyph-name="eth" unicode="&#xf0;" 
d="M270 219q-14 -7 -28.5 -10t-31.5 -5l-111 4q-13 8 -19 31l2 80q4 20 3.5 39t-1.5 39q3 15 21 19q17 2 36 -0.5t37 -4.5q21 2 39 1.5t39 -1.5q8 0 12 -9t8 -26q3 -22 1.5 -43.5t-2.5 -43.5v-35t-5 -35z" />
    <glyph glyph-name="Lslash" unicode="&#x141;" 
d="M270 219q-14 -7 -28.5 -10t-31.5 -5l-111 4q-13 8 -19 31l2 80q4 20 3.5 39t-1.5 39q3 15 21 19q17 2 36 -0.5t37 -4.5q21 2 39 1.5t39 -1.5q8 0 12 -9t8 -26q3 -22 1.5 -43.5t-2.5 -43.5v-35t-5 -35z" />
    <glyph glyph-name="lslash" unicode="&#x142;" 
d="M270 219q-14 -7 -28.5 -10t-31.5 -5l-111 4q-13 8 -19 31l2 80q4 20 3.5 39t-1.5 39q3 15 21 19q17 2 36 -0.5t37 -4.5q21 2 39 1.5t39 -1.5q8 0 12 -9t8 -26q3 -22 1.5 -43.5t-2.5 -43.5v-35t-5 -35z" />
    <glyph glyph-name="Scaron" unicode="&#x160;" 
d="M270 219q-14 -7 -28.5 -10t-31.5 -5l-111 4q-13 8 -19 31l2 80q4 20 3.5 39t-1.5 39q3 15 21 19q17 2 36 -0.5t37 -4.5q21 2 39 1.5t39 -1.5q8 0 12 -9t8 -26q3 -22 1.5 -43.5t-2.5 -43.5v-35t-5 -35z" />
    <glyph glyph-name="scaron" unicode="&#x161;" 
d="M270 219q-14 -7 -28.5 -10t-31.5 -5l-111 4q-13 8 -19 31l2 80q4 20 3.5 39t-1.5 39q3 15 21 19q17 2 36 -0.5t37 -4.5q21 2 39 1.5t39 -1.5q8 0 12 -9t8 -26q3 -22 1.5 -43.5t-2.5 -43.5v-35t-5 -35z" />
    <glyph glyph-name="Yacute" unicode="&#xdd;" 
d="M270 219q-14 -7 -28.5 -10t-31.5 -5l-111 4q-13 8 -19 31l2 80q4 20 3.5 39t-1.5 39q3 15 21 19q17 2 36 -0.5t37 -4.5q21 2 39 1.5t39 -1.5q8 0 12 -9t8 -26q3 -22 1.5 -43.5t-2.5 -43.5v-35t-5 -35z" />
    <glyph glyph-name="yacute" unicode="&#xfd;" 
d="M270 219q-14 -7 -28.5 -10t-31.5 -5l-111 4q-13 8 -19 31l2 80q4 20 3.5 39t-1.5 39q3 15 21 19q17 2 36 -0.5t37 -4.5q21 2 39 1.5t39 -1.5q8 0 12 -9t8 -26q3 -22 1.5 -43.5t-2.5 -43.5v-35t-5 -35z" />
    <glyph glyph-name="Thorn" unicode="&#xde;" 
d="M270 219q-14 -7 -28.5 -10t-31.5 -5l-111 4q-13 8 -19 31l2 80q4 20 3.5 39t-1.5 39q3 15 21 19q17 2 36 -0.5t37 -4.5q21 2 39 1.5t39 -1.5q8 0 12 -9t8 -26q3 -22 1.5 -43.5t-2.5 -43.5v-35t-5 -35z" />
    <glyph glyph-name="thorn" unicode="&#xfe;" 
d="M270 219q-14 -7 -28.5 -10t-31.5 -5l-111 4q-13 8 -19 31l2 80q4 20 3.5 39t-1.5 39q3 15 21 19q17 2 36 -0.5t37 -4.5q21 2 39 1.5t39 -1.5q8 0 12 -9t8 -26q3 -22 1.5 -43.5t-2.5 -43.5v-35t-5 -35z" />
    <glyph glyph-name="Zcaron" unicode="&#x17d;" 
d="M270 219q-14 -7 -28.5 -10t-31.5 -5l-111 4q-13 8 -19 31l2 80q4 20 3.5 39t-1.5 39q3 15 21 19q17 2 36 -0.5t37 -4.5q21 2 39 1.5t39 -1.5q8 0 12 -9t8 -26q3 -22 1.5 -43.5t-2.5 -43.5v-35t-5 -35z" />
    <glyph glyph-name="zcaron" unicode="&#x17e;" 
d="M270 219q-14 -7 -28.5 -10t-31.5 -5l-111 4q-13 8 -19 31l2 80q4 20 3.5 39t-1.5 39q3 15 21 19q17 2 36 -0.5t37 -4.5q21 2 39 1.5t39 -1.5q8 0 12 -9t8 -26q3 -22 1.5 -43.5t-2.5 -43.5v-35t-5 -35z" />
    </font>
</defs>
</svg>
